M48
; DRILL file {KiCad (5.1.0)-1} date 04/07/19 23:13:52
; FORMAT={-:-/ absolute / inch / decimal}
; #@! TF.CreationDate,2019-04-07T23:13:52+02:00
; #@! TF.GenerationSoftware,Kicad,Pcbnew,(5.1.0)-1
; #@! TF.FileFunction,NonPlated,1,2,NPTH
FMAT,2
INCH
T1C0.0669
T2C0.1201
T3C0.1575
%
G90
G05
T1
X2.65Y-3.85
X3.05Y-3.85
X4.25Y-3.05
X4.65Y-3.05
X5.85Y-1.45
X6.25Y-1.45
X5.05Y-1.45
X5.45Y-1.45
X3.45Y-1.45
X3.85Y-1.45
X1.85Y-3.05
X2.25Y-3.05
X1.05Y-1.45
X1.45Y-1.45
X1.85Y-1.45
X2.25Y-1.45
X5.05Y-4.65
X5.45Y-4.65
X1.05Y-3.85
X1.45Y-3.85
X4.25Y-1.45
X4.65Y-1.45
X1.85Y-4.65
X2.25Y-4.65
X2.65Y-3.05
X3.05Y-3.05
X4.25Y-4.65
X4.65Y-4.65
X2.65Y-4.65
X3.05Y-4.65
X3.45Y-3.05
X3.85Y-3.05
X5.05Y-3.05
X5.45Y-3.05
X5.85Y-4.65
X6.25Y-4.65
X1.05Y-3.05
X1.45Y-3.05
X3.45Y-4.65
X3.85Y-4.65
X1.85Y-3.85
X2.25Y-3.85
X2.65Y-2.25
X3.05Y-2.25
X4.25Y-3.85
X4.65Y-3.85
X5.85Y-2.65
X6.25Y-2.65
X3.45Y-2.25
X3.85Y-2.25
X5.05Y-2.25
X5.45Y-2.25
X1.05Y-2.25
X1.45Y-2.25
X3.45Y-3.85
X3.85Y-3.85
X1.85Y-2.25
X2.25Y-2.25
X5.45Y-3.85
X5.85Y-3.85
X2.65Y-1.45
X3.05Y-1.45
X4.25Y-2.25
X4.65Y-2.25
T2
X5.7744Y-2.1815
X5.7744Y-3.1185
X5.1815Y-3.5744
X6.1185Y-3.5744
T3
X5.25Y-3.05
X6.05Y-4.65
X1.25Y-3.05
X3.65Y-4.65
X2.05Y-3.85
X2.85Y-2.25
X4.45Y-3.85
X6.05Y-2.65
X6.3744Y-2.1815
X6.3744Y-3.1185
X3.65Y-2.25
X5.25Y-2.25
X1.25Y-2.25
X3.65Y-3.85
X2.05Y-2.25
X5.1815Y-4.1744
X5.65Y-3.85
X6.1185Y-4.1744
X2.85Y-1.45
X4.45Y-2.25
X2.85Y-3.85
X4.45Y-3.05
X6.05Y-1.45
X5.25Y-1.45
X3.65Y-1.45
X2.05Y-3.05
X1.25Y-1.45
X2.05Y-1.45
X5.25Y-4.65
X1.25Y-3.85
X4.45Y-1.45
X2.05Y-4.65
X2.85Y-3.05
X4.45Y-4.65
X2.85Y-4.65
X3.65Y-3.05
T0
M30
