M48
; DRILL file {KiCad (5.1.0)-1} date 04/07/19 23:13:52
; FORMAT={-:-/ absolute / inch / decimal}
; #@! TF.CreationDate,2019-04-07T23:13:52+02:00
; #@! TF.GenerationSoftware,Kicad,Pcbnew,(5.1.0)-1
; #@! TF.FileFunction,Plated,1,2,PTH
FMAT,2
INCH
T1C0.0150
T2C0.0157
T3C0.0315
T4C0.0394
T5C0.0591
%
G90
G05
T1
X4.03Y-2.85
X4.05Y-1.99
X4.47Y-1.71
X4.65Y-2.12
X4.68Y-2.37
X4.77Y-2.78
X5.18Y-1.08
T2
X4.24Y-1.62
X4.66Y-1.62
T3
X1.1Y-4.2
X1.4Y-4.2
X3.5Y-4.2
X3.8Y-4.2
X2.7Y-1.8
X3.0Y-1.8
X2.7Y-5.0
X3.0Y-5.0
X5.1Y-3.4
X5.4Y-3.4
X4.3Y-4.2
X4.6Y-4.2
X5.9Y-1.8
X6.2Y-1.8
X1.9Y-2.6
X2.2Y-2.6
X1.1Y-3.4
X1.4Y-3.4
X3.5Y-3.4
X3.8Y-3.4
X1.9Y-5.0
X2.2Y-5.0
X2.7Y-4.2
X3.0Y-4.2
X4.3Y-1.8
X4.6Y-1.8
X2.7Y-3.4
X3.0Y-3.4
X5.64Y-2.85
X5.64Y-3.15
X3.5Y-2.6
X3.8Y-2.6
X4.3Y-3.4
X4.6Y-3.4
X6.0Y-3.75
X6.3Y-3.75
X1.9Y-1.8
X2.2Y-1.8
X4.35Y-1.1
X4.65Y-1.1
X5.9Y-5.0
X6.2Y-5.0
X1.9Y-4.2
X2.2Y-4.2
X1.1Y-2.6
X1.4Y-2.6
X3.5Y-5.0
X3.8Y-5.0
X2.7Y-2.6
X3.0Y-2.6
X5.7Y-1.65
X5.7Y-1.95
X3.5Y-1.8
X3.8Y-1.8
X4.3Y-2.6
X4.6Y-2.6
X5.1Y-5.0
X5.4Y-5.0
X4.3Y-5.0
X4.6Y-5.0
X5.9Y-3.3
X6.2Y-3.3
X1.9Y-3.4
X2.2Y-3.4
X1.1Y-1.8
X1.4Y-1.8
T4
X4.9494Y-1.1122
X4.9494Y-1.2122
X4.9494Y-1.3122
X4.9494Y-1.4122
X4.9494Y-1.5122
X4.9494Y-1.6122
X4.9494Y-1.7122
X4.9494Y-1.8122
X4.9494Y-1.9122
X4.9494Y-2.0122
X4.9494Y-2.1122
X4.9494Y-2.2122
X4.9494Y-2.3122
X4.9494Y-2.4122
X4.9494Y-2.5122
X4.9494Y-2.6122
X4.9494Y-2.7122
X5.55Y-1.1122
X5.55Y-1.2122
X5.55Y-1.3122
X5.55Y-1.4122
X5.55Y-1.5122
X5.55Y-1.6122
X5.55Y-1.7122
X5.55Y-1.8122
X5.55Y-1.9122
X5.55Y-2.0122
X5.55Y-2.1122
X5.55Y-2.2122
X5.55Y-2.3122
X5.55Y-2.4122
X5.55Y-2.5122
X5.55Y-2.6122
X5.55Y-2.7122
T5
X5.5Y-3.75
X5.75Y-3.65
X2.7Y-1.35
X2.95Y-1.25
X4.3Y-2.15
X4.55Y-2.05
X2.7Y-3.75
X2.95Y-3.65
X4.3Y-2.95
X4.55Y-2.85
X5.9Y-1.35
X6.15Y-1.25
X5.1Y-1.35
X5.35Y-1.25
X3.5Y-1.35
X3.75Y-1.25
X1.9Y-2.95
X2.15Y-2.85
X1.1Y-1.35
X1.35Y-1.25
X1.9Y-1.35
X2.15Y-1.25
X5.1Y-4.55
X5.35Y-4.45
X1.1Y-3.75
X1.35Y-3.65
X4.3Y-1.35
X4.55Y-1.25
X1.9Y-4.55
X2.15Y-4.45
X2.7Y-2.95
X2.95Y-2.85
X4.3Y-4.55
X4.55Y-4.45
X2.7Y-4.55
X2.95Y-4.45
X3.5Y-2.95
X3.75Y-2.85
X5.1Y-2.95
X5.35Y-2.85
X5.9Y-4.55
X6.15Y-4.45
X1.1Y-2.95
X1.35Y-2.85
X3.5Y-4.55
X3.75Y-4.45
X1.9Y-3.75
X2.15Y-3.65
X2.7Y-2.15
X2.95Y-2.05
X4.3Y-3.75
X4.55Y-3.65
X5.9Y-2.55
X6.15Y-2.45
X3.5Y-2.15
X3.75Y-2.05
X5.1Y-2.15
X5.35Y-2.05
X1.1Y-2.15
X1.35Y-2.05
X3.5Y-3.75
X3.75Y-3.65
X1.9Y-2.15
X2.15Y-2.05
T0
M30
