solid OpenSCAD_Model
  facet normal -1 0 0
    outer loop
      vertex 0 0 -17.5
      vertex 0 97.5 -9
      vertex 0 97.5 -17.5
    endloop
  endfacet
  facet normal -1 -0 0
    outer loop
      vertex 0 97.5 -9
      vertex 0 0 -17.5
      vertex 0 0 -9
    endloop
  endfacet
  facet normal 0 0 1
    outer loop
      vertex 53 97.5 -9
      vertex 6.5 95.25 -9
      vertex 53 95.25 -9
    endloop
  endfacet
  facet normal 0 0 1
    outer loop
      vertex 6.5 95.25 -9
      vertex 5 94.5 -9
      vertex 6.5 91.5 -9
    endloop
  endfacet
  facet normal 0 0 1
    outer loop
      vertex 6.5 95.25 -9
      vertex 4.61803 95.6756 -9
      vertex 5 94.5 -9
    endloop
  endfacet
  facet normal -0 0 1
    outer loop
      vertex 3.61803 96.4021 -9
      vertex 6.5 95.25 -9
      vertex 53 97.5 -9
    endloop
  endfacet
  facet normal 0 0 1
    outer loop
      vertex 6.5 95.25 -9
      vertex 3.61803 96.4021 -9
      vertex 4.61803 95.6756 -9
    endloop
  endfacet
  facet normal -0 0 1
    outer loop
      vertex 0 97.5 -9
      vertex 3.61803 96.4021 -9
      vertex 53 97.5 -9
    endloop
  endfacet
  facet normal 0 0 1
    outer loop
      vertex 1 94.5 -9
      vertex 0 97.5 -9
      vertex 1 3 -9
    endloop
  endfacet
  facet normal 0 0 1
    outer loop
      vertex 1.38197 95.6756 -9
      vertex 0 97.5 -9
      vertex 1 94.5 -9
    endloop
  endfacet
  facet normal 0 0 1
    outer loop
      vertex 2.38197 96.4021 -9
      vertex 0 97.5 -9
      vertex 1.38197 95.6756 -9
    endloop
  endfacet
  facet normal 0 0 1
    outer loop
      vertex 3.61803 96.4021 -9
      vertex 0 97.5 -9
      vertex 2.38197 96.4021 -9
    endloop
  endfacet
  facet normal -0 0 1
    outer loop
      vertex 4.61803 93.3244 -9
      vertex 6.5 91.5 -9
      vertex 5 94.5 -9
    endloop
  endfacet
  facet normal -0 0 1
    outer loop
      vertex 3.61803 92.5979 -9
      vertex 6.5 91.5 -9
      vertex 4.61803 93.3244 -9
    endloop
  endfacet
  facet normal 0 0 1
    outer loop
      vertex 2.25 91.5 -9
      vertex 3.61803 92.5979 -9
      vertex 2.38197 92.5979 -9
    endloop
  endfacet
  facet normal 0 0 1
    outer loop
      vertex 3.61803 92.5979 -9
      vertex 2.25 91.5 -9
      vertex 6.5 91.5 -9
    endloop
  endfacet
  facet normal 0 0 1
    outer loop
      vertex 2.25 91.5 -9
      vertex 1.38197 93.3244 -9
      vertex 2.25 6 -9
    endloop
  endfacet
  facet normal 0 0 1
    outer loop
      vertex 1.38197 93.3244 -9
      vertex 2.25 91.5 -9
      vertex 2.38197 92.5979 -9
    endloop
  endfacet
  facet normal 0 0 1
    outer loop
      vertex 6.5 6 -9
      vertex 5 3 -9
      vertex 6.5 2.25 -9
    endloop
  endfacet
  facet normal 0 0 1
    outer loop
      vertex 6.5 6 -9
      vertex 4.61803 4.17557 -9
      vertex 5 3 -9
    endloop
  endfacet
  facet normal 0 0 1
    outer loop
      vertex 6.5 6 -9
      vertex 3.61803 4.90211 -9
      vertex 4.61803 4.17557 -9
    endloop
  endfacet
  facet normal -0 0 1
    outer loop
      vertex 2.25 6 -9
      vertex 3.61803 4.90211 -9
      vertex 6.5 6 -9
    endloop
  endfacet
  facet normal 0 0 1
    outer loop
      vertex 3.61803 4.90211 -9
      vertex 2.25 6 -9
      vertex 2.38197 4.90211 -9
    endloop
  endfacet
  facet normal 0 0 1
    outer loop
      vertex 2.25 6 -9
      vertex 1.38197 4.17557 -9
      vertex 2.38197 4.90211 -9
    endloop
  endfacet
  facet normal 0 0 1
    outer loop
      vertex 1.38197 93.3244 -9
      vertex 1.38197 4.17557 -9
      vertex 2.25 6 -9
    endloop
  endfacet
  facet normal 0 0 1
    outer loop
      vertex 1 94.5 -9
      vertex 1.38197 4.17557 -9
      vertex 1.38197 93.3244 -9
    endloop
  endfacet
  facet normal 0 0 1
    outer loop
      vertex 1.38197 4.17557 -9
      vertex 1 94.5 -9
      vertex 1 3 -9
    endloop
  endfacet
  facet normal -0 0 1
    outer loop
      vertex 138.018 93.3244 -9
      vertex 138.4 3 -9
      vertex 138.4 94.5 -9
    endloop
  endfacet
  facet normal 0 0 1
    outer loop
      vertex 138.018 93.3244 -9
      vertex 138.018 4.17557 -9
      vertex 138.4 3 -9
    endloop
  endfacet
  facet normal 0 0 1
    outer loop
      vertex 138.018 93.3244 -9
      vertex 137.15 91.5 -9
      vertex 138.018 4.17557 -9
    endloop
  endfacet
  facet normal -0 0 1
    outer loop
      vertex 137.018 92.5979 -9
      vertex 137.15 91.5 -9
      vertex 138.018 93.3244 -9
    endloop
  endfacet
  facet normal -0 0 1
    outer loop
      vertex 135.782 92.5979 -9
      vertex 137.15 91.5 -9
      vertex 137.018 92.5979 -9
    endloop
  endfacet
  facet normal 0 0 1
    outer loop
      vertex 133.9 91.5 -9
      vertex 135.782 92.5979 -9
      vertex 134.782 93.3244 -9
    endloop
  endfacet
  facet normal 0 0 1
    outer loop
      vertex 133.9 91.5 -9
      vertex 134.4 94.5 -9
      vertex 133.9 95.25 -9
    endloop
  endfacet
  facet normal 0 0 1
    outer loop
      vertex 135.782 92.5979 -9
      vertex 133.9 91.5 -9
      vertex 137.15 91.5 -9
    endloop
  endfacet
  facet normal 0 0 1
    outer loop
      vertex 134.4 94.5 -9
      vertex 133.9 91.5 -9
      vertex 134.782 93.3244 -9
    endloop
  endfacet
  facet normal 0 0 1
    outer loop
      vertex 139.4 97.5 -9
      vertex 138.4 94.5 -9
      vertex 139.4 0 -9
    endloop
  endfacet
  facet normal 0 0 1
    outer loop
      vertex 139.4 97.5 -9
      vertex 138.018 95.6756 -9
      vertex 138.4 94.5 -9
    endloop
  endfacet
  facet normal 0 0 1
    outer loop
      vertex 139.4 97.5 -9
      vertex 137.018 96.4021 -9
      vertex 138.018 95.6756 -9
    endloop
  endfacet
  facet normal 0 0 1
    outer loop
      vertex 139.4 97.5 -9
      vertex 135.782 96.4021 -9
      vertex 137.018 96.4021 -9
    endloop
  endfacet
  facet normal 0 0 1
    outer loop
      vertex 134.782 95.6756 -9
      vertex 133.9 95.25 -9
      vertex 134.4 94.5 -9
    endloop
  endfacet
  facet normal 0 0 1
    outer loop
      vertex 135.782 96.4021 -9
      vertex 133.9 95.25 -9
      vertex 134.782 95.6756 -9
    endloop
  endfacet
  facet normal -0 0 1
    outer loop
      vertex 87 97.5 -9
      vertex 135.782 96.4021 -9
      vertex 139.4 97.5 -9
    endloop
  endfacet
  facet normal 0 0 1
    outer loop
      vertex 87 97.5 -9
      vertex 133.9 95.25 -9
      vertex 135.782 96.4021 -9
    endloop
  endfacet
  facet normal 0 0 1
    outer loop
      vertex 133.9 95.25 -9
      vertex 87 97.5 -9
      vertex 87 95.25 -9
    endloop
  endfacet
  facet normal -0 0 1
    outer loop
      vertex 138.4 3 -9
      vertex 139.4 0 -9
      vertex 138.4 94.5 -9
    endloop
  endfacet
  facet normal -0 0 1
    outer loop
      vertex 138.018 1.82443 -9
      vertex 139.4 0 -9
      vertex 138.4 3 -9
    endloop
  endfacet
  facet normal -0 0 1
    outer loop
      vertex 137.018 1.09789 -9
      vertex 139.4 0 -9
      vertex 138.018 1.82443 -9
    endloop
  endfacet
  facet normal -0 0 1
    outer loop
      vertex 135.782 1.09789 -9
      vertex 139.4 0 -9
      vertex 137.018 1.09789 -9
    endloop
  endfacet
  facet normal 0 0 1
    outer loop
      vertex 133.9 2.25 -9
      vertex 134.4 3 -9
      vertex 133.9 6 -9
    endloop
  endfacet
  facet normal -0 0 1
    outer loop
      vertex 133.9 2.25 -9
      vertex 134.782 1.82443 -9
      vertex 134.4 3 -9
    endloop
  endfacet
  facet normal 0 0 1
    outer loop
      vertex 133.9 2.25 -9
      vertex 135.782 1.09789 -9
      vertex 134.782 1.82443 -9
    endloop
  endfacet
  facet normal -0 0 1
    outer loop
      vertex 6.5 2.25 -9
      vertex 135.782 1.09789 -9
      vertex 133.9 2.25 -9
    endloop
  endfacet
  facet normal 0 0 1
    outer loop
      vertex 3.61803 1.09789 -9
      vertex 135.782 1.09789 -9
      vertex 6.5 2.25 -9
    endloop
  endfacet
  facet normal 0 0 1
    outer loop
      vertex 4.61803 1.82443 -9
      vertex 6.5 2.25 -9
      vertex 5 3 -9
    endloop
  endfacet
  facet normal 0 0 1
    outer loop
      vertex 3.61803 1.09789 -9
      vertex 6.5 2.25 -9
      vertex 4.61803 1.82443 -9
    endloop
  endfacet
  facet normal 0 0 1
    outer loop
      vertex 135.782 1.09789 -9
      vertex 3.61803 1.09789 -9
      vertex 139.4 0 -9
    endloop
  endfacet
  facet normal 0 0 1
    outer loop
      vertex 0 0 -9
      vertex 3.61803 1.09789 -9
      vertex 2.38197 1.09789 -9
    endloop
  endfacet
  facet normal 0 0 1
    outer loop
      vertex 3.61803 1.09789 -9
      vertex 0 0 -9
      vertex 139.4 0 -9
    endloop
  endfacet
  facet normal 0 0 1
    outer loop
      vertex 1.38197 1.82443 -9
      vertex 0 0 -9
      vertex 2.38197 1.09789 -9
    endloop
  endfacet
  facet normal 0 0 1
    outer loop
      vertex 1 3 -9
      vertex 0 0 -9
      vertex 1.38197 1.82443 -9
    endloop
  endfacet
  facet normal 0 0 1
    outer loop
      vertex 0 0 -9
      vertex 1 3 -9
      vertex 0 97.5 -9
    endloop
  endfacet
  facet normal -0 0 1
    outer loop
      vertex 137.15 6 -9
      vertex 138.018 4.17557 -9
      vertex 137.15 91.5 -9
    endloop
  endfacet
  facet normal 0 0 1
    outer loop
      vertex 137.15 6 -9
      vertex 137.018 4.90211 -9
      vertex 138.018 4.17557 -9
    endloop
  endfacet
  facet normal 0 0 1
    outer loop
      vertex 137.15 6 -9
      vertex 135.782 4.90211 -9
      vertex 137.018 4.90211 -9
    endloop
  endfacet
  facet normal -0 0 1
    outer loop
      vertex 133.9 6 -9
      vertex 135.782 4.90211 -9
      vertex 137.15 6 -9
    endloop
  endfacet
  facet normal 0 0 1
    outer loop
      vertex 134.782 4.17557 -9
      vertex 133.9 6 -9
      vertex 134.4 3 -9
    endloop
  endfacet
  facet normal 0 0 1
    outer loop
      vertex 135.782 4.90211 -9
      vertex 133.9 6 -9
      vertex 134.782 4.17557 -9
    endloop
  endfacet
  facet normal 1 -0 0
    outer loop
      vertex 139.4 0 -9
      vertex 139.4 97.5 -17.5
      vertex 139.4 97.5 -9
    endloop
  endfacet
  facet normal 1 0 0
    outer loop
      vertex 139.4 97.5 -17.5
      vertex 139.4 0 -9
      vertex 139.4 0 -17.5
    endloop
  endfacet
  facet normal 0 0 -1
    outer loop
      vertex 4.61803 93.3244 -17.5
      vertex 134.782 93.3244 -17.5
      vertex 4.61803 4.17557 -17.5
    endloop
  endfacet
  facet normal 0 0 -1
    outer loop
      vertex 134.782 93.3244 -17.5
      vertex 4.61803 93.3244 -17.5
      vertex 5 94.5 -17.5
    endloop
  endfacet
  facet normal 0 0 -1
    outer loop
      vertex 3.61803 4.90211 -17.5
      vertex 4.61803 93.3244 -17.5
      vertex 4.61803 4.17557 -17.5
    endloop
  endfacet
  facet normal 0 0 -1
    outer loop
      vertex 3.61803 4.90211 -17.5
      vertex 3.61803 92.5979 -17.5
      vertex 4.61803 93.3244 -17.5
    endloop
  endfacet
  facet normal 0 0 -1
    outer loop
      vertex 2.38197 4.90211 -17.5
      vertex 3.61803 92.5979 -17.5
      vertex 3.61803 4.90211 -17.5
    endloop
  endfacet
  facet normal 0 0 -1
    outer loop
      vertex 2.38197 4.90211 -17.5
      vertex 2.38197 92.5979 -17.5
      vertex 3.61803 92.5979 -17.5
    endloop
  endfacet
  facet normal 0 0 -1
    outer loop
      vertex 1.38197 4.17557 -17.5
      vertex 2.38197 92.5979 -17.5
      vertex 2.38197 4.90211 -17.5
    endloop
  endfacet
  facet normal 0 0 -1
    outer loop
      vertex 1.38197 4.17557 -17.5
      vertex 1.38197 93.3244 -17.5
      vertex 2.38197 92.5979 -17.5
    endloop
  endfacet
  facet normal 0 0 -1
    outer loop
      vertex 1 3 -17.5
      vertex 1.38197 93.3244 -17.5
      vertex 1.38197 4.17557 -17.5
    endloop
  endfacet
  facet normal -0 0 -1
    outer loop
      vertex 1.38197 93.3244 -17.5
      vertex 1 3 -17.5
      vertex 1 94.5 -17.5
    endloop
  endfacet
  facet normal 0 0 -1
    outer loop
      vertex 138.018 4.17557 -17.5
      vertex 138.4 94.5 -17.5
      vertex 138.4 3 -17.5
    endloop
  endfacet
  facet normal 0 0 -1
    outer loop
      vertex 138.018 4.17557 -17.5
      vertex 138.018 93.3244 -17.5
      vertex 138.4 94.5 -17.5
    endloop
  endfacet
  facet normal 0 0 -1
    outer loop
      vertex 137.018 4.90211 -17.5
      vertex 138.018 93.3244 -17.5
      vertex 138.018 4.17557 -17.5
    endloop
  endfacet
  facet normal 0 0 -1
    outer loop
      vertex 137.018 4.90211 -17.5
      vertex 137.018 92.5979 -17.5
      vertex 138.018 93.3244 -17.5
    endloop
  endfacet
  facet normal 0 0 -1
    outer loop
      vertex 135.782 4.90211 -17.5
      vertex 137.018 92.5979 -17.5
      vertex 137.018 4.90211 -17.5
    endloop
  endfacet
  facet normal 0 0 -1
    outer loop
      vertex 135.782 4.90211 -17.5
      vertex 135.782 92.5979 -17.5
      vertex 137.018 92.5979 -17.5
    endloop
  endfacet
  facet normal 0 0 -1
    outer loop
      vertex 134.782 4.17557 -17.5
      vertex 135.782 92.5979 -17.5
      vertex 135.782 4.90211 -17.5
    endloop
  endfacet
  facet normal 0 0 -1
    outer loop
      vertex 134.782 4.17557 -17.5
      vertex 134.782 93.3244 -17.5
      vertex 135.782 92.5979 -17.5
    endloop
  endfacet
  facet normal 0 0 -1
    outer loop
      vertex 5 3 -17.5
      vertex 134.782 4.17557 -17.5
      vertex 134.4 3 -17.5
    endloop
  endfacet
  facet normal 0 0 -1
    outer loop
      vertex 4.61803 4.17557 -17.5
      vertex 134.782 4.17557 -17.5
      vertex 5 3 -17.5
    endloop
  endfacet
  facet normal 0 0 -1
    outer loop
      vertex 139.4 0 -17.5
      vertex 138.4 3 -17.5
      vertex 139.4 97.5 -17.5
    endloop
  endfacet
  facet normal 0 0 -1
    outer loop
      vertex 139.4 0 -17.5
      vertex 138.018 1.82443 -17.5
      vertex 138.4 3 -17.5
    endloop
  endfacet
  facet normal 0 0 -1
    outer loop
      vertex 139.4 0 -17.5
      vertex 137.018 1.09789 -17.5
      vertex 138.018 1.82443 -17.5
    endloop
  endfacet
  facet normal 0 0 -1
    outer loop
      vertex 139.4 0 -17.5
      vertex 135.782 1.09789 -17.5
      vertex 137.018 1.09789 -17.5
    endloop
  endfacet
  facet normal 0 0 -1
    outer loop
      vertex 134.782 4.17557 -17.5
      vertex 4.61803 4.17557 -17.5
      vertex 134.782 93.3244 -17.5
    endloop
  endfacet
  facet normal 0 0 -1
    outer loop
      vertex 134.782 1.82443 -17.5
      vertex 5 3 -17.5
      vertex 134.4 3 -17.5
    endloop
  endfacet
  facet normal 0 0 -1
    outer loop
      vertex 4.61803 1.82443 -17.5
      vertex 134.782 1.82443 -17.5
      vertex 135.782 1.09789 -17.5
    endloop
  endfacet
  facet normal 0 0 -1
    outer loop
      vertex 3.61803 1.09789 -17.5
      vertex 135.782 1.09789 -17.5
      vertex 139.4 0 -17.5
    endloop
  endfacet
  facet normal 0 0 -1
    outer loop
      vertex 134.782 1.82443 -17.5
      vertex 4.61803 1.82443 -17.5
      vertex 5 3 -17.5
    endloop
  endfacet
  facet normal 0 0 -1
    outer loop
      vertex 135.782 1.09789 -17.5
      vertex 3.61803 1.09789 -17.5
      vertex 4.61803 1.82443 -17.5
    endloop
  endfacet
  facet normal 0 0 -1
    outer loop
      vertex 0 0 -17.5
      vertex 3.61803 1.09789 -17.5
      vertex 139.4 0 -17.5
    endloop
  endfacet
  facet normal -0 0 -1
    outer loop
      vertex 1 3 -17.5
      vertex 0 0 -17.5
      vertex 1 94.5 -17.5
    endloop
  endfacet
  facet normal -0 0 -1
    outer loop
      vertex 1.38197 1.82443 -17.5
      vertex 0 0 -17.5
      vertex 1 3 -17.5
    endloop
  endfacet
  facet normal -0 0 -1
    outer loop
      vertex 2.38197 1.09789 -17.5
      vertex 0 0 -17.5
      vertex 1.38197 1.82443 -17.5
    endloop
  endfacet
  facet normal -0 0 -1
    outer loop
      vertex 3.61803 1.09789 -17.5
      vertex 0 0 -17.5
      vertex 2.38197 1.09789 -17.5
    endloop
  endfacet
  facet normal 0 0 -1
    outer loop
      vertex 138.4 94.5 -17.5
      vertex 139.4 97.5 -17.5
      vertex 138.4 3 -17.5
    endloop
  endfacet
  facet normal 0 0 -1
    outer loop
      vertex 138.018 95.6756 -17.5
      vertex 139.4 97.5 -17.5
      vertex 138.4 94.5 -17.5
    endloop
  endfacet
  facet normal 0 0 -1
    outer loop
      vertex 137.018 96.4021 -17.5
      vertex 139.4 97.5 -17.5
      vertex 138.018 95.6756 -17.5
    endloop
  endfacet
  facet normal 0 0 -1
    outer loop
      vertex 135.782 96.4021 -17.5
      vertex 139.4 97.5 -17.5
      vertex 137.018 96.4021 -17.5
    endloop
  endfacet
  facet normal 0 0 -1
    outer loop
      vertex 134.782 93.3244 -17.5
      vertex 5 94.5 -17.5
      vertex 134.4 94.5 -17.5
    endloop
  endfacet
  facet normal 0 0 -1
    outer loop
      vertex 134.4 94.5 -17.5
      vertex 5 94.5 -17.5
      vertex 134.782 95.6756 -17.5
    endloop
  endfacet
  facet normal 0 0 -1
    outer loop
      vertex 4.61803 95.6756 -17.5
      vertex 134.782 95.6756 -17.5
      vertex 5 94.5 -17.5
    endloop
  endfacet
  facet normal 0 0 -1
    outer loop
      vertex 134.782 95.6756 -17.5
      vertex 4.61803 95.6756 -17.5
      vertex 135.782 96.4021 -17.5
    endloop
  endfacet
  facet normal 0 0 -1
    outer loop
      vertex 3.61803 96.4021 -17.5
      vertex 135.782 96.4021 -17.5
      vertex 4.61803 95.6756 -17.5
    endloop
  endfacet
  facet normal 0 0 -1
    outer loop
      vertex 135.782 96.4021 -17.5
      vertex 3.61803 96.4021 -17.5
      vertex 139.4 97.5 -17.5
    endloop
  endfacet
  facet normal 0 0 -1
    outer loop
      vertex 0 97.5 -17.5
      vertex 3.61803 96.4021 -17.5
      vertex 2.38197 96.4021 -17.5
    endloop
  endfacet
  facet normal 0 0 -1
    outer loop
      vertex 3.61803 96.4021 -17.5
      vertex 0 97.5 -17.5
      vertex 139.4 97.5 -17.5
    endloop
  endfacet
  facet normal 0 0 -1
    outer loop
      vertex 1.38197 95.6756 -17.5
      vertex 0 97.5 -17.5
      vertex 2.38197 96.4021 -17.5
    endloop
  endfacet
  facet normal 0 0 -1
    outer loop
      vertex 1 94.5 -17.5
      vertex 0 97.5 -17.5
      vertex 1.38197 95.6756 -17.5
    endloop
  endfacet
  facet normal 0 0 -1
    outer loop
      vertex 0 97.5 -17.5
      vertex 1 94.5 -17.5
      vertex 0 0 -17.5
    endloop
  endfacet
  facet normal 0 -1 0
    outer loop
      vertex 0 0 -17.5
      vertex 139.4 0 -9
      vertex 0 0 -9
    endloop
  endfacet
  facet normal 0 -1 -0
    outer loop
      vertex 139.4 0 -9
      vertex 0 0 -17.5
      vertex 139.4 0 -17.5
    endloop
  endfacet
  facet normal 0 1 0
    outer loop
      vertex 139.4 97.5 -9
      vertex 87 97.5 -16.5
      vertex 87 97.5 -9
    endloop
  endfacet
  facet normal 0 1 0
    outer loop
      vertex 87 97.5 -16.5
      vertex 139.4 97.5 -17.5
      vertex 53 97.5 -16.5
    endloop
  endfacet
  facet normal 0 1 -0
    outer loop
      vertex 139.4 97.5 -17.5
      vertex 87 97.5 -16.5
      vertex 139.4 97.5 -9
    endloop
  endfacet
  facet normal 0 1 -0
    outer loop
      vertex 53 97.5 -16.5
      vertex 0 97.5 -9
      vertex 53 97.5 -9
    endloop
  endfacet
  facet normal 0 1 0
    outer loop
      vertex 53 97.5 -16.5
      vertex 0 97.5 -17.5
      vertex 0 97.5 -9
    endloop
  endfacet
  facet normal 0 1 0
    outer loop
      vertex 0 97.5 -17.5
      vertex 53 97.5 -16.5
      vertex 139.4 97.5 -17.5
    endloop
  endfacet
  facet normal -0.951056 -0.309017 0
    outer loop
      vertex 5 3 -17.5
      vertex 4.61803 4.17557 -9
      vertex 4.61803 4.17557 -17.5
    endloop
  endfacet
  facet normal -0.951056 -0.309017 0
    outer loop
      vertex 4.61803 4.17557 -9
      vertex 5 3 -17.5
      vertex 5 3 -9
    endloop
  endfacet
  facet normal -0.587785 0.809017 0
    outer loop
      vertex 4.61803 1.82443 -17.5
      vertex 3.61803 1.09789 -9
      vertex 4.61803 1.82443 -9
    endloop
  endfacet
  facet normal -0.587785 0.809017 0
    outer loop
      vertex 3.61803 1.09789 -9
      vertex 4.61803 1.82443 -17.5
      vertex 3.61803 1.09789 -17.5
    endloop
  endfacet
  facet normal 0.587785 -0.809017 0
    outer loop
      vertex 1.38197 4.17557 -17.5
      vertex 2.38197 4.90211 -9
      vertex 1.38197 4.17557 -9
    endloop
  endfacet
  facet normal 0.587785 -0.809017 0
    outer loop
      vertex 2.38197 4.90211 -9
      vertex 1.38197 4.17557 -17.5
      vertex 2.38197 4.90211 -17.5
    endloop
  endfacet
  facet normal -0.587785 -0.809017 0
    outer loop
      vertex 3.61803 4.90211 -17.5
      vertex 4.61803 4.17557 -9
      vertex 3.61803 4.90211 -9
    endloop
  endfacet
  facet normal -0.587785 -0.809017 -0
    outer loop
      vertex 4.61803 4.17557 -9
      vertex 3.61803 4.90211 -17.5
      vertex 4.61803 4.17557 -17.5
    endloop
  endfacet
  facet normal 0.951057 -0.309017 0
    outer loop
      vertex 1 3 -9
      vertex 1.38197 4.17557 -17.5
      vertex 1.38197 4.17557 -9
    endloop
  endfacet
  facet normal 0.951057 -0.309017 0
    outer loop
      vertex 1.38197 4.17557 -17.5
      vertex 1 3 -9
      vertex 1 3 -17.5
    endloop
  endfacet
  facet normal 0 -1 0
    outer loop
      vertex 2.38197 4.90211 -17.5
      vertex 3.61803 4.90211 -9
      vertex 2.38197 4.90211 -9
    endloop
  endfacet
  facet normal 0 -1 -0
    outer loop
      vertex 3.61803 4.90211 -9
      vertex 2.38197 4.90211 -17.5
      vertex 3.61803 4.90211 -17.5
    endloop
  endfacet
  facet normal 0.951057 0.309016 0
    outer loop
      vertex 1.38197 1.82443 -9
      vertex 1 3 -17.5
      vertex 1 3 -9
    endloop
  endfacet
  facet normal 0.951057 0.309016 0
    outer loop
      vertex 1 3 -17.5
      vertex 1.38197 1.82443 -9
      vertex 1.38197 1.82443 -17.5
    endloop
  endfacet
  facet normal 0.587785 0.809017 -0
    outer loop
      vertex 2.38197 1.09789 -17.5
      vertex 1.38197 1.82443 -9
      vertex 2.38197 1.09789 -9
    endloop
  endfacet
  facet normal 0.587785 0.809017 0
    outer loop
      vertex 1.38197 1.82443 -9
      vertex 2.38197 1.09789 -17.5
      vertex 1.38197 1.82443 -17.5
    endloop
  endfacet
  facet normal -0.951056 0.309017 0
    outer loop
      vertex 4.61803 1.82443 -17.5
      vertex 5 3 -9
      vertex 5 3 -17.5
    endloop
  endfacet
  facet normal -0.951056 0.309017 0
    outer loop
      vertex 5 3 -9
      vertex 4.61803 1.82443 -17.5
      vertex 4.61803 1.82443 -9
    endloop
  endfacet
  facet normal 0 1 -0
    outer loop
      vertex 3.61803 1.09789 -17.5
      vertex 2.38197 1.09789 -9
      vertex 3.61803 1.09789 -9
    endloop
  endfacet
  facet normal 0 1 0
    outer loop
      vertex 2.38197 1.09789 -9
      vertex 3.61803 1.09789 -17.5
      vertex 2.38197 1.09789 -17.5
    endloop
  endfacet
  facet normal -0.951056 -0.309018 0
    outer loop
      vertex 5 94.5 -17.5
      vertex 4.61803 95.6756 -9
      vertex 4.61803 95.6756 -17.5
    endloop
  endfacet
  facet normal -0.951056 -0.309018 0
    outer loop
      vertex 4.61803 95.6756 -9
      vertex 5 94.5 -17.5
      vertex 5 94.5 -9
    endloop
  endfacet
  facet normal -0.587788 0.809015 0
    outer loop
      vertex 4.61803 93.3244 -17.5
      vertex 3.61803 92.5979 -9
      vertex 4.61803 93.3244 -9
    endloop
  endfacet
  facet normal -0.587788 0.809015 0
    outer loop
      vertex 3.61803 92.5979 -9
      vertex 4.61803 93.3244 -17.5
      vertex 3.61803 92.5979 -17.5
    endloop
  endfacet
  facet normal 0.587788 -0.809015 0
    outer loop
      vertex 1.38197 95.6756 -17.5
      vertex 2.38197 96.4021 -9
      vertex 1.38197 95.6756 -9
    endloop
  endfacet
  facet normal 0.587788 -0.809015 0
    outer loop
      vertex 2.38197 96.4021 -9
      vertex 1.38197 95.6756 -17.5
      vertex 2.38197 96.4021 -17.5
    endloop
  endfacet
  facet normal -0.587788 -0.809015 0
    outer loop
      vertex 3.61803 96.4021 -17.5
      vertex 4.61803 95.6756 -9
      vertex 3.61803 96.4021 -9
    endloop
  endfacet
  facet normal -0.587788 -0.809015 -0
    outer loop
      vertex 4.61803 95.6756 -9
      vertex 3.61803 96.4021 -17.5
      vertex 4.61803 95.6756 -17.5
    endloop
  endfacet
  facet normal 0.951056 -0.309017 0
    outer loop
      vertex 1 94.5 -9
      vertex 1.38197 95.6756 -17.5
      vertex 1.38197 95.6756 -9
    endloop
  endfacet
  facet normal 0.951056 -0.309017 0
    outer loop
      vertex 1.38197 95.6756 -17.5
      vertex 1 94.5 -9
      vertex 1 94.5 -17.5
    endloop
  endfacet
  facet normal -0.951056 0.309018 0
    outer loop
      vertex 4.61803 93.3244 -17.5
      vertex 5 94.5 -9
      vertex 5 94.5 -17.5
    endloop
  endfacet
  facet normal -0.951056 0.309018 0
    outer loop
      vertex 5 94.5 -9
      vertex 4.61803 93.3244 -17.5
      vertex 4.61803 93.3244 -9
    endloop
  endfacet
  facet normal 0 -1 0
    outer loop
      vertex 2.38197 96.4021 -17.5
      vertex 3.61803 96.4021 -9
      vertex 2.38197 96.4021 -9
    endloop
  endfacet
  facet normal 0 -1 -0
    outer loop
      vertex 3.61803 96.4021 -9
      vertex 2.38197 96.4021 -17.5
      vertex 3.61803 96.4021 -17.5
    endloop
  endfacet
  facet normal 0.951056 0.309017 0
    outer loop
      vertex 1.38197 93.3244 -9
      vertex 1 94.5 -17.5
      vertex 1 94.5 -9
    endloop
  endfacet
  facet normal 0.951056 0.309017 0
    outer loop
      vertex 1 94.5 -17.5
      vertex 1.38197 93.3244 -9
      vertex 1.38197 93.3244 -17.5
    endloop
  endfacet
  facet normal 0 1 -0
    outer loop
      vertex 3.61803 92.5979 -17.5
      vertex 2.38197 92.5979 -9
      vertex 3.61803 92.5979 -9
    endloop
  endfacet
  facet normal 0 1 0
    outer loop
      vertex 2.38197 92.5979 -9
      vertex 3.61803 92.5979 -17.5
      vertex 2.38197 92.5979 -17.5
    endloop
  endfacet
  facet normal 0.587788 0.809015 -0
    outer loop
      vertex 2.38197 92.5979 -17.5
      vertex 1.38197 93.3244 -9
      vertex 2.38197 92.5979 -9
    endloop
  endfacet
  facet normal 0.587788 0.809015 0
    outer loop
      vertex 1.38197 93.3244 -9
      vertex 2.38197 92.5979 -17.5
      vertex 1.38197 93.3244 -17.5
    endloop
  endfacet
  facet normal -0.951058 -0.309012 0
    outer loop
      vertex 138.4 94.5 -17.5
      vertex 138.018 95.6756 -9
      vertex 138.018 95.6756 -17.5
    endloop
  endfacet
  facet normal -0.951058 -0.309012 0
    outer loop
      vertex 138.018 95.6756 -9
      vertex 138.4 94.5 -17.5
      vertex 138.4 94.5 -9
    endloop
  endfacet
  facet normal -0.587788 0.809015 0
    outer loop
      vertex 138.018 93.3244 -17.5
      vertex 137.018 92.5979 -9
      vertex 138.018 93.3244 -9
    endloop
  endfacet
  facet normal -0.587788 0.809015 0
    outer loop
      vertex 137.018 92.5979 -9
      vertex 138.018 93.3244 -17.5
      vertex 137.018 92.5979 -17.5
    endloop
  endfacet
  facet normal 0.587788 -0.809015 0
    outer loop
      vertex 134.782 95.6756 -17.5
      vertex 135.782 96.4021 -9
      vertex 134.782 95.6756 -9
    endloop
  endfacet
  facet normal 0.587788 -0.809015 0
    outer loop
      vertex 135.782 96.4021 -9
      vertex 134.782 95.6756 -17.5
      vertex 135.782 96.4021 -17.5
    endloop
  endfacet
  facet normal -0.587788 -0.809015 0
    outer loop
      vertex 137.018 96.4021 -17.5
      vertex 138.018 95.6756 -9
      vertex 137.018 96.4021 -9
    endloop
  endfacet
  facet normal -0.587788 -0.809015 -0
    outer loop
      vertex 138.018 95.6756 -9
      vertex 137.018 96.4021 -17.5
      vertex 138.018 95.6756 -17.5
    endloop
  endfacet
  facet normal 0.951055 -0.309023 0
    outer loop
      vertex 134.4 94.5 -9
      vertex 134.782 95.6756 -17.5
      vertex 134.782 95.6756 -9
    endloop
  endfacet
  facet normal 0.951055 -0.309023 0
    outer loop
      vertex 134.782 95.6756 -17.5
      vertex 134.4 94.5 -9
      vertex 134.4 94.5 -17.5
    endloop
  endfacet
  facet normal 0 -1 0
    outer loop
      vertex 135.782 96.4021 -17.5
      vertex 137.018 96.4021 -9
      vertex 135.782 96.4021 -9
    endloop
  endfacet
  facet normal 0 -1 -0
    outer loop
      vertex 137.018 96.4021 -9
      vertex 135.782 96.4021 -17.5
      vertex 137.018 96.4021 -17.5
    endloop
  endfacet
  facet normal 0.951055 0.309023 0
    outer loop
      vertex 134.782 93.3244 -9
      vertex 134.4 94.5 -17.5
      vertex 134.4 94.5 -9
    endloop
  endfacet
  facet normal 0.951055 0.309023 0
    outer loop
      vertex 134.4 94.5 -17.5
      vertex 134.782 93.3244 -9
      vertex 134.782 93.3244 -17.5
    endloop
  endfacet
  facet normal 0.587788 0.809015 -0
    outer loop
      vertex 135.782 92.5979 -17.5
      vertex 134.782 93.3244 -9
      vertex 135.782 92.5979 -9
    endloop
  endfacet
  facet normal 0.587788 0.809015 0
    outer loop
      vertex 134.782 93.3244 -9
      vertex 135.782 92.5979 -17.5
      vertex 134.782 93.3244 -17.5
    endloop
  endfacet
  facet normal -0.951058 0.309012 0
    outer loop
      vertex 138.018 93.3244 -17.5
      vertex 138.4 94.5 -9
      vertex 138.4 94.5 -17.5
    endloop
  endfacet
  facet normal -0.951058 0.309012 0
    outer loop
      vertex 138.4 94.5 -9
      vertex 138.018 93.3244 -17.5
      vertex 138.018 93.3244 -9
    endloop
  endfacet
  facet normal 0 1 -0
    outer loop
      vertex 137.018 92.5979 -17.5
      vertex 135.782 92.5979 -9
      vertex 137.018 92.5979 -9
    endloop
  endfacet
  facet normal 0 1 0
    outer loop
      vertex 135.782 92.5979 -9
      vertex 137.018 92.5979 -17.5
      vertex 135.782 92.5979 -17.5
    endloop
  endfacet
  facet normal -0.951058 -0.309011 0
    outer loop
      vertex 138.4 3 -17.5
      vertex 138.018 4.17557 -9
      vertex 138.018 4.17557 -17.5
    endloop
  endfacet
  facet normal -0.951058 -0.309011 0
    outer loop
      vertex 138.018 4.17557 -9
      vertex 138.4 3 -17.5
      vertex 138.4 3 -9
    endloop
  endfacet
  facet normal -0.587785 0.809017 0
    outer loop
      vertex 138.018 1.82443 -17.5
      vertex 137.018 1.09789 -9
      vertex 138.018 1.82443 -9
    endloop
  endfacet
  facet normal -0.587785 0.809017 0
    outer loop
      vertex 137.018 1.09789 -9
      vertex 138.018 1.82443 -17.5
      vertex 137.018 1.09789 -17.5
    endloop
  endfacet
  facet normal 0.587785 -0.809017 0
    outer loop
      vertex 134.782 4.17557 -17.5
      vertex 135.782 4.90211 -9
      vertex 134.782 4.17557 -9
    endloop
  endfacet
  facet normal 0.587785 -0.809017 0
    outer loop
      vertex 135.782 4.90211 -9
      vertex 134.782 4.17557 -17.5
      vertex 135.782 4.90211 -17.5
    endloop
  endfacet
  facet normal -0.587785 -0.809017 0
    outer loop
      vertex 137.018 4.90211 -17.5
      vertex 138.018 4.17557 -9
      vertex 137.018 4.90211 -9
    endloop
  endfacet
  facet normal -0.587785 -0.809017 -0
    outer loop
      vertex 138.018 4.17557 -9
      vertex 137.018 4.90211 -17.5
      vertex 138.018 4.17557 -17.5
    endloop
  endfacet
  facet normal 0.951055 -0.309022 0
    outer loop
      vertex 134.4 3 -9
      vertex 134.782 4.17557 -17.5
      vertex 134.782 4.17557 -9
    endloop
  endfacet
  facet normal 0.951055 -0.309022 0
    outer loop
      vertex 134.782 4.17557 -17.5
      vertex 134.4 3 -9
      vertex 134.4 3 -17.5
    endloop
  endfacet
  facet normal -0.951058 0.309011 0
    outer loop
      vertex 138.018 1.82443 -17.5
      vertex 138.4 3 -9
      vertex 138.4 3 -17.5
    endloop
  endfacet
  facet normal -0.951058 0.309011 0
    outer loop
      vertex 138.4 3 -9
      vertex 138.018 1.82443 -17.5
      vertex 138.018 1.82443 -9
    endloop
  endfacet
  facet normal 0 -1 0
    outer loop
      vertex 135.782 4.90211 -17.5
      vertex 137.018 4.90211 -9
      vertex 135.782 4.90211 -9
    endloop
  endfacet
  facet normal 0 -1 -0
    outer loop
      vertex 137.018 4.90211 -9
      vertex 135.782 4.90211 -17.5
      vertex 137.018 4.90211 -17.5
    endloop
  endfacet
  facet normal 0.951055 0.309022 0
    outer loop
      vertex 134.782 1.82443 -9
      vertex 134.4 3 -17.5
      vertex 134.4 3 -9
    endloop
  endfacet
  facet normal 0.951055 0.309022 0
    outer loop
      vertex 134.4 3 -17.5
      vertex 134.782 1.82443 -9
      vertex 134.782 1.82443 -17.5
    endloop
  endfacet
  facet normal 0 1 -0
    outer loop
      vertex 137.018 1.09789 -17.5
      vertex 135.782 1.09789 -9
      vertex 137.018 1.09789 -9
    endloop
  endfacet
  facet normal 0 1 0
    outer loop
      vertex 135.782 1.09789 -9
      vertex 137.018 1.09789 -17.5
      vertex 135.782 1.09789 -17.5
    endloop
  endfacet
  facet normal 0.587785 0.809017 -0
    outer loop
      vertex 135.782 1.09789 -17.5
      vertex 134.782 1.82443 -9
      vertex 135.782 1.09789 -9
    endloop
  endfacet
  facet normal 0.587785 0.809017 0
    outer loop
      vertex 134.782 1.82443 -9
      vertex 135.782 1.09789 -17.5
      vertex 134.782 1.82443 -17.5
    endloop
  endfacet
  facet normal 1 -0 0
    outer loop
      vertex 2.25 6 -9
      vertex 2.25 91.5 -15.5
      vertex 2.25 91.5 -9
    endloop
  endfacet
  facet normal 1 0 0
    outer loop
      vertex 2.25 91.5 -15.5
      vertex 2.25 6 -9
      vertex 2.25 6 -15.5
    endloop
  endfacet
  facet normal -1 0 0
    outer loop
      vertex 137.15 6 -15.5
      vertex 137.15 91.5 -9
      vertex 137.15 91.5 -15.5
    endloop
  endfacet
  facet normal -1 -0 0
    outer loop
      vertex 137.15 91.5 -9
      vertex 137.15 6 -15.5
      vertex 137.15 6 -9
    endloop
  endfacet
  facet normal 0 -1 0
    outer loop
      vertex 133.9 91.5 -15.5
      vertex 137.15 91.5 -9
      vertex 133.9 91.5 -9
    endloop
  endfacet
  facet normal 0 -1 -0
    outer loop
      vertex 137.15 91.5 -9
      vertex 133.9 91.5 -15.5
      vertex 137.15 91.5 -15.5
    endloop
  endfacet
  facet normal 0 -1 0
    outer loop
      vertex 2.25 91.5 -15.5
      vertex 6.5 91.5 -9
      vertex 2.25 91.5 -9
    endloop
  endfacet
  facet normal 0 -1 -0
    outer loop
      vertex 6.5 91.5 -9
      vertex 2.25 91.5 -15.5
      vertex 6.5 91.5 -15.5
    endloop
  endfacet
  facet normal 0 0 1
    outer loop
      vertex 87 95.5 -15.5
      vertex 53 95.5 -15.5
      vertex 87 95.25 -15.5
    endloop
  endfacet
  facet normal -0 0 1
    outer loop
      vertex 87 95.25 -15.5
      vertex 133.9 91.5 -15.5
      vertex 133.9 95.25 -15.5
    endloop
  endfacet
  facet normal 0 0 1
    outer loop
      vertex 133.9 91.5 -15.5
      vertex 87 95.25 -15.5
      vertex 133.9 6 -15.5
    endloop
  endfacet
  facet normal 0 0 1
    outer loop
      vertex 6.5 6 -15.5
      vertex 133.9 6 -15.5
      vertex 87 95.25 -15.5
    endloop
  endfacet
  facet normal 0 0 1
    outer loop
      vertex 53 95.25 -15.5
      vertex 87 95.25 -15.5
      vertex 53 95.5 -15.5
    endloop
  endfacet
  facet normal 0 0 1
    outer loop
      vertex 6.5 6 -15.5
      vertex 87 95.25 -15.5
      vertex 53 95.25 -15.5
    endloop
  endfacet
  facet normal 0 0 1
    outer loop
      vertex 6.5 91.5 -15.5
      vertex 53 95.25 -15.5
      vertex 6.5 95.25 -15.5
    endloop
  endfacet
  facet normal 0 0 1
    outer loop
      vertex 6.5 6 -15.5
      vertex 53 95.25 -15.5
      vertex 6.5 91.5 -15.5
    endloop
  endfacet
  facet normal 0 0 1
    outer loop
      vertex 133.9 6 -15.5
      vertex 6.5 6 -15.5
      vertex 133.9 2.25 -15.5
    endloop
  endfacet
  facet normal 0 0 1
    outer loop
      vertex 133.9 2.25 -15.5
      vertex 6.5 6 -15.5
      vertex 6.5 2.25 -15.5
    endloop
  endfacet
  facet normal -0 0 1
    outer loop
      vertex 133.9 91.5 -15.5
      vertex 137.15 6 -15.5
      vertex 137.15 91.5 -15.5
    endloop
  endfacet
  facet normal 0 0 1
    outer loop
      vertex 137.15 6 -15.5
      vertex 133.9 91.5 -15.5
      vertex 133.9 6 -15.5
    endloop
  endfacet
  facet normal -0 0 1
    outer loop
      vertex 2.25 91.5 -15.5
      vertex 6.5 6 -15.5
      vertex 6.5 91.5 -15.5
    endloop
  endfacet
  facet normal 0 0 1
    outer loop
      vertex 6.5 6 -15.5
      vertex 2.25 91.5 -15.5
      vertex 2.25 6 -15.5
    endloop
  endfacet
  facet normal 0 1 -0
    outer loop
      vertex 6.5 6 -15.5
      vertex 2.25 6 -9
      vertex 6.5 6 -9
    endloop
  endfacet
  facet normal 0 1 0
    outer loop
      vertex 2.25 6 -9
      vertex 6.5 6 -15.5
      vertex 2.25 6 -15.5
    endloop
  endfacet
  facet normal 0 1 -0
    outer loop
      vertex 137.15 6 -15.5
      vertex 133.9 6 -9
      vertex 137.15 6 -9
    endloop
  endfacet
  facet normal 0 1 0
    outer loop
      vertex 133.9 6 -9
      vertex 137.15 6 -15.5
      vertex 133.9 6 -15.5
    endloop
  endfacet
  facet normal 1 -0 0
    outer loop
      vertex 6.5 2.25 -9
      vertex 6.5 6 -15.5
      vertex 6.5 6 -9
    endloop
  endfacet
  facet normal 1 0 0
    outer loop
      vertex 6.5 6 -15.5
      vertex 6.5 2.25 -9
      vertex 6.5 2.25 -15.5
    endloop
  endfacet
  facet normal 1 -0 0
    outer loop
      vertex 6.5 91.5 -9
      vertex 6.5 95.25 -15.5
      vertex 6.5 95.25 -9
    endloop
  endfacet
  facet normal 1 0 0
    outer loop
      vertex 6.5 95.25 -15.5
      vertex 6.5 91.5 -9
      vertex 6.5 91.5 -15.5
    endloop
  endfacet
  facet normal -1 0 0
    outer loop
      vertex 133.9 2.25 -15.5
      vertex 133.9 6 -9
      vertex 133.9 6 -15.5
    endloop
  endfacet
  facet normal -1 -0 0
    outer loop
      vertex 133.9 6 -9
      vertex 133.9 2.25 -15.5
      vertex 133.9 2.25 -9
    endloop
  endfacet
  facet normal -1 0 0
    outer loop
      vertex 133.9 91.5 -15.5
      vertex 133.9 95.25 -9
      vertex 133.9 95.25 -15.5
    endloop
  endfacet
  facet normal -1 -0 0
    outer loop
      vertex 133.9 95.25 -9
      vertex 133.9 91.5 -15.5
      vertex 133.9 91.5 -9
    endloop
  endfacet
  facet normal 0 1 -0
    outer loop
      vertex 133.9 2.25 -15.5
      vertex 6.5 2.25 -9
      vertex 133.9 2.25 -9
    endloop
  endfacet
  facet normal 0 1 0
    outer loop
      vertex 6.5 2.25 -9
      vertex 133.9 2.25 -15.5
      vertex 6.5 2.25 -15.5
    endloop
  endfacet
  facet normal 0 -1 0
    outer loop
      vertex 87 95.25 -15.5
      vertex 133.9 95.25 -9
      vertex 87 95.25 -9
    endloop
  endfacet
  facet normal 0 -1 -0
    outer loop
      vertex 133.9 95.25 -9
      vertex 87 95.25 -15.5
      vertex 133.9 95.25 -15.5
    endloop
  endfacet
  facet normal 0 -1 0
    outer loop
      vertex 6.5 95.25 -15.5
      vertex 53 95.25 -9
      vertex 6.5 95.25 -9
    endloop
  endfacet
  facet normal 0 -1 -0
    outer loop
      vertex 53 95.25 -9
      vertex 6.5 95.25 -15.5
      vertex 53 95.25 -15.5
    endloop
  endfacet
  facet normal 1 0 0
    outer loop
      vertex 53 97.5 -9
      vertex 53 95.5 -15.5
      vertex 53 97.5 -16.5
    endloop
  endfacet
  facet normal 1 -0 0
    outer loop
      vertex 53 95.25 -9
      vertex 53 95.5 -15.5
      vertex 53 97.5 -9
    endloop
  endfacet
  facet normal 1 0 0
    outer loop
      vertex 53 95.5 -15.5
      vertex 53 95.25 -9
      vertex 53 95.25 -15.5
    endloop
  endfacet
  facet normal 1 0 0
    outer loop
      vertex 53 97.5 -16.5
      vertex 53 95.5 -15.5
      vertex 53 95.5 -16.5
    endloop
  endfacet
  facet normal -1 0 0
    outer loop
      vertex 87 95.5 -15.5
      vertex 87 97.5 -16.5
      vertex 87 95.5 -16.5
    endloop
  endfacet
  facet normal -1 0 0
    outer loop
      vertex 87 97.5 -16.5
      vertex 87 95.5 -15.5
      vertex 87 97.5 -9
    endloop
  endfacet
  facet normal -1 0 0
    outer loop
      vertex 87 95.25 -9
      vertex 87 95.5 -15.5
      vertex 87 95.25 -15.5
    endloop
  endfacet
  facet normal -1 0 0
    outer loop
      vertex 87 95.5 -15.5
      vertex 87 95.25 -9
      vertex 87 97.5 -9
    endloop
  endfacet
  facet normal -0 0 1
    outer loop
      vertex 53 97.5 -16.5
      vertex 87 95.5 -16.5
      vertex 87 97.5 -16.5
    endloop
  endfacet
  facet normal 0 0 1
    outer loop
      vertex 87 95.5 -16.5
      vertex 53 97.5 -16.5
      vertex 53 95.5 -16.5
    endloop
  endfacet
  facet normal 0 1 -0
    outer loop
      vertex 87 95.5 -16.5
      vertex 53 95.5 -15.5
      vertex 87 95.5 -15.5
    endloop
  endfacet
  facet normal 0 1 0
    outer loop
      vertex 53 95.5 -15.5
      vertex 87 95.5 -16.5
      vertex 53 95.5 -16.5
    endloop
  endfacet
endsolid OpenSCAD_Model
