solid OpenSCAD_Model
  facet normal -1 0 0
    outer loop
      vertex 0 50 0
      vertex 0 2 2
      vertex 0 50 2
    endloop
  endfacet
  facet normal -1 0 0
    outer loop
      vertex 0 2 2
      vertex 0 1.3 4.5
      vertex 0 2 4.5
    endloop
  endfacet
  facet normal -1 0 0
    outer loop
      vertex 0 0 0
      vertex 0 2 2
      vertex 0 50 0
    endloop
  endfacet
  facet normal -1 0 0
    outer loop
      vertex 0 0 0
      vertex 0 1.3 4.5
      vertex 0 2 2
    endloop
  endfacet
  facet normal -1 0 0
    outer loop
      vertex 0 0 7.5
      vertex 0 1.3 4.5
      vertex 0 0 0
    endloop
  endfacet
  facet normal -1 0 0
    outer loop
      vertex 0 1.3 4.5
      vertex 0 0 7.5
      vertex 0 1.3 7.5
    endloop
  endfacet
  facet normal 0 0 1
    outer loop
      vertex 27 50 4.5
      vertex 26 49.3 4.5
      vertex 27 2 4.5
    endloop
  endfacet
  facet normal 0 0 1
    outer loop
      vertex 27 50 4.5
      vertex 8 49.3 4.5
      vertex 26 49.3 4.5
    endloop
  endfacet
  facet normal -0 0 1
    outer loop
      vertex 7 50 4.5
      vertex 8 49.3 4.5
      vertex 27 50 4.5
    endloop
  endfacet
  facet normal 0 0 1
    outer loop
      vertex 7 2 4.5
      vertex 8 49.3 4.5
      vertex 7 50 4.5
    endloop
  endfacet
  facet normal 0 0 1
    outer loop
      vertex 8 49.3 4.5
      vertex 7 2 4.5
      vertex 8 1.3 4.5
    endloop
  endfacet
  facet normal 0 0 1
    outer loop
      vertex 0 1.3 4.5
      vertex 7 2 4.5
      vertex 0 2 4.5
    endloop
  endfacet
  facet normal 0 0 1
    outer loop
      vertex 7 2 4.5
      vertex 0 1.3 4.5
      vertex 8 1.3 4.5
    endloop
  endfacet
  facet normal -0 0 1
    outer loop
      vertex 27 2 4.5
      vertex 34 1.3 4.5
      vertex 34 2 4.5
    endloop
  endfacet
  facet normal 0 0 1
    outer loop
      vertex 27 2 4.5
      vertex 26 1.3 4.5
      vertex 34 1.3 4.5
    endloop
  endfacet
  facet normal 0 0 1
    outer loop
      vertex 26 1.3 4.5
      vertex 27 2 4.5
      vertex 26 49.3 4.5
    endloop
  endfacet
  facet normal -0 0 1
    outer loop
      vertex 13 1.3 4.5
      vertex 21 0 4.5
      vertex 21 1.3 4.5
    endloop
  endfacet
  facet normal 0 0 1
    outer loop
      vertex 21 0 4.5
      vertex 13 1.3 4.5
      vertex 13 0 4.5
    endloop
  endfacet
  facet normal 1 0 0
    outer loop
      vertex 34 1.3 7.5
      vertex 34 0 7.5
      vertex 34 1.3 4.5
    endloop
  endfacet
  facet normal 1 0 0
    outer loop
      vertex 34 2 4.5
      vertex 34 1.3 4.5
      vertex 34 2 2
    endloop
  endfacet
  facet normal 1 -0 0
    outer loop
      vertex 34 2 2
      vertex 34 50 0
      vertex 34 50 2
    endloop
  endfacet
  facet normal 1 0 0
    outer loop
      vertex 34 0 0
      vertex 34 1.3 4.5
      vertex 34 0 7.5
    endloop
  endfacet
  facet normal 1 0 0
    outer loop
      vertex 34 2 2
      vertex 34 0 0
      vertex 34 50 0
    endloop
  endfacet
  facet normal 1 0 0
    outer loop
      vertex 34 1.3 4.5
      vertex 34 0 0
      vertex 34 2 2
    endloop
  endfacet
  facet normal 0 1 -0
    outer loop
      vertex 34 50 0
      vertex 27 50 2
      vertex 34 50 2
    endloop
  endfacet
  facet normal 0 1 0
    outer loop
      vertex 27 50 2
      vertex 34 50 0
      vertex 7 50 2
    endloop
  endfacet
  facet normal 0 1 0
    outer loop
      vertex 0 50 0
      vertex 7 50 2
      vertex 34 50 0
    endloop
  endfacet
  facet normal 0 1 0
    outer loop
      vertex 7 50 2
      vertex 0 50 0
      vertex 0 50 2
    endloop
  endfacet
  facet normal 0 1 -0
    outer loop
      vertex 27 50 2
      vertex 7 50 4.5
      vertex 27 50 4.5
    endloop
  endfacet
  facet normal 0 1 0
    outer loop
      vertex 7 50 4.5
      vertex 27 50 2
      vertex 7 50 2
    endloop
  endfacet
  facet normal 0 0 -1
    outer loop
      vertex 4.71352 15.8817 0
      vertex 5 35 0
      vertex 5 15 0
    endloop
  endfacet
  facet normal 0 0 -1
    outer loop
      vertex 4.71352 15.8817 0
      vertex 4.71352 34.1183 0
      vertex 5 35 0
    endloop
  endfacet
  facet normal 0 0 -1
    outer loop
      vertex 3.96352 16.4266 0
      vertex 4.71352 34.1183 0
      vertex 4.71352 15.8817 0
    endloop
  endfacet
  facet normal 0 0 -1
    outer loop
      vertex 3.96352 16.4266 0
      vertex 3.96352 33.5734 0
      vertex 4.71352 34.1183 0
    endloop
  endfacet
  facet normal 0 0 -1
    outer loop
      vertex 3.03647 16.4266 0
      vertex 3.96352 33.5734 0
      vertex 3.96352 16.4266 0
    endloop
  endfacet
  facet normal 0 0 -1
    outer loop
      vertex 3.03647 16.4266 0
      vertex 3.03647 33.5734 0
      vertex 3.96352 33.5734 0
    endloop
  endfacet
  facet normal 0 0 -1
    outer loop
      vertex 2.28647 15.8817 0
      vertex 3.03647 33.5734 0
      vertex 3.03647 16.4266 0
    endloop
  endfacet
  facet normal 0 0 -1
    outer loop
      vertex 2.28647 15.8817 0
      vertex 2.28647 34.1183 0
      vertex 3.03647 33.5734 0
    endloop
  endfacet
  facet normal 0 0 -1
    outer loop
      vertex 2 15 0
      vertex 2.28647 34.1183 0
      vertex 2.28647 15.8817 0
    endloop
  endfacet
  facet normal -0 0 -1
    outer loop
      vertex 2.28647 34.1183 0
      vertex 2 15 0
      vertex 2 35 0
    endloop
  endfacet
  facet normal 0 0 -1
    outer loop
      vertex 11 46.3 0
      vertex 8 46.3 0
      vertex 11 49.3 0
    endloop
  endfacet
  facet normal 0 0 -1
    outer loop
      vertex 31.7135 15.8817 0
      vertex 32 35 0
      vertex 32 15 0
    endloop
  endfacet
  facet normal 0 0 -1
    outer loop
      vertex 31.7135 15.8817 0
      vertex 31.7135 34.1183 0
      vertex 32 35 0
    endloop
  endfacet
  facet normal 0 0 -1
    outer loop
      vertex 30.9635 16.4266 0
      vertex 31.7135 34.1183 0
      vertex 31.7135 15.8817 0
    endloop
  endfacet
  facet normal 0 0 -1
    outer loop
      vertex 30.9635 16.4266 0
      vertex 30.9635 33.5734 0
      vertex 31.7135 34.1183 0
    endloop
  endfacet
  facet normal 0 0 -1
    outer loop
      vertex 30.0365 16.4266 0
      vertex 30.9635 33.5734 0
      vertex 30.9635 16.4266 0
    endloop
  endfacet
  facet normal 0 0 -1
    outer loop
      vertex 30.0365 16.4266 0
      vertex 30.0365 33.5734 0
      vertex 30.9635 33.5734 0
    endloop
  endfacet
  facet normal 0 0 -1
    outer loop
      vertex 29.2865 15.8817 0
      vertex 30.0365 33.5734 0
      vertex 30.0365 16.4266 0
    endloop
  endfacet
  facet normal 0 0 -1
    outer loop
      vertex 29.2865 15.8817 0
      vertex 29.2865 34.1183 0
      vertex 30.0365 33.5734 0
    endloop
  endfacet
  facet normal 0 0 -1
    outer loop
      vertex 29 15 0
      vertex 29.2865 34.1183 0
      vertex 29.2865 15.8817 0
    endloop
  endfacet
  facet normal -0 0 -1
    outer loop
      vertex 29.2865 34.1183 0
      vertex 29 15 0
      vertex 29 35 0
    endloop
  endfacet
  facet normal 0 0 -1
    outer loop
      vertex 34 0 0
      vertex 32 15 0
      vertex 34 50 0
    endloop
  endfacet
  facet normal 0 0 -1
    outer loop
      vertex 34 0 0
      vertex 31.7135 14.1183 0
      vertex 32 15 0
    endloop
  endfacet
  facet normal 0 0 -1
    outer loop
      vertex 34 0 0
      vertex 30.9635 13.5734 0
      vertex 31.7135 14.1183 0
    endloop
  endfacet
  facet normal 0 0 -1
    outer loop
      vertex 26 4.3 0
      vertex 30.9635 13.5734 0
      vertex 34 0 0
    endloop
  endfacet
  facet normal -0 0 -1
    outer loop
      vertex 30.9635 13.5734 0
      vertex 26 4.3 0
      vertex 30.0365 13.5734 0
    endloop
  endfacet
  facet normal -0 0 -1
    outer loop
      vertex 29 15 0
      vertex 26 4.3 0
      vertex 29 35 0
    endloop
  endfacet
  facet normal -0 0 -1
    outer loop
      vertex 29.2865 14.1183 0
      vertex 26 4.3 0
      vertex 29 15 0
    endloop
  endfacet
  facet normal -0 0 -1
    outer loop
      vertex 30.0365 13.5734 0
      vertex 26 4.3 0
      vertex 29.2865 14.1183 0
    endloop
  endfacet
  facet normal 0 0 -1
    outer loop
      vertex 34 0 0
      vertex 23 1.3 0
      vertex 26 4.3 0
    endloop
  endfacet
  facet normal 0 0 -1
    outer loop
      vertex 34 0 0
      vertex 21 1.3 0
      vertex 23 1.3 0
    endloop
  endfacet
  facet normal 0 0 -1
    outer loop
      vertex 34 0 0
      vertex 13 1.3 0
      vertex 21 1.3 0
    endloop
  endfacet
  facet normal 0 0 -1
    outer loop
      vertex 0 0 0
      vertex 13 1.3 0
      vertex 34 0 0
    endloop
  endfacet
  facet normal 0 0 -1
    outer loop
      vertex 11 1.3 0
      vertex 8 4.3 0
      vertex 11 4.3 0
    endloop
  endfacet
  facet normal 0 0 -1
    outer loop
      vertex 5 35 0
      vertex 8 4.3 0
      vertex 5 15 0
    endloop
  endfacet
  facet normal 0 0 -1
    outer loop
      vertex 8 4.3 0
      vertex 4.71352 14.1183 0
      vertex 5 15 0
    endloop
  endfacet
  facet normal 0 0 -1
    outer loop
      vertex 8 4.3 0
      vertex 3.96352 13.5734 0
      vertex 4.71352 14.1183 0
    endloop
  endfacet
  facet normal 0 0 -1
    outer loop
      vertex 8 4.3 0
      vertex 3.03647 13.5734 0
      vertex 3.96352 13.5734 0
    endloop
  endfacet
  facet normal 0 0 -1
    outer loop
      vertex 0 0 0
      vertex 3.03647 13.5734 0
      vertex 8 4.3 0
    endloop
  endfacet
  facet normal -0 0 -1
    outer loop
      vertex 2 15 0
      vertex 0 0 0
      vertex 2 35 0
    endloop
  endfacet
  facet normal -0 0 -1
    outer loop
      vertex 2.28647 14.1183 0
      vertex 0 0 0
      vertex 2 15 0
    endloop
  endfacet
  facet normal -0 0 -1
    outer loop
      vertex 3.03647 13.5734 0
      vertex 0 0 0
      vertex 2.28647 14.1183 0
    endloop
  endfacet
  facet normal -0 0 -1
    outer loop
      vertex 11 1.3 0
      vertex 0 0 0
      vertex 8 4.3 0
    endloop
  endfacet
  facet normal -0 0 -1
    outer loop
      vertex 13 1.3 0
      vertex 0 0 0
      vertex 11 1.3 0
    endloop
  endfacet
  facet normal 0 0 -1
    outer loop
      vertex 32 35 0
      vertex 34 50 0
      vertex 32 15 0
    endloop
  endfacet
  facet normal 0 0 -1
    outer loop
      vertex 31.7135 35.8817 0
      vertex 34 50 0
      vertex 32 35 0
    endloop
  endfacet
  facet normal 0 0 -1
    outer loop
      vertex 30.9635 36.4266 0
      vertex 34 50 0
      vertex 31.7135 35.8817 0
    endloop
  endfacet
  facet normal 0 0 -1
    outer loop
      vertex 26 46.3 0
      vertex 30.9635 36.4266 0
      vertex 30.0365 36.4266 0
    endloop
  endfacet
  facet normal 0 0 -1
    outer loop
      vertex 26 46.3 0
      vertex 30.0365 36.4266 0
      vertex 29.2865 35.8817 0
    endloop
  endfacet
  facet normal 0 0 -1
    outer loop
      vertex 26 46.3 0
      vertex 29 35 0
      vertex 26 4.3 0
    endloop
  endfacet
  facet normal 0 0 -1
    outer loop
      vertex 26 46.3 0
      vertex 29.2865 35.8817 0
      vertex 29 35 0
    endloop
  endfacet
  facet normal 0 0 -1
    outer loop
      vertex 30.9635 36.4266 0
      vertex 26 46.3 0
      vertex 34 50 0
    endloop
  endfacet
  facet normal 0 0 -1
    outer loop
      vertex 23 49.3 0
      vertex 26 46.3 0
      vertex 23 46.3 0
    endloop
  endfacet
  facet normal 0 0 -1
    outer loop
      vertex 26 46.3 0
      vertex 23 49.3 0
      vertex 34 50 0
    endloop
  endfacet
  facet normal 0 0 -1
    outer loop
      vertex 11 49.3 0
      vertex 34 50 0
      vertex 23 49.3 0
    endloop
  endfacet
  facet normal 0 0 -1
    outer loop
      vertex 8 4.3 0
      vertex 5 35 0
      vertex 8 46.3 0
    endloop
  endfacet
  facet normal 0 0 -1
    outer loop
      vertex 4.71352 35.8817 0
      vertex 8 46.3 0
      vertex 5 35 0
    endloop
  endfacet
  facet normal 0 0 -1
    outer loop
      vertex 3.96352 36.4266 0
      vertex 8 46.3 0
      vertex 4.71352 35.8817 0
    endloop
  endfacet
  facet normal 0 0 -1
    outer loop
      vertex 3.03647 36.4266 0
      vertex 8 46.3 0
      vertex 3.96352 36.4266 0
    endloop
  endfacet
  facet normal 0 0 -1
    outer loop
      vertex 0 50 0
      vertex 3.03647 36.4266 0
      vertex 2.28647 35.8817 0
    endloop
  endfacet
  facet normal 0 0 -1
    outer loop
      vertex 11 49.3 0
      vertex 0 50 0
      vertex 34 50 0
    endloop
  endfacet
  facet normal 0 0 -1
    outer loop
      vertex 8 46.3 0
      vertex 0 50 0
      vertex 11 49.3 0
    endloop
  endfacet
  facet normal 0 0 -1
    outer loop
      vertex 3.03647 36.4266 0
      vertex 0 50 0
      vertex 8 46.3 0
    endloop
  endfacet
  facet normal 0 0 -1
    outer loop
      vertex 2 35 0
      vertex 0 50 0
      vertex 2.28647 35.8817 0
    endloop
  endfacet
  facet normal 0 0 -1
    outer loop
      vertex 0 50 0
      vertex 2 35 0
      vertex 0 0 0
    endloop
  endfacet
  facet normal -0 0 -1
    outer loop
      vertex 26 4.3 0
      vertex 23 1.3 0
      vertex 23 4.3 0
    endloop
  endfacet
  facet normal 0 -1 0
    outer loop
      vertex 0 0 7.5
      vertex 13 0 4.5
      vertex 13 0 7.5
    endloop
  endfacet
  facet normal 0 -1 -0
    outer loop
      vertex 13 0 4.5
      vertex 0 0 0
      vertex 21 0 4.5
    endloop
  endfacet
  facet normal 0 -1 0
    outer loop
      vertex 0 0 0
      vertex 13 0 4.5
      vertex 0 0 7.5
    endloop
  endfacet
  facet normal 0 -1 0
    outer loop
      vertex 21 0 4.5
      vertex 34 0 7.5
      vertex 21 0 7.5
    endloop
  endfacet
  facet normal 0 -1 0
    outer loop
      vertex 21 0 4.5
      vertex 34 0 0
      vertex 34 0 7.5
    endloop
  endfacet
  facet normal 0 -1 0
    outer loop
      vertex 34 0 0
      vertex 21 0 4.5
      vertex 0 0 0
    endloop
  endfacet
  facet normal 1 0 0
    outer loop
      vertex 8 49.3 4.5
      vertex 8 46.3 2.65
      vertex 8 49.3 2.65
    endloop
  endfacet
  facet normal 1 0 0
    outer loop
      vertex 8 46.3 2.65
      vertex 8 4.3 2.65
      vertex 8 46.3 0
    endloop
  endfacet
  facet normal 1 0 0
    outer loop
      vertex 8 49.3 4.5
      vertex 8 4.3 2.65
      vertex 8 46.3 2.65
    endloop
  endfacet
  facet normal 1 -0 0
    outer loop
      vertex 8 1.3 4.5
      vertex 8 4.3 2.65
      vertex 8 49.3 4.5
    endloop
  endfacet
  facet normal 1 0 0
    outer loop
      vertex 8 4.3 2.65
      vertex 8 1.3 4.5
      vertex 8 1.3 2.65
    endloop
  endfacet
  facet normal 1 0 0
    outer loop
      vertex 8 46.3 0
      vertex 8 4.3 2.65
      vertex 8 4.3 0
    endloop
  endfacet
  facet normal -1 0 0
    outer loop
      vertex 26 46.3 0
      vertex 26 4.3 0
      vertex 26 46.3 2.65
    endloop
  endfacet
  facet normal -1 0 0
    outer loop
      vertex 26 46.3 2.65
      vertex 26 49.3 4.5
      vertex 26 49.3 2.65
    endloop
  endfacet
  facet normal -1 0 0
    outer loop
      vertex 26 4.3 2.65
      vertex 26 46.3 2.65
      vertex 26 4.3 0
    endloop
  endfacet
  facet normal -1 0 0
    outer loop
      vertex 26 46.3 2.65
      vertex 26 4.3 2.65
      vertex 26 49.3 4.5
    endloop
  endfacet
  facet normal -1 0 0
    outer loop
      vertex 26 1.3 4.5
      vertex 26 4.3 2.65
      vertex 26 1.3 2.65
    endloop
  endfacet
  facet normal -1 0 0
    outer loop
      vertex 26 4.3 2.65
      vertex 26 1.3 4.5
      vertex 26 49.3 4.5
    endloop
  endfacet
  facet normal 0 -1 0
    outer loop
      vertex 11 49.3 0
      vertex 23 49.3 2.65
      vertex 11 49.3 2.65
    endloop
  endfacet
  facet normal 0 -1 -0
    outer loop
      vertex 23 49.3 2.65
      vertex 11 49.3 0
      vertex 23 49.3 0
    endloop
  endfacet
  facet normal 0 -1 0
    outer loop
      vertex 11 49.3 2.65
      vertex 8 49.3 4.5
      vertex 8 49.3 2.65
    endloop
  endfacet
  facet normal 0 -1 0
    outer loop
      vertex 8 49.3 4.5
      vertex 11 49.3 2.65
      vertex 26 49.3 4.5
    endloop
  endfacet
  facet normal 0 -1 0
    outer loop
      vertex 23 49.3 2.65
      vertex 26 49.3 4.5
      vertex 11 49.3 2.65
    endloop
  endfacet
  facet normal 0 -1 -0
    outer loop
      vertex 26 49.3 4.5
      vertex 23 49.3 2.65
      vertex 26 49.3 2.65
    endloop
  endfacet
  facet normal -0 0 1
    outer loop
      vertex 8 49.3 2.65
      vertex 11 46.3 2.65
      vertex 11 49.3 2.65
    endloop
  endfacet
  facet normal 0 0 1
    outer loop
      vertex 11 46.3 2.65
      vertex 8 49.3 2.65
      vertex 8 46.3 2.65
    endloop
  endfacet
  facet normal -0 0 1
    outer loop
      vertex 8 4.3 2.65
      vertex 11 1.3 2.65
      vertex 11 4.3 2.65
    endloop
  endfacet
  facet normal 0 0 1
    outer loop
      vertex 11 1.3 2.65
      vertex 8 4.3 2.65
      vertex 8 1.3 2.65
    endloop
  endfacet
  facet normal -0 0 1
    outer loop
      vertex 23 4.3 2.65
      vertex 26 1.3 2.65
      vertex 26 4.3 2.65
    endloop
  endfacet
  facet normal 0 0 1
    outer loop
      vertex 26 1.3 2.65
      vertex 23 4.3 2.65
      vertex 23 1.3 2.65
    endloop
  endfacet
  facet normal -0 0 1
    outer loop
      vertex 23 49.3 2.65
      vertex 26 46.3 2.65
      vertex 26 49.3 2.65
    endloop
  endfacet
  facet normal 0 0 1
    outer loop
      vertex 26 46.3 2.65
      vertex 23 49.3 2.65
      vertex 23 46.3 2.65
    endloop
  endfacet
  facet normal 0 1 0
    outer loop
      vertex 13 1.3 4.5
      vertex 11 1.3 2.65
      vertex 8 1.3 4.5
    endloop
  endfacet
  facet normal 0 1 -0
    outer loop
      vertex 13 1.3 0
      vertex 11 1.3 2.65
      vertex 13 1.3 4.5
    endloop
  endfacet
  facet normal 0 1 0
    outer loop
      vertex 11 1.3 2.65
      vertex 13 1.3 0
      vertex 11 1.3 0
    endloop
  endfacet
  facet normal 0 1 0
    outer loop
      vertex 8 1.3 4.5
      vertex 13 1.3 7.5
      vertex 13 1.3 4.5
    endloop
  endfacet
  facet normal 0 1 0
    outer loop
      vertex 13 1.3 7.5
      vertex 8 1.3 4.5
      vertex 0 1.3 7.5
    endloop
  endfacet
  facet normal 0 1 0
    outer loop
      vertex 0 1.3 7.5
      vertex 8 1.3 4.5
      vertex 0 1.3 4.5
    endloop
  endfacet
  facet normal 0 1 0
    outer loop
      vertex 8 1.3 4.5
      vertex 11 1.3 2.65
      vertex 8 1.3 2.65
    endloop
  endfacet
  facet normal 0 1 0
    outer loop
      vertex 26 1.3 4.5
      vertex 34 1.3 7.5
      vertex 34 1.3 4.5
    endloop
  endfacet
  facet normal 0 1 0
    outer loop
      vertex 34 1.3 7.5
      vertex 26 1.3 4.5
      vertex 21 1.3 7.5
    endloop
  endfacet
  facet normal 0 1 0
    outer loop
      vertex 26 1.3 4.5
      vertex 21 1.3 4.5
      vertex 21 1.3 7.5
    endloop
  endfacet
  facet normal 0 1 0
    outer loop
      vertex 23 1.3 2.65
      vertex 26 1.3 4.5
      vertex 26 1.3 2.65
    endloop
  endfacet
  facet normal 0 1 0
    outer loop
      vertex 26 1.3 4.5
      vertex 23 1.3 2.65
      vertex 21 1.3 4.5
    endloop
  endfacet
  facet normal 0 1 0
    outer loop
      vertex 21 1.3 0
      vertex 23 1.3 2.65
      vertex 23 1.3 0
    endloop
  endfacet
  facet normal 0 1 0
    outer loop
      vertex 23 1.3 2.65
      vertex 21 1.3 0
      vertex 21 1.3 4.5
    endloop
  endfacet
  facet normal 0 1 -0
    outer loop
      vertex 21 1.3 0
      vertex 13 1.3 4.5
      vertex 21 1.3 4.5
    endloop
  endfacet
  facet normal 0 1 0
    outer loop
      vertex 13 1.3 4.5
      vertex 21 1.3 0
      vertex 13 1.3 0
    endloop
  endfacet
  facet normal 1 -0 0
    outer loop
      vertex 11 46.3 2.65
      vertex 11 49.3 0
      vertex 11 49.3 2.65
    endloop
  endfacet
  facet normal 1 0 0
    outer loop
      vertex 11 49.3 0
      vertex 11 46.3 2.65
      vertex 11 46.3 0
    endloop
  endfacet
  facet normal 1 -0 0
    outer loop
      vertex 11 1.3 2.65
      vertex 11 4.3 0
      vertex 11 4.3 2.65
    endloop
  endfacet
  facet normal 1 0 0
    outer loop
      vertex 11 4.3 0
      vertex 11 1.3 2.65
      vertex 11 1.3 0
    endloop
  endfacet
  facet normal -1 0 0
    outer loop
      vertex 23 1.3 0
      vertex 23 4.3 2.65
      vertex 23 4.3 0
    endloop
  endfacet
  facet normal -1 -0 0
    outer loop
      vertex 23 4.3 2.65
      vertex 23 1.3 0
      vertex 23 1.3 2.65
    endloop
  endfacet
  facet normal -1 0 0
    outer loop
      vertex 23 46.3 0
      vertex 23 49.3 2.65
      vertex 23 49.3 0
    endloop
  endfacet
  facet normal -1 -0 0
    outer loop
      vertex 23 49.3 2.65
      vertex 23 46.3 0
      vertex 23 46.3 2.65
    endloop
  endfacet
  facet normal 0 1 -0
    outer loop
      vertex 11 4.3 0
      vertex 8 4.3 2.65
      vertex 11 4.3 2.65
    endloop
  endfacet
  facet normal 0 1 0
    outer loop
      vertex 8 4.3 2.65
      vertex 11 4.3 0
      vertex 8 4.3 0
    endloop
  endfacet
  facet normal 0 1 -0
    outer loop
      vertex 26 4.3 0
      vertex 23 4.3 2.65
      vertex 26 4.3 2.65
    endloop
  endfacet
  facet normal 0 1 0
    outer loop
      vertex 23 4.3 2.65
      vertex 26 4.3 0
      vertex 23 4.3 0
    endloop
  endfacet
  facet normal 0 -1 0
    outer loop
      vertex 8 46.3 0
      vertex 11 46.3 2.65
      vertex 8 46.3 2.65
    endloop
  endfacet
  facet normal 0 -1 -0
    outer loop
      vertex 11 46.3 2.65
      vertex 8 46.3 0
      vertex 11 46.3 0
    endloop
  endfacet
  facet normal 0 -1 0
    outer loop
      vertex 23 46.3 0
      vertex 26 46.3 2.65
      vertex 23 46.3 2.65
    endloop
  endfacet
  facet normal 0 -1 -0
    outer loop
      vertex 26 46.3 2.65
      vertex 23 46.3 0
      vertex 26 46.3 0
    endloop
  endfacet
  facet normal -1 0 0
    outer loop
      vertex 7 2 2
      vertex 7 50 4.5
      vertex 7 50 2
    endloop
  endfacet
  facet normal -1 -0 0
    outer loop
      vertex 7 50 4.5
      vertex 7 2 2
      vertex 7 2 4.5
    endloop
  endfacet
  facet normal -0 0 1
    outer loop
      vertex 4.71352 34.1183 2
      vertex 5 15 2
      vertex 5 35 2
    endloop
  endfacet
  facet normal 0 0 1
    outer loop
      vertex 4.71352 34.1183 2
      vertex 4.71352 15.8817 2
      vertex 5 15 2
    endloop
  endfacet
  facet normal -0 0 1
    outer loop
      vertex 3.96352 33.5734 2
      vertex 4.71352 15.8817 2
      vertex 4.71352 34.1183 2
    endloop
  endfacet
  facet normal 0 0 1
    outer loop
      vertex 3.96352 33.5734 2
      vertex 3.96352 16.4266 2
      vertex 4.71352 15.8817 2
    endloop
  endfacet
  facet normal -0 0 1
    outer loop
      vertex 3.03647 33.5734 2
      vertex 3.96352 16.4266 2
      vertex 3.96352 33.5734 2
    endloop
  endfacet
  facet normal 0 0 1
    outer loop
      vertex 3.03647 33.5734 2
      vertex 3.03647 16.4266 2
      vertex 3.96352 16.4266 2
    endloop
  endfacet
  facet normal 0 0 1
    outer loop
      vertex 2.28647 34.1183 2
      vertex 3.03647 16.4266 2
      vertex 3.03647 33.5734 2
    endloop
  endfacet
  facet normal 0 0 1
    outer loop
      vertex 2.28647 34.1183 2
      vertex 2.28647 15.8817 2
      vertex 3.03647 16.4266 2
    endloop
  endfacet
  facet normal 0 0 1
    outer loop
      vertex 2 35 2
      vertex 2.28647 15.8817 2
      vertex 2.28647 34.1183 2
    endloop
  endfacet
  facet normal 0 0 1
    outer loop
      vertex 2.28647 15.8817 2
      vertex 2 35 2
      vertex 2 15 2
    endloop
  endfacet
  facet normal 0 0 1
    outer loop
      vertex 7 50 2
      vertex 5 35 2
      vertex 7 2 2
    endloop
  endfacet
  facet normal 0 0 1
    outer loop
      vertex 7 50 2
      vertex 4.71352 35.8817 2
      vertex 5 35 2
    endloop
  endfacet
  facet normal 0 0 1
    outer loop
      vertex 7 50 2
      vertex 3.96352 36.4266 2
      vertex 4.71352 35.8817 2
    endloop
  endfacet
  facet normal 0 0 1
    outer loop
      vertex 7 50 2
      vertex 3.03647 36.4266 2
      vertex 3.96352 36.4266 2
    endloop
  endfacet
  facet normal -0 0 1
    outer loop
      vertex 0 50 2
      vertex 3.03647 36.4266 2
      vertex 7 50 2
    endloop
  endfacet
  facet normal 0 0 1
    outer loop
      vertex 0 2 2
      vertex 2 35 2
      vertex 0 50 2
    endloop
  endfacet
  facet normal 0 0 1
    outer loop
      vertex 2.28647 35.8817 2
      vertex 0 50 2
      vertex 2 35 2
    endloop
  endfacet
  facet normal 0 0 1
    outer loop
      vertex 3.03647 36.4266 2
      vertex 0 50 2
      vertex 2.28647 35.8817 2
    endloop
  endfacet
  facet normal -0 0 1
    outer loop
      vertex 5 15 2
      vertex 7 2 2
      vertex 5 35 2
    endloop
  endfacet
  facet normal -0 0 1
    outer loop
      vertex 4.71352 14.1183 2
      vertex 7 2 2
      vertex 5 15 2
    endloop
  endfacet
  facet normal -0 0 1
    outer loop
      vertex 3.96352 13.5734 2
      vertex 7 2 2
      vertex 4.71352 14.1183 2
    endloop
  endfacet
  facet normal -0 0 1
    outer loop
      vertex 3.03647 13.5734 2
      vertex 7 2 2
      vertex 3.96352 13.5734 2
    endloop
  endfacet
  facet normal 0 0 1
    outer loop
      vertex 0 2 2
      vertex 3.03647 13.5734 2
      vertex 2.28647 14.1183 2
    endloop
  endfacet
  facet normal 0 0 1
    outer loop
      vertex 3.03647 13.5734 2
      vertex 0 2 2
      vertex 7 2 2
    endloop
  endfacet
  facet normal 0 0 1
    outer loop
      vertex 2 15 2
      vertex 0 2 2
      vertex 2.28647 14.1183 2
    endloop
  endfacet
  facet normal 0 0 1
    outer loop
      vertex 2 35 2
      vertex 0 2 2
      vertex 2 15 2
    endloop
  endfacet
  facet normal 0 1 -0
    outer loop
      vertex 7 2 2
      vertex 0 2 4.5
      vertex 7 2 4.5
    endloop
  endfacet
  facet normal 0 1 0
    outer loop
      vertex 0 2 4.5
      vertex 7 2 2
      vertex 0 2 2
    endloop
  endfacet
  facet normal 1 -0 0
    outer loop
      vertex 27 2 4.5
      vertex 27 50 2
      vertex 27 50 4.5
    endloop
  endfacet
  facet normal 1 0 0
    outer loop
      vertex 27 50 2
      vertex 27 2 4.5
      vertex 27 2 2
    endloop
  endfacet
  facet normal -0 0 1
    outer loop
      vertex 31.7135 34.1183 2
      vertex 32 15 2
      vertex 32 35 2
    endloop
  endfacet
  facet normal 0 0 1
    outer loop
      vertex 31.7135 34.1183 2
      vertex 31.7135 15.8817 2
      vertex 32 15 2
    endloop
  endfacet
  facet normal -0 0 1
    outer loop
      vertex 30.9635 33.5734 2
      vertex 31.7135 15.8817 2
      vertex 31.7135 34.1183 2
    endloop
  endfacet
  facet normal 0 0 1
    outer loop
      vertex 30.9635 33.5734 2
      vertex 30.9635 16.4266 2
      vertex 31.7135 15.8817 2
    endloop
  endfacet
  facet normal -0 0 1
    outer loop
      vertex 30.0365 33.5734 2
      vertex 30.9635 16.4266 2
      vertex 30.9635 33.5734 2
    endloop
  endfacet
  facet normal 0 0 1
    outer loop
      vertex 30.0365 33.5734 2
      vertex 30.0365 16.4266 2
      vertex 30.9635 16.4266 2
    endloop
  endfacet
  facet normal 0 0 1
    outer loop
      vertex 29.2865 34.1183 2
      vertex 30.0365 16.4266 2
      vertex 30.0365 33.5734 2
    endloop
  endfacet
  facet normal 0 0 1
    outer loop
      vertex 29.2865 34.1183 2
      vertex 29.2865 15.8817 2
      vertex 30.0365 16.4266 2
    endloop
  endfacet
  facet normal 0 0 1
    outer loop
      vertex 29 35 2
      vertex 29.2865 15.8817 2
      vertex 29.2865 34.1183 2
    endloop
  endfacet
  facet normal 0 0 1
    outer loop
      vertex 29.2865 15.8817 2
      vertex 29 35 2
      vertex 29 15 2
    endloop
  endfacet
  facet normal 0 0 1
    outer loop
      vertex 34 50 2
      vertex 32 35 2
      vertex 34 2 2
    endloop
  endfacet
  facet normal 0 0 1
    outer loop
      vertex 34 50 2
      vertex 31.7135 35.8817 2
      vertex 32 35 2
    endloop
  endfacet
  facet normal 0 0 1
    outer loop
      vertex 34 50 2
      vertex 30.9635 36.4266 2
      vertex 31.7135 35.8817 2
    endloop
  endfacet
  facet normal 0 0 1
    outer loop
      vertex 34 50 2
      vertex 30.0365 36.4266 2
      vertex 30.9635 36.4266 2
    endloop
  endfacet
  facet normal -0 0 1
    outer loop
      vertex 27 50 2
      vertex 30.0365 36.4266 2
      vertex 34 50 2
    endloop
  endfacet
  facet normal 0 0 1
    outer loop
      vertex 27 2 2
      vertex 29 35 2
      vertex 27 50 2
    endloop
  endfacet
  facet normal 0 0 1
    outer loop
      vertex 29.2865 35.8817 2
      vertex 27 50 2
      vertex 29 35 2
    endloop
  endfacet
  facet normal 0 0 1
    outer loop
      vertex 30.0365 36.4266 2
      vertex 27 50 2
      vertex 29.2865 35.8817 2
    endloop
  endfacet
  facet normal -0 0 1
    outer loop
      vertex 32 15 2
      vertex 34 2 2
      vertex 32 35 2
    endloop
  endfacet
  facet normal -0 0 1
    outer loop
      vertex 31.7135 14.1183 2
      vertex 34 2 2
      vertex 32 15 2
    endloop
  endfacet
  facet normal -0 0 1
    outer loop
      vertex 30.9635 13.5734 2
      vertex 34 2 2
      vertex 31.7135 14.1183 2
    endloop
  endfacet
  facet normal -0 0 1
    outer loop
      vertex 30.0365 13.5734 2
      vertex 34 2 2
      vertex 30.9635 13.5734 2
    endloop
  endfacet
  facet normal 0 0 1
    outer loop
      vertex 27 2 2
      vertex 30.0365 13.5734 2
      vertex 29.2865 14.1183 2
    endloop
  endfacet
  facet normal 0 0 1
    outer loop
      vertex 30.0365 13.5734 2
      vertex 27 2 2
      vertex 34 2 2
    endloop
  endfacet
  facet normal 0 0 1
    outer loop
      vertex 29 15 2
      vertex 27 2 2
      vertex 29.2865 14.1183 2
    endloop
  endfacet
  facet normal 0 0 1
    outer loop
      vertex 29 35 2
      vertex 27 2 2
      vertex 29 15 2
    endloop
  endfacet
  facet normal 0 1 -0
    outer loop
      vertex 34 2 2
      vertex 27 2 4.5
      vertex 34 2 4.5
    endloop
  endfacet
  facet normal 0 1 0
    outer loop
      vertex 27 2 4.5
      vertex 34 2 2
      vertex 27 2 2
    endloop
  endfacet
  facet normal -0.951056 -0.309018 0
    outer loop
      vertex 5 15 0
      vertex 4.71352 15.8817 2
      vertex 4.71352 15.8817 0
    endloop
  endfacet
  facet normal -0.951056 -0.309018 0
    outer loop
      vertex 4.71352 15.8817 2
      vertex 5 15 0
      vertex 5 15 2
    endloop
  endfacet
  facet normal -0.587785 0.809017 0
    outer loop
      vertex 4.71352 14.1183 0
      vertex 3.96352 13.5734 2
      vertex 4.71352 14.1183 2
    endloop
  endfacet
  facet normal -0.587785 0.809017 0
    outer loop
      vertex 3.96352 13.5734 2
      vertex 4.71352 14.1183 0
      vertex 3.96352 13.5734 0
    endloop
  endfacet
  facet normal 0.587785 -0.809017 0
    outer loop
      vertex 2.28647 15.8817 0
      vertex 3.03647 16.4266 2
      vertex 2.28647 15.8817 2
    endloop
  endfacet
  facet normal 0.587785 -0.809017 0
    outer loop
      vertex 3.03647 16.4266 2
      vertex 2.28647 15.8817 0
      vertex 3.03647 16.4266 0
    endloop
  endfacet
  facet normal -0.587785 -0.809017 0
    outer loop
      vertex 3.96352 16.4266 0
      vertex 4.71352 15.8817 2
      vertex 3.96352 16.4266 2
    endloop
  endfacet
  facet normal -0.587785 -0.809017 -0
    outer loop
      vertex 4.71352 15.8817 2
      vertex 3.96352 16.4266 0
      vertex 4.71352 15.8817 0
    endloop
  endfacet
  facet normal 0.951057 -0.309017 0
    outer loop
      vertex 2 15 2
      vertex 2.28647 15.8817 0
      vertex 2.28647 15.8817 2
    endloop
  endfacet
  facet normal 0.951057 -0.309017 0
    outer loop
      vertex 2.28647 15.8817 0
      vertex 2 15 2
      vertex 2 15 0
    endloop
  endfacet
  facet normal -0.951056 0.309017 0
    outer loop
      vertex 4.71352 14.1183 0
      vertex 5 15 2
      vertex 5 15 0
    endloop
  endfacet
  facet normal -0.951056 0.309017 0
    outer loop
      vertex 5 15 2
      vertex 4.71352 14.1183 0
      vertex 4.71352 14.1183 2
    endloop
  endfacet
  facet normal 0 -1 0
    outer loop
      vertex 3.03647 16.4266 0
      vertex 3.96352 16.4266 2
      vertex 3.03647 16.4266 2
    endloop
  endfacet
  facet normal 0 -1 -0
    outer loop
      vertex 3.96352 16.4266 2
      vertex 3.03647 16.4266 0
      vertex 3.96352 16.4266 0
    endloop
  endfacet
  facet normal 0.951057 0.309016 0
    outer loop
      vertex 2.28647 14.1183 2
      vertex 2 15 0
      vertex 2 15 2
    endloop
  endfacet
  facet normal 0.951057 0.309016 0
    outer loop
      vertex 2 15 0
      vertex 2.28647 14.1183 2
      vertex 2.28647 14.1183 0
    endloop
  endfacet
  facet normal 0.587785 0.809017 -0
    outer loop
      vertex 3.03647 13.5734 0
      vertex 2.28647 14.1183 2
      vertex 3.03647 13.5734 2
    endloop
  endfacet
  facet normal 0.587785 0.809017 0
    outer loop
      vertex 2.28647 14.1183 2
      vertex 3.03647 13.5734 0
      vertex 2.28647 14.1183 0
    endloop
  endfacet
  facet normal 0 1 -0
    outer loop
      vertex 3.96352 13.5734 0
      vertex 3.03647 13.5734 2
      vertex 3.96352 13.5734 2
    endloop
  endfacet
  facet normal 0 1 0
    outer loop
      vertex 3.03647 13.5734 2
      vertex 3.96352 13.5734 0
      vertex 3.03647 13.5734 0
    endloop
  endfacet
  facet normal -0.951056 -0.309019 0
    outer loop
      vertex 32 15 0
      vertex 31.7135 15.8817 2
      vertex 31.7135 15.8817 0
    endloop
  endfacet
  facet normal -0.951056 -0.309019 0
    outer loop
      vertex 31.7135 15.8817 2
      vertex 32 15 0
      vertex 32 15 2
    endloop
  endfacet
  facet normal -0.587785 0.809017 0
    outer loop
      vertex 31.7135 14.1183 0
      vertex 30.9635 13.5734 2
      vertex 31.7135 14.1183 2
    endloop
  endfacet
  facet normal -0.587785 0.809017 0
    outer loop
      vertex 30.9635 13.5734 2
      vertex 31.7135 14.1183 0
      vertex 30.9635 13.5734 0
    endloop
  endfacet
  facet normal 0.587785 -0.809017 0
    outer loop
      vertex 29.2865 15.8817 0
      vertex 30.0365 16.4266 2
      vertex 29.2865 15.8817 2
    endloop
  endfacet
  facet normal 0.587785 -0.809017 0
    outer loop
      vertex 30.0365 16.4266 2
      vertex 29.2865 15.8817 0
      vertex 30.0365 16.4266 0
    endloop
  endfacet
  facet normal -0.587785 -0.809017 0
    outer loop
      vertex 30.9635 16.4266 0
      vertex 31.7135 15.8817 2
      vertex 30.9635 16.4266 2
    endloop
  endfacet
  facet normal -0.587785 -0.809017 -0
    outer loop
      vertex 31.7135 15.8817 2
      vertex 30.9635 16.4266 0
      vertex 31.7135 15.8817 0
    endloop
  endfacet
  facet normal 0.951057 -0.309017 0
    outer loop
      vertex 29 15 2
      vertex 29.2865 15.8817 0
      vertex 29.2865 15.8817 2
    endloop
  endfacet
  facet normal 0.951057 -0.309017 0
    outer loop
      vertex 29.2865 15.8817 0
      vertex 29 15 2
      vertex 29 15 0
    endloop
  endfacet
  facet normal -0.951056 0.309018 0
    outer loop
      vertex 31.7135 14.1183 0
      vertex 32 15 2
      vertex 32 15 0
    endloop
  endfacet
  facet normal -0.951056 0.309018 0
    outer loop
      vertex 32 15 2
      vertex 31.7135 14.1183 0
      vertex 31.7135 14.1183 2
    endloop
  endfacet
  facet normal 0 -1 0
    outer loop
      vertex 30.0365 16.4266 0
      vertex 30.9635 16.4266 2
      vertex 30.0365 16.4266 2
    endloop
  endfacet
  facet normal 0 -1 -0
    outer loop
      vertex 30.9635 16.4266 2
      vertex 30.0365 16.4266 0
      vertex 30.9635 16.4266 0
    endloop
  endfacet
  facet normal 0.951057 0.309016 0
    outer loop
      vertex 29.2865 14.1183 2
      vertex 29 15 0
      vertex 29 15 2
    endloop
  endfacet
  facet normal 0.951057 0.309016 0
    outer loop
      vertex 29 15 0
      vertex 29.2865 14.1183 2
      vertex 29.2865 14.1183 0
    endloop
  endfacet
  facet normal 0.587785 0.809017 -0
    outer loop
      vertex 30.0365 13.5734 0
      vertex 29.2865 14.1183 2
      vertex 30.0365 13.5734 2
    endloop
  endfacet
  facet normal 0.587785 0.809017 0
    outer loop
      vertex 29.2865 14.1183 2
      vertex 30.0365 13.5734 0
      vertex 29.2865 14.1183 0
    endloop
  endfacet
  facet normal 0 1 -0
    outer loop
      vertex 30.9635 13.5734 0
      vertex 30.0365 13.5734 2
      vertex 30.9635 13.5734 2
    endloop
  endfacet
  facet normal 0 1 0
    outer loop
      vertex 30.0365 13.5734 2
      vertex 30.9635 13.5734 0
      vertex 30.0365 13.5734 0
    endloop
  endfacet
  facet normal -0.951056 -0.309018 0
    outer loop
      vertex 5 35 0
      vertex 4.71352 35.8817 2
      vertex 4.71352 35.8817 0
    endloop
  endfacet
  facet normal -0.951056 -0.309018 0
    outer loop
      vertex 4.71352 35.8817 2
      vertex 5 35 0
      vertex 5 35 2
    endloop
  endfacet
  facet normal -0.587785 0.809017 0
    outer loop
      vertex 4.71352 34.1183 0
      vertex 3.96352 33.5734 2
      vertex 4.71352 34.1183 2
    endloop
  endfacet
  facet normal -0.587785 0.809017 0
    outer loop
      vertex 3.96352 33.5734 2
      vertex 4.71352 34.1183 0
      vertex 3.96352 33.5734 0
    endloop
  endfacet
  facet normal 0.587785 -0.809017 0
    outer loop
      vertex 2.28647 35.8817 0
      vertex 3.03647 36.4266 2
      vertex 2.28647 35.8817 2
    endloop
  endfacet
  facet normal 0.587785 -0.809017 0
    outer loop
      vertex 3.03647 36.4266 2
      vertex 2.28647 35.8817 0
      vertex 3.03647 36.4266 0
    endloop
  endfacet
  facet normal -0.587785 -0.809017 0
    outer loop
      vertex 3.96352 36.4266 0
      vertex 4.71352 35.8817 2
      vertex 3.96352 36.4266 2
    endloop
  endfacet
  facet normal -0.587785 -0.809017 -0
    outer loop
      vertex 4.71352 35.8817 2
      vertex 3.96352 36.4266 0
      vertex 4.71352 35.8817 0
    endloop
  endfacet
  facet normal 0.951056 -0.309017 0
    outer loop
      vertex 2 35 2
      vertex 2.28647 35.8817 0
      vertex 2.28647 35.8817 2
    endloop
  endfacet
  facet normal 0.951056 -0.309017 0
    outer loop
      vertex 2.28647 35.8817 0
      vertex 2 35 2
      vertex 2 35 0
    endloop
  endfacet
  facet normal -0.951056 0.309017 0
    outer loop
      vertex 4.71352 34.1183 0
      vertex 5 35 2
      vertex 5 35 0
    endloop
  endfacet
  facet normal -0.951056 0.309017 0
    outer loop
      vertex 5 35 2
      vertex 4.71352 34.1183 0
      vertex 4.71352 34.1183 2
    endloop
  endfacet
  facet normal 0 -1 0
    outer loop
      vertex 3.03647 36.4266 0
      vertex 3.96352 36.4266 2
      vertex 3.03647 36.4266 2
    endloop
  endfacet
  facet normal 0 -1 -0
    outer loop
      vertex 3.96352 36.4266 2
      vertex 3.03647 36.4266 0
      vertex 3.96352 36.4266 0
    endloop
  endfacet
  facet normal 0.951057 0.309016 0
    outer loop
      vertex 2.28647 34.1183 2
      vertex 2 35 0
      vertex 2 35 2
    endloop
  endfacet
  facet normal 0.951057 0.309016 0
    outer loop
      vertex 2 35 0
      vertex 2.28647 34.1183 2
      vertex 2.28647 34.1183 0
    endloop
  endfacet
  facet normal 0.587785 0.809017 -0
    outer loop
      vertex 3.03647 33.5734 0
      vertex 2.28647 34.1183 2
      vertex 3.03647 33.5734 2
    endloop
  endfacet
  facet normal 0.587785 0.809017 0
    outer loop
      vertex 2.28647 34.1183 2
      vertex 3.03647 33.5734 0
      vertex 2.28647 34.1183 0
    endloop
  endfacet
  facet normal 0 1 -0
    outer loop
      vertex 3.96352 33.5734 0
      vertex 3.03647 33.5734 2
      vertex 3.96352 33.5734 2
    endloop
  endfacet
  facet normal 0 1 0
    outer loop
      vertex 3.03647 33.5734 2
      vertex 3.96352 33.5734 0
      vertex 3.03647 33.5734 0
    endloop
  endfacet
  facet normal -0.951056 -0.309019 0
    outer loop
      vertex 32 35 0
      vertex 31.7135 35.8817 2
      vertex 31.7135 35.8817 0
    endloop
  endfacet
  facet normal -0.951056 -0.309019 0
    outer loop
      vertex 31.7135 35.8817 2
      vertex 32 35 0
      vertex 32 35 2
    endloop
  endfacet
  facet normal -0.587785 0.809017 0
    outer loop
      vertex 31.7135 34.1183 0
      vertex 30.9635 33.5734 2
      vertex 31.7135 34.1183 2
    endloop
  endfacet
  facet normal -0.587785 0.809017 0
    outer loop
      vertex 30.9635 33.5734 2
      vertex 31.7135 34.1183 0
      vertex 30.9635 33.5734 0
    endloop
  endfacet
  facet normal 0.587785 -0.809017 0
    outer loop
      vertex 29.2865 35.8817 0
      vertex 30.0365 36.4266 2
      vertex 29.2865 35.8817 2
    endloop
  endfacet
  facet normal 0.587785 -0.809017 0
    outer loop
      vertex 30.0365 36.4266 2
      vertex 29.2865 35.8817 0
      vertex 30.0365 36.4266 0
    endloop
  endfacet
  facet normal -0.587785 -0.809017 0
    outer loop
      vertex 30.9635 36.4266 0
      vertex 31.7135 35.8817 2
      vertex 30.9635 36.4266 2
    endloop
  endfacet
  facet normal -0.587785 -0.809017 -0
    outer loop
      vertex 31.7135 35.8817 2
      vertex 30.9635 36.4266 0
      vertex 31.7135 35.8817 0
    endloop
  endfacet
  facet normal 0.951056 -0.309017 0
    outer loop
      vertex 29 35 2
      vertex 29.2865 35.8817 0
      vertex 29.2865 35.8817 2
    endloop
  endfacet
  facet normal 0.951056 -0.309017 0
    outer loop
      vertex 29.2865 35.8817 0
      vertex 29 35 2
      vertex 29 35 0
    endloop
  endfacet
  facet normal 0 -1 0
    outer loop
      vertex 30.0365 36.4266 0
      vertex 30.9635 36.4266 2
      vertex 30.0365 36.4266 2
    endloop
  endfacet
  facet normal 0 -1 -0
    outer loop
      vertex 30.9635 36.4266 2
      vertex 30.0365 36.4266 0
      vertex 30.9635 36.4266 0
    endloop
  endfacet
  facet normal 0.951057 0.309016 0
    outer loop
      vertex 29.2865 34.1183 2
      vertex 29 35 0
      vertex 29 35 2
    endloop
  endfacet
  facet normal 0.951057 0.309016 0
    outer loop
      vertex 29 35 0
      vertex 29.2865 34.1183 2
      vertex 29.2865 34.1183 0
    endloop
  endfacet
  facet normal 0.587785 0.809017 -0
    outer loop
      vertex 30.0365 33.5734 0
      vertex 29.2865 34.1183 2
      vertex 30.0365 33.5734 2
    endloop
  endfacet
  facet normal 0.587785 0.809017 0
    outer loop
      vertex 29.2865 34.1183 2
      vertex 30.0365 33.5734 0
      vertex 29.2865 34.1183 0
    endloop
  endfacet
  facet normal -0.951056 0.309018 0
    outer loop
      vertex 31.7135 34.1183 0
      vertex 32 35 2
      vertex 32 35 0
    endloop
  endfacet
  facet normal -0.951056 0.309018 0
    outer loop
      vertex 32 35 2
      vertex 31.7135 34.1183 0
      vertex 31.7135 34.1183 2
    endloop
  endfacet
  facet normal 0 1 -0
    outer loop
      vertex 30.9635 33.5734 0
      vertex 30.0365 33.5734 2
      vertex 30.9635 33.5734 2
    endloop
  endfacet
  facet normal 0 1 0
    outer loop
      vertex 30.0365 33.5734 2
      vertex 30.9635 33.5734 0
      vertex 30.0365 33.5734 0
    endloop
  endfacet
  facet normal -0 0 1
    outer loop
      vertex 0 1.3 7.5
      vertex 13 0 7.5
      vertex 13 1.3 7.5
    endloop
  endfacet
  facet normal 0 0 1
    outer loop
      vertex 13 0 7.5
      vertex 0 1.3 7.5
      vertex 0 0 7.5
    endloop
  endfacet
  facet normal 1 -0 0
    outer loop
      vertex 13 0 7.5
      vertex 13 1.3 4.5
      vertex 13 1.3 7.5
    endloop
  endfacet
  facet normal 1 0 0
    outer loop
      vertex 13 1.3 4.5
      vertex 13 0 7.5
      vertex 13 0 4.5
    endloop
  endfacet
  facet normal -1 0 0
    outer loop
      vertex 21 0 4.5
      vertex 21 1.3 7.5
      vertex 21 1.3 4.5
    endloop
  endfacet
  facet normal -1 -0 0
    outer loop
      vertex 21 1.3 7.5
      vertex 21 0 4.5
      vertex 21 0 7.5
    endloop
  endfacet
  facet normal -0 0 1
    outer loop
      vertex 21 1.3 7.5
      vertex 34 0 7.5
      vertex 34 1.3 7.5
    endloop
  endfacet
  facet normal 0 0 1
    outer loop
      vertex 34 0 7.5
      vertex 21 1.3 7.5
      vertex 21 0 7.5
    endloop
  endfacet
endsolid OpenSCAD_Model
