solid OpenSCAD_Model
  facet normal -0.951056 -0.309018 0
    outer loop
      vertex 58 61.6 0
      vertex 57.7135 62.4817 1
      vertex 57.7135 62.4817 0
    endloop
  endfacet
  facet normal -0.951056 -0.309018 0
    outer loop
      vertex 57.7135 62.4817 1
      vertex 58 61.6 0
      vertex 58 61.6 1
    endloop
  endfacet
  facet normal 0 -1 0
    outer loop
      vertex 56.0365 63.0266 0
      vertex 56.9635 63.0266 1
      vertex 56.0365 63.0266 1
    endloop
  endfacet
  facet normal 0 -1 -0
    outer loop
      vertex 56.9635 63.0266 1
      vertex 56.0365 63.0266 0
      vertex 56.9635 63.0266 0
    endloop
  endfacet
  facet normal -0.587785 -0.809017 0
    outer loop
      vertex 56.9635 63.0266 0
      vertex 57.7135 62.4817 1
      vertex 56.9635 63.0266 1
    endloop
  endfacet
  facet normal -0.587785 -0.809017 -0
    outer loop
      vertex 57.7135 62.4817 1
      vertex 56.9635 63.0266 0
      vertex 57.7135 62.4817 0
    endloop
  endfacet
  facet normal 0.587785 -0.809017 0
    outer loop
      vertex 55.2865 62.4817 0
      vertex 56.0365 63.0266 1
      vertex 55.2865 62.4817 1
    endloop
  endfacet
  facet normal 0.587785 -0.809017 0
    outer loop
      vertex 56.0365 63.0266 1
      vertex 55.2865 62.4817 0
      vertex 56.0365 63.0266 0
    endloop
  endfacet
  facet normal -0.587785 0.809017 0
    outer loop
      vertex 57.7135 60.7183 0
      vertex 56.9635 60.1734 1
      vertex 57.7135 60.7183 1
    endloop
  endfacet
  facet normal -0.587785 0.809017 0
    outer loop
      vertex 56.9635 60.1734 1
      vertex 57.7135 60.7183 0
      vertex 56.9635 60.1734 0
    endloop
  endfacet
  facet normal 0.951056 -0.309018 0
    outer loop
      vertex 55 61.6 1
      vertex 55.2865 62.4817 0
      vertex 55.2865 62.4817 1
    endloop
  endfacet
  facet normal 0.951056 -0.309018 0
    outer loop
      vertex 55.2865 62.4817 0
      vertex 55 61.6 1
      vertex 55 61.6 0
    endloop
  endfacet
  facet normal 0.587785 0.809017 -0
    outer loop
      vertex 56.0365 60.1734 0
      vertex 55.2865 60.7183 1
      vertex 56.0365 60.1734 1
    endloop
  endfacet
  facet normal 0.587785 0.809017 0
    outer loop
      vertex 55.2865 60.7183 1
      vertex 56.0365 60.1734 0
      vertex 55.2865 60.7183 0
    endloop
  endfacet
  facet normal -0.951056 0.309019 0
    outer loop
      vertex 57.7135 60.7183 0
      vertex 58 61.6 1
      vertex 58 61.6 0
    endloop
  endfacet
  facet normal -0.951056 0.309019 0
    outer loop
      vertex 58 61.6 1
      vertex 57.7135 60.7183 0
      vertex 57.7135 60.7183 1
    endloop
  endfacet
  facet normal 0.951056 0.309019 0
    outer loop
      vertex 55.2865 60.7183 1
      vertex 55 61.6 0
      vertex 55 61.6 1
    endloop
  endfacet
  facet normal 0.951056 0.309019 0
    outer loop
      vertex 55 61.6 0
      vertex 55.2865 60.7183 1
      vertex 55.2865 60.7183 0
    endloop
  endfacet
  facet normal 0 1 -0
    outer loop
      vertex 56.9635 60.1734 0
      vertex 56.0365 60.1734 1
      vertex 56.9635 60.1734 1
    endloop
  endfacet
  facet normal 0 1 0
    outer loop
      vertex 56.0365 60.1734 1
      vertex 56.9635 60.1734 0
      vertex 56.0365 60.1734 0
    endloop
  endfacet
  facet normal -0.951056 -0.309019 0
    outer loop
      vertex 58 82.5 0
      vertex 57.7135 83.3817 1
      vertex 57.7135 83.3817 0
    endloop
  endfacet
  facet normal -0.951056 -0.309019 0
    outer loop
      vertex 57.7135 83.3817 1
      vertex 58 82.5 0
      vertex 58 82.5 1
    endloop
  endfacet
  facet normal -0.587785 0.809017 0
    outer loop
      vertex 57.7135 81.6183 0
      vertex 56.9635 81.0734 1
      vertex 57.7135 81.6183 1
    endloop
  endfacet
  facet normal -0.587785 0.809017 0
    outer loop
      vertex 56.9635 81.0734 1
      vertex 57.7135 81.6183 0
      vertex 56.9635 81.0734 0
    endloop
  endfacet
  facet normal 0.587785 -0.809017 0
    outer loop
      vertex 55.2865 83.3817 0
      vertex 56.0365 83.9266 1
      vertex 55.2865 83.3817 1
    endloop
  endfacet
  facet normal 0.587785 -0.809017 0
    outer loop
      vertex 56.0365 83.9266 1
      vertex 55.2865 83.3817 0
      vertex 56.0365 83.9266 0
    endloop
  endfacet
  facet normal -0.587785 -0.809017 0
    outer loop
      vertex 56.9635 83.9266 0
      vertex 57.7135 83.3817 1
      vertex 56.9635 83.9266 1
    endloop
  endfacet
  facet normal -0.587785 -0.809017 -0
    outer loop
      vertex 57.7135 83.3817 1
      vertex 56.9635 83.9266 0
      vertex 57.7135 83.3817 0
    endloop
  endfacet
  facet normal 0.951056 -0.309019 0
    outer loop
      vertex 55 82.5 1
      vertex 55.2865 83.3817 0
      vertex 55.2865 83.3817 1
    endloop
  endfacet
  facet normal 0.951056 -0.309019 0
    outer loop
      vertex 55.2865 83.3817 0
      vertex 55 82.5 1
      vertex 55 82.5 0
    endloop
  endfacet
  facet normal 0 -1 0
    outer loop
      vertex 56.0365 83.9266 0
      vertex 56.9635 83.9266 1
      vertex 56.0365 83.9266 1
    endloop
  endfacet
  facet normal 0 -1 -0
    outer loop
      vertex 56.9635 83.9266 1
      vertex 56.0365 83.9266 0
      vertex 56.9635 83.9266 0
    endloop
  endfacet
  facet normal 0.951056 0.309019 0
    outer loop
      vertex 55.2865 81.6183 1
      vertex 55 82.5 0
      vertex 55 82.5 1
    endloop
  endfacet
  facet normal 0.951056 0.309019 0
    outer loop
      vertex 55 82.5 0
      vertex 55.2865 81.6183 1
      vertex 55.2865 81.6183 0
    endloop
  endfacet
  facet normal -0.951056 0.309019 0
    outer loop
      vertex 57.7135 81.6183 0
      vertex 58 82.5 1
      vertex 58 82.5 0
    endloop
  endfacet
  facet normal -0.951056 0.309019 0
    outer loop
      vertex 58 82.5 1
      vertex 57.7135 81.6183 0
      vertex 57.7135 81.6183 1
    endloop
  endfacet
  facet normal 0 1 -0
    outer loop
      vertex 56.9635 81.0734 0
      vertex 56.0365 81.0734 1
      vertex 56.9635 81.0734 1
    endloop
  endfacet
  facet normal 0 1 0
    outer loop
      vertex 56.0365 81.0734 1
      vertex 56.9635 81.0734 0
      vertex 56.0365 81.0734 0
    endloop
  endfacet
  facet normal 0.587785 0.809017 -0
    outer loop
      vertex 56.0365 81.0734 0
      vertex 55.2865 81.6183 1
      vertex 56.0365 81.0734 1
    endloop
  endfacet
  facet normal 0.587785 0.809017 0
    outer loop
      vertex 55.2865 81.6183 1
      vertex 56.0365 81.0734 0
      vertex 55.2865 81.6183 0
    endloop
  endfacet
  facet normal -0.951056 -0.309018 0
    outer loop
      vertex 85 61.6 0
      vertex 84.7135 62.4817 1
      vertex 84.7135 62.4817 0
    endloop
  endfacet
  facet normal -0.951056 -0.309018 0
    outer loop
      vertex 84.7135 62.4817 1
      vertex 85 61.6 0
      vertex 85 61.6 1
    endloop
  endfacet
  facet normal 0 -1 0
    outer loop
      vertex 83.0365 63.0266 0
      vertex 83.9635 63.0266 1
      vertex 83.0365 63.0266 1
    endloop
  endfacet
  facet normal 0 -1 -0
    outer loop
      vertex 83.9635 63.0266 1
      vertex 83.0365 63.0266 0
      vertex 83.9635 63.0266 0
    endloop
  endfacet
  facet normal -0.587785 -0.809017 0
    outer loop
      vertex 83.9635 63.0266 0
      vertex 84.7135 62.4817 1
      vertex 83.9635 63.0266 1
    endloop
  endfacet
  facet normal -0.587785 -0.809017 -0
    outer loop
      vertex 84.7135 62.4817 1
      vertex 83.9635 63.0266 0
      vertex 84.7135 62.4817 0
    endloop
  endfacet
  facet normal 0.587785 -0.809017 0
    outer loop
      vertex 82.2865 62.4817 0
      vertex 83.0365 63.0266 1
      vertex 82.2865 62.4817 1
    endloop
  endfacet
  facet normal 0.587785 -0.809017 0
    outer loop
      vertex 83.0365 63.0266 1
      vertex 82.2865 62.4817 0
      vertex 83.0365 63.0266 0
    endloop
  endfacet
  facet normal -0.951056 0.309019 0
    outer loop
      vertex 84.7135 60.7183 0
      vertex 85 61.6 1
      vertex 85 61.6 0
    endloop
  endfacet
  facet normal -0.951056 0.309019 0
    outer loop
      vertex 85 61.6 1
      vertex 84.7135 60.7183 0
      vertex 84.7135 60.7183 1
    endloop
  endfacet
  facet normal -0.587785 0.809017 0
    outer loop
      vertex 84.7135 60.7183 0
      vertex 83.9635 60.1734 1
      vertex 84.7135 60.7183 1
    endloop
  endfacet
  facet normal -0.587785 0.809017 0
    outer loop
      vertex 83.9635 60.1734 1
      vertex 84.7135 60.7183 0
      vertex 83.9635 60.1734 0
    endloop
  endfacet
  facet normal 0.951056 -0.309018 0
    outer loop
      vertex 82 61.6 1
      vertex 82.2865 62.4817 0
      vertex 82.2865 62.4817 1
    endloop
  endfacet
  facet normal 0.951056 -0.309018 0
    outer loop
      vertex 82.2865 62.4817 0
      vertex 82 61.6 1
      vertex 82 61.6 0
    endloop
  endfacet
  facet normal 0.587785 0.809017 -0
    outer loop
      vertex 83.0365 60.1734 0
      vertex 82.2865 60.7183 1
      vertex 83.0365 60.1734 1
    endloop
  endfacet
  facet normal 0.587785 0.809017 0
    outer loop
      vertex 82.2865 60.7183 1
      vertex 83.0365 60.1734 0
      vertex 82.2865 60.7183 0
    endloop
  endfacet
  facet normal 0.951056 0.309019 0
    outer loop
      vertex 82.2865 60.7183 1
      vertex 82 61.6 0
      vertex 82 61.6 1
    endloop
  endfacet
  facet normal 0.951056 0.309019 0
    outer loop
      vertex 82 61.6 0
      vertex 82.2865 60.7183 1
      vertex 82.2865 60.7183 0
    endloop
  endfacet
  facet normal 0 1 -0
    outer loop
      vertex 83.9635 60.1734 0
      vertex 83.0365 60.1734 1
      vertex 83.9635 60.1734 1
    endloop
  endfacet
  facet normal 0 1 0
    outer loop
      vertex 83.0365 60.1734 1
      vertex 83.9635 60.1734 0
      vertex 83.0365 60.1734 0
    endloop
  endfacet
  facet normal -0.951056 -0.309019 0
    outer loop
      vertex 85 82.5 0
      vertex 84.7135 83.3817 1
      vertex 84.7135 83.3817 0
    endloop
  endfacet
  facet normal -0.951056 -0.309019 0
    outer loop
      vertex 84.7135 83.3817 1
      vertex 85 82.5 0
      vertex 85 82.5 1
    endloop
  endfacet
  facet normal -0.587785 0.809017 0
    outer loop
      vertex 84.7135 81.6183 0
      vertex 83.9635 81.0734 1
      vertex 84.7135 81.6183 1
    endloop
  endfacet
  facet normal -0.587785 0.809017 0
    outer loop
      vertex 83.9635 81.0734 1
      vertex 84.7135 81.6183 0
      vertex 83.9635 81.0734 0
    endloop
  endfacet
  facet normal 0.587785 -0.809017 0
    outer loop
      vertex 82.2865 83.3817 0
      vertex 83.0365 83.9266 1
      vertex 82.2865 83.3817 1
    endloop
  endfacet
  facet normal 0.587785 -0.809017 0
    outer loop
      vertex 83.0365 83.9266 1
      vertex 82.2865 83.3817 0
      vertex 83.0365 83.9266 0
    endloop
  endfacet
  facet normal -0.587785 -0.809017 0
    outer loop
      vertex 83.9635 83.9266 0
      vertex 84.7135 83.3817 1
      vertex 83.9635 83.9266 1
    endloop
  endfacet
  facet normal -0.587785 -0.809017 -0
    outer loop
      vertex 84.7135 83.3817 1
      vertex 83.9635 83.9266 0
      vertex 84.7135 83.3817 0
    endloop
  endfacet
  facet normal 0.951056 -0.309019 0
    outer loop
      vertex 82 82.5 1
      vertex 82.2865 83.3817 0
      vertex 82.2865 83.3817 1
    endloop
  endfacet
  facet normal 0.951056 -0.309019 0
    outer loop
      vertex 82.2865 83.3817 0
      vertex 82 82.5 1
      vertex 82 82.5 0
    endloop
  endfacet
  facet normal 0 -1 0
    outer loop
      vertex 83.0365 83.9266 0
      vertex 83.9635 83.9266 1
      vertex 83.0365 83.9266 1
    endloop
  endfacet
  facet normal 0 -1 -0
    outer loop
      vertex 83.9635 83.9266 1
      vertex 83.0365 83.9266 0
      vertex 83.9635 83.9266 0
    endloop
  endfacet
  facet normal 0.951056 0.309019 0
    outer loop
      vertex 82.2865 81.6183 1
      vertex 82 82.5 0
      vertex 82 82.5 1
    endloop
  endfacet
  facet normal 0.951056 0.309019 0
    outer loop
      vertex 82 82.5 0
      vertex 82.2865 81.6183 1
      vertex 82.2865 81.6183 0
    endloop
  endfacet
  facet normal 0.587785 0.809017 -0
    outer loop
      vertex 83.0365 81.0734 0
      vertex 82.2865 81.6183 1
      vertex 83.0365 81.0734 1
    endloop
  endfacet
  facet normal 0.587785 0.809017 0
    outer loop
      vertex 82.2865 81.6183 1
      vertex 83.0365 81.0734 0
      vertex 82.2865 81.6183 0
    endloop
  endfacet
  facet normal -0.951056 0.309019 0
    outer loop
      vertex 84.7135 81.6183 0
      vertex 85 82.5 1
      vertex 85 82.5 0
    endloop
  endfacet
  facet normal -0.951056 0.309019 0
    outer loop
      vertex 85 82.5 1
      vertex 84.7135 81.6183 0
      vertex 84.7135 81.6183 1
    endloop
  endfacet
  facet normal 0 1 -0
    outer loop
      vertex 83.9635 81.0734 0
      vertex 83.0365 81.0734 1
      vertex 83.9635 81.0734 1
    endloop
  endfacet
  facet normal 0 1 0
    outer loop
      vertex 83.0365 81.0734 1
      vertex 83.9635 81.0734 0
      vertex 83.0365 81.0734 0
    endloop
  endfacet
  facet normal -1 0 0
    outer loop
      vertex 0 0 0
      vertex 0 97.5 8.5
      vertex 0 97.5 0
    endloop
  endfacet
  facet normal -1 -0 0
    outer loop
      vertex 0 97.5 8.5
      vertex 0 0 0
      vertex 0 0 8.5
    endloop
  endfacet
  facet normal 0 0 1
    outer loop
      vertex 53 97.5 8.5
      vertex 6.5 95.25 8.5
      vertex 53 95.25 8.5
    endloop
  endfacet
  facet normal 0 0 1
    outer loop
      vertex 6.5 95.25 8.5
      vertex 5 94.5 8.5
      vertex 6.5 91.5 8.5
    endloop
  endfacet
  facet normal 0 0 1
    outer loop
      vertex 6.5 95.25 8.5
      vertex 4.61803 95.6756 8.5
      vertex 5 94.5 8.5
    endloop
  endfacet
  facet normal -0 0 1
    outer loop
      vertex 3.61803 96.4021 8.5
      vertex 6.5 95.25 8.5
      vertex 53 97.5 8.5
    endloop
  endfacet
  facet normal 0 0 1
    outer loop
      vertex 6.5 95.25 8.5
      vertex 3.61803 96.4021 8.5
      vertex 4.61803 95.6756 8.5
    endloop
  endfacet
  facet normal -0 0 1
    outer loop
      vertex 0 97.5 8.5
      vertex 3.61803 96.4021 8.5
      vertex 53 97.5 8.5
    endloop
  endfacet
  facet normal 0 0 1
    outer loop
      vertex 1 94.5 8.5
      vertex 0 97.5 8.5
      vertex 1 3 8.5
    endloop
  endfacet
  facet normal 0 0 1
    outer loop
      vertex 1.38197 95.6756 8.5
      vertex 0 97.5 8.5
      vertex 1 94.5 8.5
    endloop
  endfacet
  facet normal 0 0 1
    outer loop
      vertex 2.38197 96.4021 8.5
      vertex 0 97.5 8.5
      vertex 1.38197 95.6756 8.5
    endloop
  endfacet
  facet normal 0 0 1
    outer loop
      vertex 3.61803 96.4021 8.5
      vertex 0 97.5 8.5
      vertex 2.38197 96.4021 8.5
    endloop
  endfacet
  facet normal -0 0 1
    outer loop
      vertex 4.61803 93.3244 8.5
      vertex 6.5 91.5 8.5
      vertex 5 94.5 8.5
    endloop
  endfacet
  facet normal -0 0 1
    outer loop
      vertex 3.61803 92.5979 8.5
      vertex 6.5 91.5 8.5
      vertex 4.61803 93.3244 8.5
    endloop
  endfacet
  facet normal 0 0 1
    outer loop
      vertex 2.25 91.5 8.5
      vertex 3.61803 92.5979 8.5
      vertex 2.38197 92.5979 8.5
    endloop
  endfacet
  facet normal 0 0 1
    outer loop
      vertex 3.61803 92.5979 8.5
      vertex 2.25 91.5 8.5
      vertex 6.5 91.5 8.5
    endloop
  endfacet
  facet normal 0 0 1
    outer loop
      vertex 2.25 91.5 8.5
      vertex 1.38197 93.3244 8.5
      vertex 2.25 6 8.5
    endloop
  endfacet
  facet normal 0 0 1
    outer loop
      vertex 1.38197 93.3244 8.5
      vertex 2.25 91.5 8.5
      vertex 2.38197 92.5979 8.5
    endloop
  endfacet
  facet normal 0 0 1
    outer loop
      vertex 6.5 6 8.5
      vertex 5 3 8.5
      vertex 6.5 2.25 8.5
    endloop
  endfacet
  facet normal 0 0 1
    outer loop
      vertex 6.5 6 8.5
      vertex 4.61803 4.17557 8.5
      vertex 5 3 8.5
    endloop
  endfacet
  facet normal 0 0 1
    outer loop
      vertex 6.5 6 8.5
      vertex 3.61803 4.90211 8.5
      vertex 4.61803 4.17557 8.5
    endloop
  endfacet
  facet normal -0 0 1
    outer loop
      vertex 2.25 6 8.5
      vertex 3.61803 4.90211 8.5
      vertex 6.5 6 8.5
    endloop
  endfacet
  facet normal 0 0 1
    outer loop
      vertex 3.61803 4.90211 8.5
      vertex 2.25 6 8.5
      vertex 2.38197 4.90211 8.5
    endloop
  endfacet
  facet normal 0 0 1
    outer loop
      vertex 2.25 6 8.5
      vertex 1.38197 4.17557 8.5
      vertex 2.38197 4.90211 8.5
    endloop
  endfacet
  facet normal 0 0 1
    outer loop
      vertex 1.38197 93.3244 8.5
      vertex 1.38197 4.17557 8.5
      vertex 2.25 6 8.5
    endloop
  endfacet
  facet normal 0 0 1
    outer loop
      vertex 1 94.5 8.5
      vertex 1.38197 4.17557 8.5
      vertex 1.38197 93.3244 8.5
    endloop
  endfacet
  facet normal 0 0 1
    outer loop
      vertex 1.38197 4.17557 8.5
      vertex 1 94.5 8.5
      vertex 1 3 8.5
    endloop
  endfacet
  facet normal -0 0 1
    outer loop
      vertex 138.018 93.3244 8.5
      vertex 138.4 3 8.5
      vertex 138.4 94.5 8.5
    endloop
  endfacet
  facet normal 0 0 1
    outer loop
      vertex 138.018 93.3244 8.5
      vertex 138.018 4.17557 8.5
      vertex 138.4 3 8.5
    endloop
  endfacet
  facet normal 0 0 1
    outer loop
      vertex 138.018 93.3244 8.5
      vertex 137.15 91.5 8.5
      vertex 138.018 4.17557 8.5
    endloop
  endfacet
  facet normal -0 0 1
    outer loop
      vertex 137.018 92.5979 8.5
      vertex 137.15 91.5 8.5
      vertex 138.018 93.3244 8.5
    endloop
  endfacet
  facet normal -0 0 1
    outer loop
      vertex 135.782 92.5979 8.5
      vertex 137.15 91.5 8.5
      vertex 137.018 92.5979 8.5
    endloop
  endfacet
  facet normal 0 0 1
    outer loop
      vertex 133.9 91.5 8.5
      vertex 135.782 92.5979 8.5
      vertex 134.782 93.3244 8.5
    endloop
  endfacet
  facet normal 0 0 1
    outer loop
      vertex 133.9 91.5 8.5
      vertex 134.4 94.5 8.5
      vertex 133.9 95.25 8.5
    endloop
  endfacet
  facet normal 0 0 1
    outer loop
      vertex 135.782 92.5979 8.5
      vertex 133.9 91.5 8.5
      vertex 137.15 91.5 8.5
    endloop
  endfacet
  facet normal 0 0 1
    outer loop
      vertex 134.4 94.5 8.5
      vertex 133.9 91.5 8.5
      vertex 134.782 93.3244 8.5
    endloop
  endfacet
  facet normal 0 0 1
    outer loop
      vertex 139.4 97.5 8.5
      vertex 138.4 94.5 8.5
      vertex 139.4 0 8.5
    endloop
  endfacet
  facet normal 0 0 1
    outer loop
      vertex 139.4 97.5 8.5
      vertex 138.018 95.6756 8.5
      vertex 138.4 94.5 8.5
    endloop
  endfacet
  facet normal 0 0 1
    outer loop
      vertex 139.4 97.5 8.5
      vertex 137.018 96.4021 8.5
      vertex 138.018 95.6756 8.5
    endloop
  endfacet
  facet normal 0 0 1
    outer loop
      vertex 139.4 97.5 8.5
      vertex 135.782 96.4021 8.5
      vertex 137.018 96.4021 8.5
    endloop
  endfacet
  facet normal 0 0 1
    outer loop
      vertex 134.782 95.6756 8.5
      vertex 133.9 95.25 8.5
      vertex 134.4 94.5 8.5
    endloop
  endfacet
  facet normal 0 0 1
    outer loop
      vertex 135.782 96.4021 8.5
      vertex 133.9 95.25 8.5
      vertex 134.782 95.6756 8.5
    endloop
  endfacet
  facet normal -0 0 1
    outer loop
      vertex 87 97.5 8.5
      vertex 135.782 96.4021 8.5
      vertex 139.4 97.5 8.5
    endloop
  endfacet
  facet normal 0 0 1
    outer loop
      vertex 87 97.5 8.5
      vertex 133.9 95.25 8.5
      vertex 135.782 96.4021 8.5
    endloop
  endfacet
  facet normal 0 0 1
    outer loop
      vertex 133.9 95.25 8.5
      vertex 87 97.5 8.5
      vertex 87 95.25 8.5
    endloop
  endfacet
  facet normal -0 0 1
    outer loop
      vertex 138.4 3 8.5
      vertex 139.4 0 8.5
      vertex 138.4 94.5 8.5
    endloop
  endfacet
  facet normal -0 0 1
    outer loop
      vertex 138.018 1.82443 8.5
      vertex 139.4 0 8.5
      vertex 138.4 3 8.5
    endloop
  endfacet
  facet normal -0 0 1
    outer loop
      vertex 137.018 1.09789 8.5
      vertex 139.4 0 8.5
      vertex 138.018 1.82443 8.5
    endloop
  endfacet
  facet normal -0 0 1
    outer loop
      vertex 135.782 1.09789 8.5
      vertex 139.4 0 8.5
      vertex 137.018 1.09789 8.5
    endloop
  endfacet
  facet normal 0 0 1
    outer loop
      vertex 133.9 2.25 8.5
      vertex 134.4 3 8.5
      vertex 133.9 6 8.5
    endloop
  endfacet
  facet normal -0 0 1
    outer loop
      vertex 133.9 2.25 8.5
      vertex 134.782 1.82443 8.5
      vertex 134.4 3 8.5
    endloop
  endfacet
  facet normal 0 0 1
    outer loop
      vertex 133.9 2.25 8.5
      vertex 135.782 1.09789 8.5
      vertex 134.782 1.82443 8.5
    endloop
  endfacet
  facet normal -0 0 1
    outer loop
      vertex 6.5 2.25 8.5
      vertex 135.782 1.09789 8.5
      vertex 133.9 2.25 8.5
    endloop
  endfacet
  facet normal 0 0 1
    outer loop
      vertex 3.61803 1.09789 8.5
      vertex 135.782 1.09789 8.5
      vertex 6.5 2.25 8.5
    endloop
  endfacet
  facet normal 0 0 1
    outer loop
      vertex 4.61803 1.82443 8.5
      vertex 6.5 2.25 8.5
      vertex 5 3 8.5
    endloop
  endfacet
  facet normal 0 0 1
    outer loop
      vertex 3.61803 1.09789 8.5
      vertex 6.5 2.25 8.5
      vertex 4.61803 1.82443 8.5
    endloop
  endfacet
  facet normal 0 0 1
    outer loop
      vertex 135.782 1.09789 8.5
      vertex 3.61803 1.09789 8.5
      vertex 139.4 0 8.5
    endloop
  endfacet
  facet normal 0 0 1
    outer loop
      vertex 0 0 8.5
      vertex 3.61803 1.09789 8.5
      vertex 2.38197 1.09789 8.5
    endloop
  endfacet
  facet normal 0 0 1
    outer loop
      vertex 3.61803 1.09789 8.5
      vertex 0 0 8.5
      vertex 139.4 0 8.5
    endloop
  endfacet
  facet normal 0 0 1
    outer loop
      vertex 1.38197 1.82443 8.5
      vertex 0 0 8.5
      vertex 2.38197 1.09789 8.5
    endloop
  endfacet
  facet normal 0 0 1
    outer loop
      vertex 1 3 8.5
      vertex 0 0 8.5
      vertex 1.38197 1.82443 8.5
    endloop
  endfacet
  facet normal 0 0 1
    outer loop
      vertex 0 0 8.5
      vertex 1 3 8.5
      vertex 0 97.5 8.5
    endloop
  endfacet
  facet normal -0 0 1
    outer loop
      vertex 137.15 6 8.5
      vertex 138.018 4.17557 8.5
      vertex 137.15 91.5 8.5
    endloop
  endfacet
  facet normal 0 0 1
    outer loop
      vertex 137.15 6 8.5
      vertex 137.018 4.90211 8.5
      vertex 138.018 4.17557 8.5
    endloop
  endfacet
  facet normal 0 0 1
    outer loop
      vertex 137.15 6 8.5
      vertex 135.782 4.90211 8.5
      vertex 137.018 4.90211 8.5
    endloop
  endfacet
  facet normal -0 0 1
    outer loop
      vertex 133.9 6 8.5
      vertex 135.782 4.90211 8.5
      vertex 137.15 6 8.5
    endloop
  endfacet
  facet normal 0 0 1
    outer loop
      vertex 134.782 4.17557 8.5
      vertex 133.9 6 8.5
      vertex 134.4 3 8.5
    endloop
  endfacet
  facet normal 0 0 1
    outer loop
      vertex 135.782 4.90211 8.5
      vertex 133.9 6 8.5
      vertex 134.782 4.17557 8.5
    endloop
  endfacet
  facet normal 1 -0 0
    outer loop
      vertex 139.4 0 8.5
      vertex 139.4 97.5 0
      vertex 139.4 97.5 8.5
    endloop
  endfacet
  facet normal 1 0 0
    outer loop
      vertex 139.4 97.5 0
      vertex 139.4 0 8.5
      vertex 139.4 0 0
    endloop
  endfacet
  facet normal 0 1 0
    outer loop
      vertex 139.4 97.5 8.5
      vertex 87 97.5 1
      vertex 87 97.5 8.5
    endloop
  endfacet
  facet normal 0 1 0
    outer loop
      vertex 87 97.5 1
      vertex 139.4 97.5 0
      vertex 53 97.5 1
    endloop
  endfacet
  facet normal 0 1 -0
    outer loop
      vertex 139.4 97.5 0
      vertex 87 97.5 1
      vertex 139.4 97.5 8.5
    endloop
  endfacet
  facet normal 0 1 -0
    outer loop
      vertex 53 97.5 1
      vertex 0 97.5 8.5
      vertex 53 97.5 8.5
    endloop
  endfacet
  facet normal 0 1 0
    outer loop
      vertex 53 97.5 1
      vertex 0 97.5 0
      vertex 0 97.5 8.5
    endloop
  endfacet
  facet normal 0 1 0
    outer loop
      vertex 0 97.5 0
      vertex 53 97.5 1
      vertex 139.4 97.5 0
    endloop
  endfacet
  facet normal -0 0 -1
    outer loop
      vertex 55.2865 60.7183 0
      vertex 3.61803 4.90211 0
      vertex 55 61.6 0
    endloop
  endfacet
  facet normal 0 0 -1
    outer loop
      vertex 55 61.6 0
      vertex 4.61803 93.3244 0
      vertex 5 94.5 0
    endloop
  endfacet
  facet normal 0 0 -1
    outer loop
      vertex 3.61803 92.5979 0
      vertex 55 61.6 0
      vertex 3.61803 4.90211 0
    endloop
  endfacet
  facet normal 0 0 -1
    outer loop
      vertex 55 61.6 0
      vertex 3.61803 92.5979 0
      vertex 4.61803 93.3244 0
    endloop
  endfacet
  facet normal 0 0 -1
    outer loop
      vertex 2.38197 4.90211 0
      vertex 3.61803 92.5979 0
      vertex 3.61803 4.90211 0
    endloop
  endfacet
  facet normal 0 0 -1
    outer loop
      vertex 2.38197 4.90211 0
      vertex 2.38197 92.5979 0
      vertex 3.61803 92.5979 0
    endloop
  endfacet
  facet normal 0 0 -1
    outer loop
      vertex 1.38197 4.17557 0
      vertex 2.38197 92.5979 0
      vertex 2.38197 4.90211 0
    endloop
  endfacet
  facet normal 0 0 -1
    outer loop
      vertex 1.38197 4.17557 0
      vertex 1.38197 93.3244 0
      vertex 2.38197 92.5979 0
    endloop
  endfacet
  facet normal 0 0 -1
    outer loop
      vertex 1 3 0
      vertex 1.38197 93.3244 0
      vertex 1.38197 4.17557 0
    endloop
  endfacet
  facet normal -0 0 -1
    outer loop
      vertex 1.38197 93.3244 0
      vertex 1 3 0
      vertex 1 94.5 0
    endloop
  endfacet
  facet normal 0 0 -1
    outer loop
      vertex 57.7135 81.6183 0
      vertex 82.2865 81.6183 0
      vertex 57.7135 62.4817 0
    endloop
  endfacet
  facet normal 0 0 -1
    outer loop
      vertex 82.2865 81.6183 0
      vertex 57.7135 81.6183 0
      vertex 58 82.5 0
    endloop
  endfacet
  facet normal 0 0 -1
    outer loop
      vertex 56.9635 63.0266 0
      vertex 57.7135 81.6183 0
      vertex 57.7135 62.4817 0
    endloop
  endfacet
  facet normal 0 0 -1
    outer loop
      vertex 56.9635 63.0266 0
      vertex 56.9635 81.0734 0
      vertex 57.7135 81.6183 0
    endloop
  endfacet
  facet normal 0 0 -1
    outer loop
      vertex 56.0365 63.0266 0
      vertex 56.9635 81.0734 0
      vertex 56.9635 63.0266 0
    endloop
  endfacet
  facet normal 0 0 -1
    outer loop
      vertex 56.0365 63.0266 0
      vertex 56.0365 81.0734 0
      vertex 56.9635 81.0734 0
    endloop
  endfacet
  facet normal 0 0 -1
    outer loop
      vertex 55.2865 62.4817 0
      vertex 56.0365 81.0734 0
      vertex 56.0365 63.0266 0
    endloop
  endfacet
  facet normal 0 0 -1
    outer loop
      vertex 55.2865 62.4817 0
      vertex 55.2865 81.6183 0
      vertex 56.0365 81.0734 0
    endloop
  endfacet
  facet normal 0 0 -1
    outer loop
      vertex 5 94.5 0
      vertex 55.2865 62.4817 0
      vertex 55 61.6 0
    endloop
  endfacet
  facet normal 0 0 -1
    outer loop
      vertex 55.2865 62.4817 0
      vertex 5 94.5 0
      vertex 55.2865 81.6183 0
    endloop
  endfacet
  facet normal 0 0 -1
    outer loop
      vertex 84.7135 81.6183 0
      vertex 134.782 93.3244 0
      vertex 84.7135 62.4817 0
    endloop
  endfacet
  facet normal 0 0 -1
    outer loop
      vertex 134.782 93.3244 0
      vertex 84.7135 81.6183 0
      vertex 85 82.5 0
    endloop
  endfacet
  facet normal 0 0 -1
    outer loop
      vertex 83.9635 63.0266 0
      vertex 84.7135 81.6183 0
      vertex 84.7135 62.4817 0
    endloop
  endfacet
  facet normal 0 0 -1
    outer loop
      vertex 83.9635 63.0266 0
      vertex 83.9635 81.0734 0
      vertex 84.7135 81.6183 0
    endloop
  endfacet
  facet normal 0 0 -1
    outer loop
      vertex 83.0365 63.0266 0
      vertex 83.9635 81.0734 0
      vertex 83.9635 63.0266 0
    endloop
  endfacet
  facet normal 0 0 -1
    outer loop
      vertex 83.0365 63.0266 0
      vertex 83.0365 81.0734 0
      vertex 83.9635 81.0734 0
    endloop
  endfacet
  facet normal 0 0 -1
    outer loop
      vertex 82.2865 62.4817 0
      vertex 83.0365 81.0734 0
      vertex 83.0365 63.0266 0
    endloop
  endfacet
  facet normal 0 0 -1
    outer loop
      vertex 82.2865 62.4817 0
      vertex 82.2865 81.6183 0
      vertex 83.0365 81.0734 0
    endloop
  endfacet
  facet normal 0 0 -1
    outer loop
      vertex 58 61.6 0
      vertex 82.2865 62.4817 0
      vertex 82 61.6 0
    endloop
  endfacet
  facet normal 0 0 -1
    outer loop
      vertex 57.7135 62.4817 0
      vertex 82.2865 62.4817 0
      vertex 58 61.6 0
    endloop
  endfacet
  facet normal 0 0 -1
    outer loop
      vertex 138.018 4.17557 0
      vertex 138.4 94.5 0
      vertex 138.4 3 0
    endloop
  endfacet
  facet normal 0 0 -1
    outer loop
      vertex 138.018 4.17557 0
      vertex 138.018 93.3244 0
      vertex 138.4 94.5 0
    endloop
  endfacet
  facet normal 0 0 -1
    outer loop
      vertex 137.018 4.90211 0
      vertex 138.018 93.3244 0
      vertex 138.018 4.17557 0
    endloop
  endfacet
  facet normal 0 0 -1
    outer loop
      vertex 137.018 4.90211 0
      vertex 137.018 92.5979 0
      vertex 138.018 93.3244 0
    endloop
  endfacet
  facet normal 0 0 -1
    outer loop
      vertex 135.782 4.90211 0
      vertex 137.018 92.5979 0
      vertex 137.018 4.90211 0
    endloop
  endfacet
  facet normal 0 0 -1
    outer loop
      vertex 135.782 4.90211 0
      vertex 135.782 92.5979 0
      vertex 137.018 92.5979 0
    endloop
  endfacet
  facet normal 0 0 -1
    outer loop
      vertex 84.7135 60.7183 0
      vertex 135.782 4.90211 0
      vertex 134.782 4.17557 0
    endloop
  endfacet
  facet normal 0 0 -1
    outer loop
      vertex 135.782 4.90211 0
      vertex 85 61.6 0
      vertex 135.782 92.5979 0
    endloop
  endfacet
  facet normal 0 0 -1
    outer loop
      vertex 83.9635 60.1734 0
      vertex 134.782 4.17557 0
      vertex 134.4 3 0
    endloop
  endfacet
  facet normal -0 0 -1
    outer loop
      vertex 135.782 92.5979 0
      vertex 85 61.6 0
      vertex 134.782 93.3244 0
    endloop
  endfacet
  facet normal 0 0 -1
    outer loop
      vertex 139.4 0 0
      vertex 138.4 3 0
      vertex 139.4 97.5 0
    endloop
  endfacet
  facet normal 0 0 -1
    outer loop
      vertex 139.4 0 0
      vertex 138.018 1.82443 0
      vertex 138.4 3 0
    endloop
  endfacet
  facet normal 0 0 -1
    outer loop
      vertex 139.4 0 0
      vertex 137.018 1.09789 0
      vertex 138.018 1.82443 0
    endloop
  endfacet
  facet normal 0 0 -1
    outer loop
      vertex 139.4 0 0
      vertex 135.782 1.09789 0
      vertex 137.018 1.09789 0
    endloop
  endfacet
  facet normal 0 0 -1
    outer loop
      vertex 84.7135 62.4817 0
      vertex 134.782 93.3244 0
      vertex 85 61.6 0
    endloop
  endfacet
  facet normal 0 0 -1
    outer loop
      vertex 5 3 0
      vertex 134.4 3 0
      vertex 134.782 1.82443 0
    endloop
  endfacet
  facet normal 0 0 -1
    outer loop
      vertex 135.782 4.90211 0
      vertex 84.7135 60.7183 0
      vertex 85 61.6 0
    endloop
  endfacet
  facet normal 0 0 -1
    outer loop
      vertex 134.782 4.17557 0
      vertex 83.9635 60.1734 0
      vertex 84.7135 60.7183 0
    endloop
  endfacet
  facet normal 0 0 -1
    outer loop
      vertex 134.4 3 0
      vertex 83.0365 60.1734 0
      vertex 83.9635 60.1734 0
    endloop
  endfacet
  facet normal 0 0 -1
    outer loop
      vertex 134.4 3 0
      vertex 56.9635 60.1734 0
      vertex 83.0365 60.1734 0
    endloop
  endfacet
  facet normal 0 0 -1
    outer loop
      vertex 82.2865 62.4817 0
      vertex 57.7135 62.4817 0
      vertex 82.2865 81.6183 0
    endloop
  endfacet
  facet normal 0 0 -1
    outer loop
      vertex 82.2865 60.7183 0
      vertex 58 61.6 0
      vertex 82 61.6 0
    endloop
  endfacet
  facet normal 0 0 -1
    outer loop
      vertex 83.0365 60.1734 0
      vertex 56.9635 60.1734 0
      vertex 82.2865 60.7183 0
    endloop
  endfacet
  facet normal 0 0 -1
    outer loop
      vertex 82.2865 60.7183 0
      vertex 57.7135 60.7183 0
      vertex 58 61.6 0
    endloop
  endfacet
  facet normal -0 0 -1
    outer loop
      vertex 82.2865 60.7183 0
      vertex 56.9635 60.1734 0
      vertex 57.7135 60.7183 0
    endloop
  endfacet
  facet normal 0 0 -1
    outer loop
      vertex 134.4 3 0
      vertex 5 3 0
      vertex 56.9635 60.1734 0
    endloop
  endfacet
  facet normal -0 0 -1
    outer loop
      vertex 56.9635 60.1734 0
      vertex 5 3 0
      vertex 56.0365 60.1734 0
    endloop
  endfacet
  facet normal 0 0 -1
    outer loop
      vertex 3.61803 4.90211 0
      vertex 55.2865 60.7183 0
      vertex 4.61803 4.17557 0
    endloop
  endfacet
  facet normal -0 0 -1
    outer loop
      vertex 56.0365 60.1734 0
      vertex 4.61803 4.17557 0
      vertex 55.2865 60.7183 0
    endloop
  endfacet
  facet normal 0 0 -1
    outer loop
      vertex 4.61803 4.17557 0
      vertex 56.0365 60.1734 0
      vertex 5 3 0
    endloop
  endfacet
  facet normal 0 0 -1
    outer loop
      vertex 4.61803 1.82443 0
      vertex 134.782 1.82443 0
      vertex 135.782 1.09789 0
    endloop
  endfacet
  facet normal 0 0 -1
    outer loop
      vertex 3.61803 1.09789 0
      vertex 135.782 1.09789 0
      vertex 139.4 0 0
    endloop
  endfacet
  facet normal 0 0 -1
    outer loop
      vertex 134.782 1.82443 0
      vertex 4.61803 1.82443 0
      vertex 5 3 0
    endloop
  endfacet
  facet normal 0 0 -1
    outer loop
      vertex 135.782 1.09789 0
      vertex 3.61803 1.09789 0
      vertex 4.61803 1.82443 0
    endloop
  endfacet
  facet normal 0 0 -1
    outer loop
      vertex 0 0 0
      vertex 3.61803 1.09789 0
      vertex 139.4 0 0
    endloop
  endfacet
  facet normal -0 0 -1
    outer loop
      vertex 1 3 0
      vertex 0 0 0
      vertex 1 94.5 0
    endloop
  endfacet
  facet normal -0 0 -1
    outer loop
      vertex 1.38197 1.82443 0
      vertex 0 0 0
      vertex 1 3 0
    endloop
  endfacet
  facet normal -0 0 -1
    outer loop
      vertex 2.38197 1.09789 0
      vertex 0 0 0
      vertex 1.38197 1.82443 0
    endloop
  endfacet
  facet normal -0 0 -1
    outer loop
      vertex 3.61803 1.09789 0
      vertex 0 0 0
      vertex 2.38197 1.09789 0
    endloop
  endfacet
  facet normal 0 0 -1
    outer loop
      vertex 138.4 94.5 0
      vertex 139.4 97.5 0
      vertex 138.4 3 0
    endloop
  endfacet
  facet normal 0 0 -1
    outer loop
      vertex 138.018 95.6756 0
      vertex 139.4 97.5 0
      vertex 138.4 94.5 0
    endloop
  endfacet
  facet normal 0 0 -1
    outer loop
      vertex 137.018 96.4021 0
      vertex 139.4 97.5 0
      vertex 138.018 95.6756 0
    endloop
  endfacet
  facet normal 0 0 -1
    outer loop
      vertex 135.782 96.4021 0
      vertex 139.4 97.5 0
      vertex 137.018 96.4021 0
    endloop
  endfacet
  facet normal -0 0 -1
    outer loop
      vertex 134.782 93.3244 0
      vertex 85 82.5 0
      vertex 134.4 94.5 0
    endloop
  endfacet
  facet normal 0 0 -1
    outer loop
      vertex 84.7135 83.3817 0
      vertex 134.4 94.5 0
      vertex 85 82.5 0
    endloop
  endfacet
  facet normal -0 0 -1
    outer loop
      vertex 134.4 94.5 0
      vertex 84.7135 83.3817 0
      vertex 134.782 95.6756 0
    endloop
  endfacet
  facet normal 0 0 -1
    outer loop
      vertex 83.9635 83.9266 0
      vertex 134.782 95.6756 0
      vertex 84.7135 83.3817 0
    endloop
  endfacet
  facet normal -0 0 -1
    outer loop
      vertex 134.782 95.6756 0
      vertex 83.9635 83.9266 0
      vertex 135.782 96.4021 0
    endloop
  endfacet
  facet normal 0 0 -1
    outer loop
      vertex 83.0365 83.9266 0
      vertex 135.782 96.4021 0
      vertex 83.9635 83.9266 0
    endloop
  endfacet
  facet normal 0 0 -1
    outer loop
      vertex 56.9635 83.9266 0
      vertex 135.782 96.4021 0
      vertex 83.0365 83.9266 0
    endloop
  endfacet
  facet normal 0 0 -1
    outer loop
      vertex 82.2865 81.6183 0
      vertex 58 82.5 0
      vertex 82 82.5 0
    endloop
  endfacet
  facet normal 0 0 -1
    outer loop
      vertex 82 82.5 0
      vertex 58 82.5 0
      vertex 82.2865 83.3817 0
    endloop
  endfacet
  facet normal 0 0 -1
    outer loop
      vertex 57.7135 83.3817 0
      vertex 82.2865 83.3817 0
      vertex 58 82.5 0
    endloop
  endfacet
  facet normal 0 0 -1
    outer loop
      vertex 82.2865 83.3817 0
      vertex 57.7135 83.3817 0
      vertex 83.0365 83.9266 0
    endloop
  endfacet
  facet normal 0 0 -1
    outer loop
      vertex 56.9635 83.9266 0
      vertex 83.0365 83.9266 0
      vertex 57.7135 83.3817 0
    endloop
  endfacet
  facet normal 0 0 -1
    outer loop
      vertex 3.61803 96.4021 0
      vertex 135.782 96.4021 0
      vertex 56.9635 83.9266 0
    endloop
  endfacet
  facet normal 0 0 -1
    outer loop
      vertex 3.61803 96.4021 0
      vertex 56.9635 83.9266 0
      vertex 56.0365 83.9266 0
    endloop
  endfacet
  facet normal 0 0 -1
    outer loop
      vertex 55.2865 81.6183 0
      vertex 5 94.5 0
      vertex 55 82.5 0
    endloop
  endfacet
  facet normal 0 0 -1
    outer loop
      vertex 55 82.5 0
      vertex 5 94.5 0
      vertex 55.2865 83.3817 0
    endloop
  endfacet
  facet normal 0 0 -1
    outer loop
      vertex 4.61803 95.6756 0
      vertex 55.2865 83.3817 0
      vertex 5 94.5 0
    endloop
  endfacet
  facet normal 0 0 -1
    outer loop
      vertex 55.2865 83.3817 0
      vertex 4.61803 95.6756 0
      vertex 56.0365 83.9266 0
    endloop
  endfacet
  facet normal 0 0 -1
    outer loop
      vertex 3.61803 96.4021 0
      vertex 56.0365 83.9266 0
      vertex 4.61803 95.6756 0
    endloop
  endfacet
  facet normal 0 0 -1
    outer loop
      vertex 135.782 96.4021 0
      vertex 3.61803 96.4021 0
      vertex 139.4 97.5 0
    endloop
  endfacet
  facet normal 0 0 -1
    outer loop
      vertex 0 97.5 0
      vertex 3.61803 96.4021 0
      vertex 2.38197 96.4021 0
    endloop
  endfacet
  facet normal 0 0 -1
    outer loop
      vertex 3.61803 96.4021 0
      vertex 0 97.5 0
      vertex 139.4 97.5 0
    endloop
  endfacet
  facet normal 0 0 -1
    outer loop
      vertex 1.38197 95.6756 0
      vertex 0 97.5 0
      vertex 2.38197 96.4021 0
    endloop
  endfacet
  facet normal 0 0 -1
    outer loop
      vertex 1 94.5 0
      vertex 0 97.5 0
      vertex 1.38197 95.6756 0
    endloop
  endfacet
  facet normal 0 0 -1
    outer loop
      vertex 0 97.5 0
      vertex 1 94.5 0
      vertex 0 0 0
    endloop
  endfacet
  facet normal 0 -1 0
    outer loop
      vertex 0 0 0
      vertex 139.4 0 8.5
      vertex 0 0 8.5
    endloop
  endfacet
  facet normal 0 -1 -0
    outer loop
      vertex 139.4 0 8.5
      vertex 0 0 0
      vertex 139.4 0 0
    endloop
  endfacet
  facet normal -0.951056 -0.309017 0
    outer loop
      vertex 5 3 0
      vertex 4.61803 4.17557 8.5
      vertex 4.61803 4.17557 0
    endloop
  endfacet
  facet normal -0.951056 -0.309017 0
    outer loop
      vertex 4.61803 4.17557 8.5
      vertex 5 3 0
      vertex 5 3 8.5
    endloop
  endfacet
  facet normal -0.587785 0.809017 0
    outer loop
      vertex 4.61803 1.82443 0
      vertex 3.61803 1.09789 8.5
      vertex 4.61803 1.82443 8.5
    endloop
  endfacet
  facet normal -0.587785 0.809017 0
    outer loop
      vertex 3.61803 1.09789 8.5
      vertex 4.61803 1.82443 0
      vertex 3.61803 1.09789 0
    endloop
  endfacet
  facet normal 0.587785 -0.809017 0
    outer loop
      vertex 1.38197 4.17557 0
      vertex 2.38197 4.90211 8.5
      vertex 1.38197 4.17557 8.5
    endloop
  endfacet
  facet normal 0.587785 -0.809017 0
    outer loop
      vertex 2.38197 4.90211 8.5
      vertex 1.38197 4.17557 0
      vertex 2.38197 4.90211 0
    endloop
  endfacet
  facet normal -0.587785 -0.809017 0
    outer loop
      vertex 3.61803 4.90211 0
      vertex 4.61803 4.17557 8.5
      vertex 3.61803 4.90211 8.5
    endloop
  endfacet
  facet normal -0.587785 -0.809017 -0
    outer loop
      vertex 4.61803 4.17557 8.5
      vertex 3.61803 4.90211 0
      vertex 4.61803 4.17557 0
    endloop
  endfacet
  facet normal 0.951057 -0.309017 0
    outer loop
      vertex 1 3 8.5
      vertex 1.38197 4.17557 0
      vertex 1.38197 4.17557 8.5
    endloop
  endfacet
  facet normal 0.951057 -0.309017 0
    outer loop
      vertex 1.38197 4.17557 0
      vertex 1 3 8.5
      vertex 1 3 0
    endloop
  endfacet
  facet normal 0 -1 0
    outer loop
      vertex 2.38197 4.90211 0
      vertex 3.61803 4.90211 8.5
      vertex 2.38197 4.90211 8.5
    endloop
  endfacet
  facet normal 0 -1 -0
    outer loop
      vertex 3.61803 4.90211 8.5
      vertex 2.38197 4.90211 0
      vertex 3.61803 4.90211 0
    endloop
  endfacet
  facet normal 0.951057 0.309016 0
    outer loop
      vertex 1.38197 1.82443 8.5
      vertex 1 3 0
      vertex 1 3 8.5
    endloop
  endfacet
  facet normal 0.951057 0.309016 0
    outer loop
      vertex 1 3 0
      vertex 1.38197 1.82443 8.5
      vertex 1.38197 1.82443 0
    endloop
  endfacet
  facet normal 0.587785 0.809017 -0
    outer loop
      vertex 2.38197 1.09789 0
      vertex 1.38197 1.82443 8.5
      vertex 2.38197 1.09789 8.5
    endloop
  endfacet
  facet normal 0.587785 0.809017 0
    outer loop
      vertex 1.38197 1.82443 8.5
      vertex 2.38197 1.09789 0
      vertex 1.38197 1.82443 0
    endloop
  endfacet
  facet normal -0.951056 0.309017 0
    outer loop
      vertex 4.61803 1.82443 0
      vertex 5 3 8.5
      vertex 5 3 0
    endloop
  endfacet
  facet normal -0.951056 0.309017 0
    outer loop
      vertex 5 3 8.5
      vertex 4.61803 1.82443 0
      vertex 4.61803 1.82443 8.5
    endloop
  endfacet
  facet normal 0 1 -0
    outer loop
      vertex 3.61803 1.09789 0
      vertex 2.38197 1.09789 8.5
      vertex 3.61803 1.09789 8.5
    endloop
  endfacet
  facet normal 0 1 0
    outer loop
      vertex 2.38197 1.09789 8.5
      vertex 3.61803 1.09789 0
      vertex 2.38197 1.09789 0
    endloop
  endfacet
  facet normal -0.951056 -0.309018 0
    outer loop
      vertex 5 94.5 0
      vertex 4.61803 95.6756 8.5
      vertex 4.61803 95.6756 0
    endloop
  endfacet
  facet normal -0.951056 -0.309018 0
    outer loop
      vertex 4.61803 95.6756 8.5
      vertex 5 94.5 0
      vertex 5 94.5 8.5
    endloop
  endfacet
  facet normal -0.587788 0.809015 0
    outer loop
      vertex 4.61803 93.3244 0
      vertex 3.61803 92.5979 8.5
      vertex 4.61803 93.3244 8.5
    endloop
  endfacet
  facet normal -0.587788 0.809015 0
    outer loop
      vertex 3.61803 92.5979 8.5
      vertex 4.61803 93.3244 0
      vertex 3.61803 92.5979 0
    endloop
  endfacet
  facet normal 0.587788 -0.809015 0
    outer loop
      vertex 1.38197 95.6756 0
      vertex 2.38197 96.4021 8.5
      vertex 1.38197 95.6756 8.5
    endloop
  endfacet
  facet normal 0.587788 -0.809015 0
    outer loop
      vertex 2.38197 96.4021 8.5
      vertex 1.38197 95.6756 0
      vertex 2.38197 96.4021 0
    endloop
  endfacet
  facet normal -0.587788 -0.809015 0
    outer loop
      vertex 3.61803 96.4021 0
      vertex 4.61803 95.6756 8.5
      vertex 3.61803 96.4021 8.5
    endloop
  endfacet
  facet normal -0.587788 -0.809015 -0
    outer loop
      vertex 4.61803 95.6756 8.5
      vertex 3.61803 96.4021 0
      vertex 4.61803 95.6756 0
    endloop
  endfacet
  facet normal 0.951056 -0.309017 0
    outer loop
      vertex 1 94.5 8.5
      vertex 1.38197 95.6756 0
      vertex 1.38197 95.6756 8.5
    endloop
  endfacet
  facet normal 0.951056 -0.309017 0
    outer loop
      vertex 1.38197 95.6756 0
      vertex 1 94.5 8.5
      vertex 1 94.5 0
    endloop
  endfacet
  facet normal -0.951056 0.309018 0
    outer loop
      vertex 4.61803 93.3244 0
      vertex 5 94.5 8.5
      vertex 5 94.5 0
    endloop
  endfacet
  facet normal -0.951056 0.309018 0
    outer loop
      vertex 5 94.5 8.5
      vertex 4.61803 93.3244 0
      vertex 4.61803 93.3244 8.5
    endloop
  endfacet
  facet normal 0 -1 0
    outer loop
      vertex 2.38197 96.4021 0
      vertex 3.61803 96.4021 8.5
      vertex 2.38197 96.4021 8.5
    endloop
  endfacet
  facet normal 0 -1 -0
    outer loop
      vertex 3.61803 96.4021 8.5
      vertex 2.38197 96.4021 0
      vertex 3.61803 96.4021 0
    endloop
  endfacet
  facet normal 0.951056 0.309017 0
    outer loop
      vertex 1.38197 93.3244 8.5
      vertex 1 94.5 0
      vertex 1 94.5 8.5
    endloop
  endfacet
  facet normal 0.951056 0.309017 0
    outer loop
      vertex 1 94.5 0
      vertex 1.38197 93.3244 8.5
      vertex 1.38197 93.3244 0
    endloop
  endfacet
  facet normal 0.587788 0.809015 -0
    outer loop
      vertex 2.38197 92.5979 0
      vertex 1.38197 93.3244 8.5
      vertex 2.38197 92.5979 8.5
    endloop
  endfacet
  facet normal 0.587788 0.809015 0
    outer loop
      vertex 1.38197 93.3244 8.5
      vertex 2.38197 92.5979 0
      vertex 1.38197 93.3244 0
    endloop
  endfacet
  facet normal 0 1 -0
    outer loop
      vertex 3.61803 92.5979 0
      vertex 2.38197 92.5979 8.5
      vertex 3.61803 92.5979 8.5
    endloop
  endfacet
  facet normal 0 1 0
    outer loop
      vertex 2.38197 92.5979 8.5
      vertex 3.61803 92.5979 0
      vertex 2.38197 92.5979 0
    endloop
  endfacet
  facet normal -0.951058 -0.309012 0
    outer loop
      vertex 138.4 94.5 0
      vertex 138.018 95.6756 8.5
      vertex 138.018 95.6756 0
    endloop
  endfacet
  facet normal -0.951058 -0.309012 0
    outer loop
      vertex 138.018 95.6756 8.5
      vertex 138.4 94.5 0
      vertex 138.4 94.5 8.5
    endloop
  endfacet
  facet normal -0.587788 0.809015 0
    outer loop
      vertex 138.018 93.3244 0
      vertex 137.018 92.5979 8.5
      vertex 138.018 93.3244 8.5
    endloop
  endfacet
  facet normal -0.587788 0.809015 0
    outer loop
      vertex 137.018 92.5979 8.5
      vertex 138.018 93.3244 0
      vertex 137.018 92.5979 0
    endloop
  endfacet
  facet normal 0.587788 -0.809015 0
    outer loop
      vertex 134.782 95.6756 0
      vertex 135.782 96.4021 8.5
      vertex 134.782 95.6756 8.5
    endloop
  endfacet
  facet normal 0.587788 -0.809015 0
    outer loop
      vertex 135.782 96.4021 8.5
      vertex 134.782 95.6756 0
      vertex 135.782 96.4021 0
    endloop
  endfacet
  facet normal -0.587788 -0.809015 0
    outer loop
      vertex 137.018 96.4021 0
      vertex 138.018 95.6756 8.5
      vertex 137.018 96.4021 8.5
    endloop
  endfacet
  facet normal -0.587788 -0.809015 -0
    outer loop
      vertex 138.018 95.6756 8.5
      vertex 137.018 96.4021 0
      vertex 138.018 95.6756 0
    endloop
  endfacet
  facet normal 0.951055 -0.309023 0
    outer loop
      vertex 134.4 94.5 8.5
      vertex 134.782 95.6756 0
      vertex 134.782 95.6756 8.5
    endloop
  endfacet
  facet normal 0.951055 -0.309023 0
    outer loop
      vertex 134.782 95.6756 0
      vertex 134.4 94.5 8.5
      vertex 134.4 94.5 0
    endloop
  endfacet
  facet normal -0.951058 0.309012 0
    outer loop
      vertex 138.018 93.3244 0
      vertex 138.4 94.5 8.5
      vertex 138.4 94.5 0
    endloop
  endfacet
  facet normal -0.951058 0.309012 0
    outer loop
      vertex 138.4 94.5 8.5
      vertex 138.018 93.3244 0
      vertex 138.018 93.3244 8.5
    endloop
  endfacet
  facet normal 0 -1 0
    outer loop
      vertex 135.782 96.4021 0
      vertex 137.018 96.4021 8.5
      vertex 135.782 96.4021 8.5
    endloop
  endfacet
  facet normal 0 -1 -0
    outer loop
      vertex 137.018 96.4021 8.5
      vertex 135.782 96.4021 0
      vertex 137.018 96.4021 0
    endloop
  endfacet
  facet normal 0.951055 0.309023 0
    outer loop
      vertex 134.782 93.3244 8.5
      vertex 134.4 94.5 0
      vertex 134.4 94.5 8.5
    endloop
  endfacet
  facet normal 0.951055 0.309023 0
    outer loop
      vertex 134.4 94.5 0
      vertex 134.782 93.3244 8.5
      vertex 134.782 93.3244 0
    endloop
  endfacet
  facet normal 0.587788 0.809015 -0
    outer loop
      vertex 135.782 92.5979 0
      vertex 134.782 93.3244 8.5
      vertex 135.782 92.5979 8.5
    endloop
  endfacet
  facet normal 0.587788 0.809015 0
    outer loop
      vertex 134.782 93.3244 8.5
      vertex 135.782 92.5979 0
      vertex 134.782 93.3244 0
    endloop
  endfacet
  facet normal 0 1 -0
    outer loop
      vertex 137.018 92.5979 0
      vertex 135.782 92.5979 8.5
      vertex 137.018 92.5979 8.5
    endloop
  endfacet
  facet normal 0 1 0
    outer loop
      vertex 135.782 92.5979 8.5
      vertex 137.018 92.5979 0
      vertex 135.782 92.5979 0
    endloop
  endfacet
  facet normal -0.951058 -0.309011 0
    outer loop
      vertex 138.4 3 0
      vertex 138.018 4.17557 8.5
      vertex 138.018 4.17557 0
    endloop
  endfacet
  facet normal -0.951058 -0.309011 0
    outer loop
      vertex 138.018 4.17557 8.5
      vertex 138.4 3 0
      vertex 138.4 3 8.5
    endloop
  endfacet
  facet normal -0.587785 0.809017 0
    outer loop
      vertex 138.018 1.82443 0
      vertex 137.018 1.09789 8.5
      vertex 138.018 1.82443 8.5
    endloop
  endfacet
  facet normal -0.587785 0.809017 0
    outer loop
      vertex 137.018 1.09789 8.5
      vertex 138.018 1.82443 0
      vertex 137.018 1.09789 0
    endloop
  endfacet
  facet normal 0.587785 -0.809017 0
    outer loop
      vertex 134.782 4.17557 0
      vertex 135.782 4.90211 8.5
      vertex 134.782 4.17557 8.5
    endloop
  endfacet
  facet normal 0.587785 -0.809017 0
    outer loop
      vertex 135.782 4.90211 8.5
      vertex 134.782 4.17557 0
      vertex 135.782 4.90211 0
    endloop
  endfacet
  facet normal -0.587785 -0.809017 0
    outer loop
      vertex 137.018 4.90211 0
      vertex 138.018 4.17557 8.5
      vertex 137.018 4.90211 8.5
    endloop
  endfacet
  facet normal -0.587785 -0.809017 -0
    outer loop
      vertex 138.018 4.17557 8.5
      vertex 137.018 4.90211 0
      vertex 138.018 4.17557 0
    endloop
  endfacet
  facet normal 0.951055 -0.309022 0
    outer loop
      vertex 134.4 3 8.5
      vertex 134.782 4.17557 0
      vertex 134.782 4.17557 8.5
    endloop
  endfacet
  facet normal 0.951055 -0.309022 0
    outer loop
      vertex 134.782 4.17557 0
      vertex 134.4 3 8.5
      vertex 134.4 3 0
    endloop
  endfacet
  facet normal -0.951058 0.309011 0
    outer loop
      vertex 138.018 1.82443 0
      vertex 138.4 3 8.5
      vertex 138.4 3 0
    endloop
  endfacet
  facet normal -0.951058 0.309011 0
    outer loop
      vertex 138.4 3 8.5
      vertex 138.018 1.82443 0
      vertex 138.018 1.82443 8.5
    endloop
  endfacet
  facet normal 0 -1 0
    outer loop
      vertex 135.782 4.90211 0
      vertex 137.018 4.90211 8.5
      vertex 135.782 4.90211 8.5
    endloop
  endfacet
  facet normal 0 -1 -0
    outer loop
      vertex 137.018 4.90211 8.5
      vertex 135.782 4.90211 0
      vertex 137.018 4.90211 0
    endloop
  endfacet
  facet normal 0.951055 0.309022 0
    outer loop
      vertex 134.782 1.82443 8.5
      vertex 134.4 3 0
      vertex 134.4 3 8.5
    endloop
  endfacet
  facet normal 0.951055 0.309022 0
    outer loop
      vertex 134.4 3 0
      vertex 134.782 1.82443 8.5
      vertex 134.782 1.82443 0
    endloop
  endfacet
  facet normal 0 1 -0
    outer loop
      vertex 137.018 1.09789 0
      vertex 135.782 1.09789 8.5
      vertex 137.018 1.09789 8.5
    endloop
  endfacet
  facet normal 0 1 0
    outer loop
      vertex 135.782 1.09789 8.5
      vertex 137.018 1.09789 0
      vertex 135.782 1.09789 0
    endloop
  endfacet
  facet normal 0.587785 0.809017 -0
    outer loop
      vertex 135.782 1.09789 0
      vertex 134.782 1.82443 8.5
      vertex 135.782 1.09789 8.5
    endloop
  endfacet
  facet normal 0.587785 0.809017 0
    outer loop
      vertex 134.782 1.82443 8.5
      vertex 135.782 1.09789 0
      vertex 134.782 1.82443 0
    endloop
  endfacet
  facet normal 1 -0 0
    outer loop
      vertex 2.25 6 8.5
      vertex 2.25 91.5 2
      vertex 2.25 91.5 8.5
    endloop
  endfacet
  facet normal 1 0 0
    outer loop
      vertex 2.25 91.5 2
      vertex 2.25 6 8.5
      vertex 2.25 6 2
    endloop
  endfacet
  facet normal -1 0 0
    outer loop
      vertex 137.15 6 2
      vertex 137.15 91.5 8.5
      vertex 137.15 91.5 2
    endloop
  endfacet
  facet normal -1 -0 0
    outer loop
      vertex 137.15 91.5 8.5
      vertex 137.15 6 2
      vertex 137.15 6 8.5
    endloop
  endfacet
  facet normal 0 0 1
    outer loop
      vertex 6.5 91.5 2
      vertex 53 95.25 2
      vertex 6.5 95.25 2
    endloop
  endfacet
  facet normal -0 0 1
    outer loop
      vertex 87 95.25 2
      vertex 133.9 91.5 2
      vertex 133.9 95.25 2
    endloop
  endfacet
  facet normal 0 0 1
    outer loop
      vertex 133.9 91.5 2
      vertex 87 46.5 2
      vertex 133.9 6 2
    endloop
  endfacet
  facet normal 0 0 1
    outer loop
      vertex 133.9 91.5 2
      vertex 87 95.25 2
      vertex 87 46.5 2
    endloop
  endfacet
  facet normal 0 0 1
    outer loop
      vertex 133.9 6 2
      vertex 87 46.5 2
      vertex 133.9 2.25 2
    endloop
  endfacet
  facet normal -0 0 1
    outer loop
      vertex 53 46.5 2
      vertex 133.9 2.25 2
      vertex 87 46.5 2
    endloop
  endfacet
  facet normal 0 0 1
    outer loop
      vertex 53 95.25 2
      vertex 6.5 91.5 2
      vertex 53 46.5 2
    endloop
  endfacet
  facet normal 0 0 1
    outer loop
      vertex 6.5 6 2
      vertex 53 46.5 2
      vertex 6.5 91.5 2
    endloop
  endfacet
  facet normal 0 0 1
    outer loop
      vertex 6.5 2.25 2
      vertex 53 46.5 2
      vertex 6.5 6 2
    endloop
  endfacet
  facet normal 0 0 1
    outer loop
      vertex 53 46.5 2
      vertex 6.5 2.25 2
      vertex 133.9 2.25 2
    endloop
  endfacet
  facet normal -0 0 1
    outer loop
      vertex 133.9 91.5 2
      vertex 137.15 6 2
      vertex 137.15 91.5 2
    endloop
  endfacet
  facet normal 0 0 1
    outer loop
      vertex 137.15 6 2
      vertex 133.9 91.5 2
      vertex 133.9 6 2
    endloop
  endfacet
  facet normal -0 0 1
    outer loop
      vertex 2.25 91.5 2
      vertex 6.5 6 2
      vertex 6.5 91.5 2
    endloop
  endfacet
  facet normal 0 0 1
    outer loop
      vertex 6.5 6 2
      vertex 2.25 91.5 2
      vertex 2.25 6 2
    endloop
  endfacet
  facet normal 0 1 -0
    outer loop
      vertex 6.5 6 2
      vertex 2.25 6 8.5
      vertex 6.5 6 8.5
    endloop
  endfacet
  facet normal 0 1 0
    outer loop
      vertex 2.25 6 8.5
      vertex 6.5 6 2
      vertex 2.25 6 2
    endloop
  endfacet
  facet normal 0 1 -0
    outer loop
      vertex 137.15 6 2
      vertex 133.9 6 8.5
      vertex 137.15 6 8.5
    endloop
  endfacet
  facet normal 0 1 0
    outer loop
      vertex 133.9 6 8.5
      vertex 137.15 6 2
      vertex 133.9 6 2
    endloop
  endfacet
  facet normal 0 -1 0
    outer loop
      vertex 2.25 91.5 2
      vertex 6.5 91.5 8.5
      vertex 2.25 91.5 8.5
    endloop
  endfacet
  facet normal 0 -1 -0
    outer loop
      vertex 6.5 91.5 8.5
      vertex 2.25 91.5 2
      vertex 6.5 91.5 2
    endloop
  endfacet
  facet normal 0 -1 0
    outer loop
      vertex 133.9 91.5 2
      vertex 137.15 91.5 8.5
      vertex 133.9 91.5 8.5
    endloop
  endfacet
  facet normal 0 -1 -0
    outer loop
      vertex 137.15 91.5 8.5
      vertex 133.9 91.5 2
      vertex 137.15 91.5 2
    endloop
  endfacet
  facet normal 1 -0 0
    outer loop
      vertex 6.5 91.5 8.5
      vertex 6.5 95.25 2
      vertex 6.5 95.25 8.5
    endloop
  endfacet
  facet normal 1 0 0
    outer loop
      vertex 6.5 95.25 2
      vertex 6.5 91.5 8.5
      vertex 6.5 91.5 2
    endloop
  endfacet
  facet normal 1 -0 0
    outer loop
      vertex 6.5 2.25 8.5
      vertex 6.5 6 2
      vertex 6.5 6 8.5
    endloop
  endfacet
  facet normal 1 0 0
    outer loop
      vertex 6.5 6 2
      vertex 6.5 2.25 8.5
      vertex 6.5 2.25 2
    endloop
  endfacet
  facet normal -1 0 0
    outer loop
      vertex 133.9 2.25 2
      vertex 133.9 6 8.5
      vertex 133.9 6 2
    endloop
  endfacet
  facet normal -1 -0 0
    outer loop
      vertex 133.9 6 8.5
      vertex 133.9 2.25 2
      vertex 133.9 2.25 8.5
    endloop
  endfacet
  facet normal -1 0 0
    outer loop
      vertex 133.9 91.5 2
      vertex 133.9 95.25 8.5
      vertex 133.9 95.25 2
    endloop
  endfacet
  facet normal -1 -0 0
    outer loop
      vertex 133.9 95.25 8.5
      vertex 133.9 91.5 2
      vertex 133.9 91.5 8.5
    endloop
  endfacet
  facet normal 0 -1 0
    outer loop
      vertex 6.5 95.25 2
      vertex 53 95.25 8.5
      vertex 6.5 95.25 8.5
    endloop
  endfacet
  facet normal 0 -1 -0
    outer loop
      vertex 53 95.25 8.5
      vertex 6.5 95.25 2
      vertex 53 95.25 2
    endloop
  endfacet
  facet normal 0 -1 0
    outer loop
      vertex 87 95.25 2
      vertex 133.9 95.25 8.5
      vertex 87 95.25 8.5
    endloop
  endfacet
  facet normal 0 -1 -0
    outer loop
      vertex 133.9 95.25 8.5
      vertex 87 95.25 2
      vertex 133.9 95.25 2
    endloop
  endfacet
  facet normal 0 1 -0
    outer loop
      vertex 133.9 2.25 2
      vertex 6.5 2.25 8.5
      vertex 133.9 2.25 8.5
    endloop
  endfacet
  facet normal 0 1 0
    outer loop
      vertex 6.5 2.25 8.5
      vertex 133.9 2.25 2
      vertex 6.5 2.25 2
    endloop
  endfacet
  facet normal 1 0 0
    outer loop
      vertex 53 95.25 2
      vertex 53 97.5 8.5
      vertex 53 95.25 8.5
    endloop
  endfacet
  facet normal 1 0 0
    outer loop
      vertex 53 97.5 8.5
      vertex 53 95.25 2
      vertex 53 97.5 1
    endloop
  endfacet
  facet normal 1 0 0
    outer loop
      vertex 53 46.5 1
      vertex 53 95.25 2
      vertex 53 46.5 2
    endloop
  endfacet
  facet normal 1 0 0
    outer loop
      vertex 53 95.25 2
      vertex 53 46.5 1
      vertex 53 97.5 1
    endloop
  endfacet
  facet normal -1 0 0
    outer loop
      vertex 87 97.5 1
      vertex 87 95.25 2
      vertex 87 97.5 8.5
    endloop
  endfacet
  facet normal -1 0 0
    outer loop
      vertex 87 46.5 1
      vertex 87 95.25 2
      vertex 87 97.5 1
    endloop
  endfacet
  facet normal -1 -0 0
    outer loop
      vertex 87 95.25 2
      vertex 87 46.5 1
      vertex 87 46.5 2
    endloop
  endfacet
  facet normal -1 -0 0
    outer loop
      vertex 87 97.5 8.5
      vertex 87 95.25 2
      vertex 87 95.25 8.5
    endloop
  endfacet
  facet normal 0 0 1
    outer loop
      vertex 57.7135 62.4817 1
      vertex 82.2865 62.4817 1
      vertex 57.7135 81.6183 1
    endloop
  endfacet
  facet normal 0 0 1
    outer loop
      vertex 82.2865 62.4817 1
      vertex 57.7135 62.4817 1
      vertex 58 61.6 1
    endloop
  endfacet
  facet normal -0 0 1
    outer loop
      vertex 56.9635 81.0734 1
      vertex 57.7135 62.4817 1
      vertex 57.7135 81.6183 1
    endloop
  endfacet
  facet normal 0 0 1
    outer loop
      vertex 56.9635 81.0734 1
      vertex 56.9635 63.0266 1
      vertex 57.7135 62.4817 1
    endloop
  endfacet
  facet normal -0 0 1
    outer loop
      vertex 56.0365 81.0734 1
      vertex 56.9635 63.0266 1
      vertex 56.9635 81.0734 1
    endloop
  endfacet
  facet normal 0 0 1
    outer loop
      vertex 56.0365 81.0734 1
      vertex 56.0365 63.0266 1
      vertex 56.9635 63.0266 1
    endloop
  endfacet
  facet normal 0 0 1
    outer loop
      vertex 55.2865 81.6183 1
      vertex 56.0365 63.0266 1
      vertex 56.0365 81.0734 1
    endloop
  endfacet
  facet normal 0 0 1
    outer loop
      vertex 55.2865 81.6183 1
      vertex 55.2865 62.4817 1
      vertex 56.0365 63.0266 1
    endloop
  endfacet
  facet normal 0 0 1
    outer loop
      vertex 55 82.5 1
      vertex 55.2865 62.4817 1
      vertex 55.2865 81.6183 1
    endloop
  endfacet
  facet normal 0 0 1
    outer loop
      vertex 55.2865 62.4817 1
      vertex 55 82.5 1
      vertex 55 61.6 1
    endloop
  endfacet
  facet normal -0 0 1
    outer loop
      vertex 84.7135 81.6183 1
      vertex 85 61.6 1
      vertex 85 82.5 1
    endloop
  endfacet
  facet normal 0 0 1
    outer loop
      vertex 84.7135 81.6183 1
      vertex 84.7135 62.4817 1
      vertex 85 61.6 1
    endloop
  endfacet
  facet normal -0 0 1
    outer loop
      vertex 83.9635 81.0734 1
      vertex 84.7135 62.4817 1
      vertex 84.7135 81.6183 1
    endloop
  endfacet
  facet normal 0 0 1
    outer loop
      vertex 83.9635 81.0734 1
      vertex 83.9635 63.0266 1
      vertex 84.7135 62.4817 1
    endloop
  endfacet
  facet normal -0 0 1
    outer loop
      vertex 83.0365 81.0734 1
      vertex 83.9635 63.0266 1
      vertex 83.9635 81.0734 1
    endloop
  endfacet
  facet normal 0 0 1
    outer loop
      vertex 83.0365 81.0734 1
      vertex 83.0365 63.0266 1
      vertex 83.9635 63.0266 1
    endloop
  endfacet
  facet normal 0 0 1
    outer loop
      vertex 82.2865 81.6183 1
      vertex 83.0365 63.0266 1
      vertex 83.0365 81.0734 1
    endloop
  endfacet
  facet normal 0 0 1
    outer loop
      vertex 82.2865 81.6183 1
      vertex 82.2865 62.4817 1
      vertex 83.0365 63.0266 1
    endloop
  endfacet
  facet normal -0 0 1
    outer loop
      vertex 58 82.5 1
      vertex 82.2865 81.6183 1
      vertex 82 82.5 1
    endloop
  endfacet
  facet normal 0 0 1
    outer loop
      vertex 57.7135 81.6183 1
      vertex 82.2865 81.6183 1
      vertex 58 82.5 1
    endloop
  endfacet
  facet normal 0 0 1
    outer loop
      vertex 87 97.5 1
      vertex 85 82.5 1
      vertex 87 46.5 1
    endloop
  endfacet
  facet normal 0 0 1
    outer loop
      vertex 87 97.5 1
      vertex 84.7135 83.3817 1
      vertex 85 82.5 1
    endloop
  endfacet
  facet normal 0 0 1
    outer loop
      vertex 87 97.5 1
      vertex 83.9635 83.9266 1
      vertex 84.7135 83.3817 1
    endloop
  endfacet
  facet normal 0 0 1
    outer loop
      vertex 87 97.5 1
      vertex 83.0365 83.9266 1
      vertex 83.9635 83.9266 1
    endloop
  endfacet
  facet normal 0 0 1
    outer loop
      vertex 87 97.5 1
      vertex 82.2865 83.3817 1
      vertex 83.0365 83.9266 1
    endloop
  endfacet
  facet normal 0 0 1
    outer loop
      vertex 82.2865 81.6183 1
      vertex 57.7135 81.6183 1
      vertex 82.2865 62.4817 1
    endloop
  endfacet
  facet normal 0 0 1
    outer loop
      vertex 82.2865 83.3817 1
      vertex 58 82.5 1
      vertex 82 82.5 1
    endloop
  endfacet
  facet normal 0 0 1
    outer loop
      vertex 57.7135 83.3817 1
      vertex 82.2865 83.3817 1
      vertex 87 97.5 1
    endloop
  endfacet
  facet normal 0 0 1
    outer loop
      vertex 82.2865 83.3817 1
      vertex 57.7135 83.3817 1
      vertex 58 82.5 1
    endloop
  endfacet
  facet normal -0 0 1
    outer loop
      vertex 53 97.5 1
      vertex 57.7135 83.3817 1
      vertex 87 97.5 1
    endloop
  endfacet
  facet normal 0 0 1
    outer loop
      vertex 57.7135 83.3817 1
      vertex 53 97.5 1
      vertex 56.9635 83.9266 1
    endloop
  endfacet
  facet normal 0 0 1
    outer loop
      vertex 55 82.5 1
      vertex 53 97.5 1
      vertex 55 61.6 1
    endloop
  endfacet
  facet normal 0 0 1
    outer loop
      vertex 55.2865 83.3817 1
      vertex 53 97.5 1
      vertex 55 82.5 1
    endloop
  endfacet
  facet normal 0 0 1
    outer loop
      vertex 56.0365 83.9266 1
      vertex 53 97.5 1
      vertex 55.2865 83.3817 1
    endloop
  endfacet
  facet normal 0 0 1
    outer loop
      vertex 56.9635 83.9266 1
      vertex 53 97.5 1
      vertex 56.0365 83.9266 1
    endloop
  endfacet
  facet normal -0 0 1
    outer loop
      vertex 85 61.6 1
      vertex 87 46.5 1
      vertex 85 82.5 1
    endloop
  endfacet
  facet normal -0 0 1
    outer loop
      vertex 84.7135 60.7183 1
      vertex 87 46.5 1
      vertex 85 61.6 1
    endloop
  endfacet
  facet normal -0 0 1
    outer loop
      vertex 83.9635 60.1734 1
      vertex 87 46.5 1
      vertex 84.7135 60.7183 1
    endloop
  endfacet
  facet normal -0 0 1
    outer loop
      vertex 83.0365 60.1734 1
      vertex 87 46.5 1
      vertex 83.9635 60.1734 1
    endloop
  endfacet
  facet normal 0 0 1
    outer loop
      vertex 82.2865 60.7183 1
      vertex 87 46.5 1
      vertex 83.0365 60.1734 1
    endloop
  endfacet
  facet normal 0 0 1
    outer loop
      vertex 82.2865 62.4817 1
      vertex 58 61.6 1
      vertex 82 61.6 1
    endloop
  endfacet
  facet normal 0 0 1
    outer loop
      vertex 82 61.6 1
      vertex 58 61.6 1
      vertex 82.2865 60.7183 1
    endloop
  endfacet
  facet normal 0 0 1
    outer loop
      vertex 57.7135 60.7183 1
      vertex 82.2865 60.7183 1
      vertex 58 61.6 1
    endloop
  endfacet
  facet normal 0 0 1
    outer loop
      vertex 82.2865 60.7183 1
      vertex 57.7135 60.7183 1
      vertex 87 46.5 1
    endloop
  endfacet
  facet normal 0 0 1
    outer loop
      vertex 53 46.5 1
      vertex 57.7135 60.7183 1
      vertex 56.9635 60.1734 1
    endloop
  endfacet
  facet normal 0 0 1
    outer loop
      vertex 53 46.5 1
      vertex 56.9635 60.1734 1
      vertex 56.0365 60.1734 1
    endloop
  endfacet
  facet normal 0 0 1
    outer loop
      vertex 57.7135 60.7183 1
      vertex 53 46.5 1
      vertex 87 46.5 1
    endloop
  endfacet
  facet normal 0 0 1
    outer loop
      vertex 55.2865 60.7183 1
      vertex 53 46.5 1
      vertex 56.0365 60.1734 1
    endloop
  endfacet
  facet normal 0 0 1
    outer loop
      vertex 55 61.6 1
      vertex 53 46.5 1
      vertex 55.2865 60.7183 1
    endloop
  endfacet
  facet normal 0 0 1
    outer loop
      vertex 53 46.5 1
      vertex 55 61.6 1
      vertex 53 97.5 1
    endloop
  endfacet
  facet normal 0 1 -0
    outer loop
      vertex 87 46.5 1
      vertex 53 46.5 2
      vertex 87 46.5 2
    endloop
  endfacet
  facet normal 0 1 0
    outer loop
      vertex 53 46.5 2
      vertex 87 46.5 1
      vertex 53 46.5 1
    endloop
  endfacet
endsolid OpenSCAD_Model
