solid OpenSCAD_Model
  facet normal 1 -0 0
    outer loop
      vertex 6 5 1
      vertex 6 18 0
      vertex 6 18 1
    endloop
  endfacet
  facet normal 1 0 0
    outer loop
      vertex 6 18 0
      vertex 6 5 1
      vertex 6 5 0
    endloop
  endfacet
  facet normal -1 0 0
    outer loop
      vertex 21.5 5 0
      vertex 21.5 18 1
      vertex 21.5 18 0
    endloop
  endfacet
  facet normal -1 -0 0
    outer loop
      vertex 21.5 18 1
      vertex 21.5 5 0
      vertex 21.5 5 1
    endloop
  endfacet
  facet normal 0 -1 0
    outer loop
      vertex 6 18 0
      vertex 21.5 18 1
      vertex 6 18 1
    endloop
  endfacet
  facet normal 0 -1 -0
    outer loop
      vertex 21.5 18 1
      vertex 6 18 0
      vertex 21.5 18 0
    endloop
  endfacet
  facet normal 0 1 -0
    outer loop
      vertex 21.5 5 0
      vertex 6 5 1
      vertex 21.5 5 1
    endloop
  endfacet
  facet normal 0 1 0
    outer loop
      vertex 6 5 1
      vertex 21.5 5 0
      vertex 6 5 0
    endloop
  endfacet
  facet normal 1 -0 0
    outer loop
      vertex 25 5 1
      vertex 25 18 0
      vertex 25 18 1
    endloop
  endfacet
  facet normal 1 0 0
    outer loop
      vertex 25 18 0
      vertex 25 5 1
      vertex 25 5 0
    endloop
  endfacet
  facet normal -1 0 0
    outer loop
      vertex 40.5 5 0
      vertex 40.5 18 1
      vertex 40.5 18 0
    endloop
  endfacet
  facet normal -1 -0 0
    outer loop
      vertex 40.5 18 1
      vertex 40.5 5 0
      vertex 40.5 5 1
    endloop
  endfacet
  facet normal 0 -1 0
    outer loop
      vertex 25 18 0
      vertex 40.5 18 1
      vertex 25 18 1
    endloop
  endfacet
  facet normal 0 -1 -0
    outer loop
      vertex 40.5 18 1
      vertex 25 18 0
      vertex 40.5 18 0
    endloop
  endfacet
  facet normal 0 1 -0
    outer loop
      vertex 40.5 5 0
      vertex 25 5 1
      vertex 40.5 5 1
    endloop
  endfacet
  facet normal 0 1 0
    outer loop
      vertex 25 5 1
      vertex 40.5 5 0
      vertex 25 5 0
    endloop
  endfacet
  facet normal 1 -0 0
    outer loop
      vertex 44 5 1
      vertex 44 18 0
      vertex 44 18 1
    endloop
  endfacet
  facet normal 1 0 0
    outer loop
      vertex 44 18 0
      vertex 44 5 1
      vertex 44 5 0
    endloop
  endfacet
  facet normal -1 0 0
    outer loop
      vertex 59.5 5 0
      vertex 59.5 18 1
      vertex 59.5 18 0
    endloop
  endfacet
  facet normal -1 -0 0
    outer loop
      vertex 59.5 18 1
      vertex 59.5 5 0
      vertex 59.5 5 1
    endloop
  endfacet
  facet normal 0 -1 0
    outer loop
      vertex 44 18 0
      vertex 59.5 18 1
      vertex 44 18 1
    endloop
  endfacet
  facet normal 0 -1 -0
    outer loop
      vertex 59.5 18 1
      vertex 44 18 0
      vertex 59.5 18 0
    endloop
  endfacet
  facet normal 0 1 -0
    outer loop
      vertex 59.5 5 0
      vertex 44 5 1
      vertex 59.5 5 1
    endloop
  endfacet
  facet normal 0 1 0
    outer loop
      vertex 44 5 1
      vertex 59.5 5 0
      vertex 44 5 0
    endloop
  endfacet
  facet normal 1 -0 0
    outer loop
      vertex 6 24 1
      vertex 6 37 0
      vertex 6 37 1
    endloop
  endfacet
  facet normal 1 0 0
    outer loop
      vertex 6 37 0
      vertex 6 24 1
      vertex 6 24 0
    endloop
  endfacet
  facet normal -1 0 0
    outer loop
      vertex 21.5 24 0
      vertex 21.5 37 1
      vertex 21.5 37 0
    endloop
  endfacet
  facet normal -1 -0 0
    outer loop
      vertex 21.5 37 1
      vertex 21.5 24 0
      vertex 21.5 24 1
    endloop
  endfacet
  facet normal 0 1 -0
    outer loop
      vertex 21.5 24 0
      vertex 6 24 1
      vertex 21.5 24 1
    endloop
  endfacet
  facet normal 0 1 0
    outer loop
      vertex 6 24 1
      vertex 21.5 24 0
      vertex 6 24 0
    endloop
  endfacet
  facet normal 0 -1 0
    outer loop
      vertex 6 37 0
      vertex 21.5 37 1
      vertex 6 37 1
    endloop
  endfacet
  facet normal 0 -1 -0
    outer loop
      vertex 21.5 37 1
      vertex 6 37 0
      vertex 21.5 37 0
    endloop
  endfacet
  facet normal 1 -0 0
    outer loop
      vertex 25 24 1
      vertex 25 37 0
      vertex 25 37 1
    endloop
  endfacet
  facet normal 1 0 0
    outer loop
      vertex 25 37 0
      vertex 25 24 1
      vertex 25 24 0
    endloop
  endfacet
  facet normal -1 0 0
    outer loop
      vertex 40.5 24 0
      vertex 40.5 37 1
      vertex 40.5 37 0
    endloop
  endfacet
  facet normal -1 -0 0
    outer loop
      vertex 40.5 37 1
      vertex 40.5 24 0
      vertex 40.5 24 1
    endloop
  endfacet
  facet normal 0 1 -0
    outer loop
      vertex 40.5 24 0
      vertex 25 24 1
      vertex 40.5 24 1
    endloop
  endfacet
  facet normal 0 1 0
    outer loop
      vertex 25 24 1
      vertex 40.5 24 0
      vertex 25 24 0
    endloop
  endfacet
  facet normal 0 -1 0
    outer loop
      vertex 25 37 0
      vertex 40.5 37 1
      vertex 25 37 1
    endloop
  endfacet
  facet normal 0 -1 -0
    outer loop
      vertex 40.5 37 1
      vertex 25 37 0
      vertex 40.5 37 0
    endloop
  endfacet
  facet normal 1 -0 0
    outer loop
      vertex 44 24 1
      vertex 44 37 0
      vertex 44 37 1
    endloop
  endfacet
  facet normal 1 0 0
    outer loop
      vertex 44 37 0
      vertex 44 24 1
      vertex 44 24 0
    endloop
  endfacet
  facet normal -1 0 0
    outer loop
      vertex 59.5 24 0
      vertex 59.5 37 1
      vertex 59.5 37 0
    endloop
  endfacet
  facet normal -1 -0 0
    outer loop
      vertex 59.5 37 1
      vertex 59.5 24 0
      vertex 59.5 24 1
    endloop
  endfacet
  facet normal 0 -1 0
    outer loop
      vertex 44 37 0
      vertex 59.5 37 1
      vertex 44 37 1
    endloop
  endfacet
  facet normal 0 -1 -0
    outer loop
      vertex 59.5 37 1
      vertex 44 37 0
      vertex 59.5 37 0
    endloop
  endfacet
  facet normal 0 1 -0
    outer loop
      vertex 59.5 24 0
      vertex 44 24 1
      vertex 59.5 24 1
    endloop
  endfacet
  facet normal 0 1 0
    outer loop
      vertex 44 24 1
      vertex 59.5 24 0
      vertex 44 24 0
    endloop
  endfacet
  facet normal 1 -0 0
    outer loop
      vertex 6 43 1
      vertex 6 56 0
      vertex 6 56 1
    endloop
  endfacet
  facet normal 1 0 0
    outer loop
      vertex 6 56 0
      vertex 6 43 1
      vertex 6 43 0
    endloop
  endfacet
  facet normal -1 0 0
    outer loop
      vertex 21.5 43 0
      vertex 21.5 56 1
      vertex 21.5 56 0
    endloop
  endfacet
  facet normal -1 -0 0
    outer loop
      vertex 21.5 56 1
      vertex 21.5 43 0
      vertex 21.5 43 1
    endloop
  endfacet
  facet normal 0 1 -0
    outer loop
      vertex 21.5 43 0
      vertex 6 43 1
      vertex 21.5 43 1
    endloop
  endfacet
  facet normal 0 1 0
    outer loop
      vertex 6 43 1
      vertex 21.5 43 0
      vertex 6 43 0
    endloop
  endfacet
  facet normal 0 -1 0
    outer loop
      vertex 6 56 0
      vertex 21.5 56 1
      vertex 6 56 1
    endloop
  endfacet
  facet normal 0 -1 -0
    outer loop
      vertex 21.5 56 1
      vertex 6 56 0
      vertex 21.5 56 0
    endloop
  endfacet
  facet normal 1 -0 0
    outer loop
      vertex 25 43 1
      vertex 25 56 0
      vertex 25 56 1
    endloop
  endfacet
  facet normal 1 0 0
    outer loop
      vertex 25 56 0
      vertex 25 43 1
      vertex 25 43 0
    endloop
  endfacet
  facet normal -1 0 0
    outer loop
      vertex 40.5 43 0
      vertex 40.5 56 1
      vertex 40.5 56 0
    endloop
  endfacet
  facet normal -1 -0 0
    outer loop
      vertex 40.5 56 1
      vertex 40.5 43 0
      vertex 40.5 43 1
    endloop
  endfacet
  facet normal 0 1 -0
    outer loop
      vertex 40.5 43 0
      vertex 25 43 1
      vertex 40.5 43 1
    endloop
  endfacet
  facet normal 0 1 0
    outer loop
      vertex 25 43 1
      vertex 40.5 43 0
      vertex 25 43 0
    endloop
  endfacet
  facet normal 0 -1 0
    outer loop
      vertex 25 56 0
      vertex 40.5 56 1
      vertex 25 56 1
    endloop
  endfacet
  facet normal 0 -1 -0
    outer loop
      vertex 40.5 56 1
      vertex 25 56 0
      vertex 40.5 56 0
    endloop
  endfacet
  facet normal 1 -0 0
    outer loop
      vertex 44 43 1
      vertex 44 56 0
      vertex 44 56 1
    endloop
  endfacet
  facet normal 1 0 0
    outer loop
      vertex 44 56 0
      vertex 44 43 1
      vertex 44 43 0
    endloop
  endfacet
  facet normal -1 0 0
    outer loop
      vertex 59.5 43 0
      vertex 59.5 56 1
      vertex 59.5 56 0
    endloop
  endfacet
  facet normal -1 -0 0
    outer loop
      vertex 59.5 56 1
      vertex 59.5 43 0
      vertex 59.5 43 1
    endloop
  endfacet
  facet normal 0 -1 0
    outer loop
      vertex 44 56 0
      vertex 59.5 56 1
      vertex 44 56 1
    endloop
  endfacet
  facet normal 0 -1 -0
    outer loop
      vertex 59.5 56 1
      vertex 44 56 0
      vertex 59.5 56 0
    endloop
  endfacet
  facet normal 0 1 -0
    outer loop
      vertex 59.5 43 0
      vertex 44 43 1
      vertex 59.5 43 1
    endloop
  endfacet
  facet normal 0 1 0
    outer loop
      vertex 44 43 1
      vertex 59.5 43 0
      vertex 44 43 0
    endloop
  endfacet
  facet normal -1 0 0
    outer loop
      vertex 0 0 0
      vertex 0 61.5 1
      vertex 0 61.5 0
    endloop
  endfacet
  facet normal -1 -0 0
    outer loop
      vertex 0 61.5 1
      vertex 0 0 0
      vertex 0 0 1
    endloop
  endfacet
  facet normal 0 0 1
    outer loop
      vertex 22.625 20.2 1
      vertex 21.5 18 1
      vertex 22.625 3.1 1
    endloop
  endfacet
  facet normal 0 0 1
    outer loop
      vertex 22.625 20.2 1
      vertex 6 18 1
      vertex 21.5 18 1
    endloop
  endfacet
  facet normal 0 0 1
    outer loop
      vertex 6 18 1
      vertex 4.1 20.2 1
      vertex 6 5 1
    endloop
  endfacet
  facet normal -0 0 1
    outer loop
      vertex 4.1 20.2 1
      vertex 6 18 1
      vertex 22.625 20.2 1
    endloop
  endfacet
  facet normal -0 0 1
    outer loop
      vertex 21.5 43 1
      vertex 22.625 41.2 1
      vertex 21.5 56 1
    endloop
  endfacet
  facet normal -0 0 1
    outer loop
      vertex 6 43 1
      vertex 22.625 41.2 1
      vertex 21.5 43 1
    endloop
  endfacet
  facet normal 0 0 1
    outer loop
      vertex 22.625 41.2 1
      vertex 6 43 1
      vertex 4.1 41.2 1
    endloop
  endfacet
  facet normal 0 0 1
    outer loop
      vertex 22.625 39.2 1
      vertex 21.5 37 1
      vertex 22.625 22.2 1
    endloop
  endfacet
  facet normal 0 0 1
    outer loop
      vertex 22.625 39.2 1
      vertex 6 37 1
      vertex 21.5 37 1
    endloop
  endfacet
  facet normal 0 0 1
    outer loop
      vertex 4.1 22.2 1
      vertex 6 37 1
      vertex 4.1 39.2 1
    endloop
  endfacet
  facet normal -0 0 1
    outer loop
      vertex 4.1 39.2 1
      vertex 6 37 1
      vertex 22.625 39.2 1
    endloop
  endfacet
  facet normal -0 0 1
    outer loop
      vertex 21.5 24 1
      vertex 22.625 22.2 1
      vertex 21.5 37 1
    endloop
  endfacet
  facet normal -0 0 1
    outer loop
      vertex 6 24 1
      vertex 22.625 22.2 1
      vertex 21.5 24 1
    endloop
  endfacet
  facet normal 0 0 1
    outer loop
      vertex 6 24 1
      vertex 4.1 22.2 1
      vertex 22.625 22.2 1
    endloop
  endfacet
  facet normal 0 0 1
    outer loop
      vertex 6 37 1
      vertex 4.1 22.2 1
      vertex 6 24 1
    endloop
  endfacet
  facet normal 0 0 1
    outer loop
      vertex 41.625 20.2 1
      vertex 40.5 18 1
      vertex 41.625 3.1 1
    endloop
  endfacet
  facet normal -0 0 1
    outer loop
      vertex 24.125 20.2 1
      vertex 40.5 18 1
      vertex 41.625 20.2 1
    endloop
  endfacet
  facet normal 0 0 1
    outer loop
      vertex 24.125 3.1 1
      vertex 25 18 1
      vertex 24.125 20.2 1
    endloop
  endfacet
  facet normal 0 0 1
    outer loop
      vertex 40.5 18 1
      vertex 24.125 20.2 1
      vertex 25 18 1
    endloop
  endfacet
  facet normal -0 0 1
    outer loop
      vertex 40.5 43 1
      vertex 41.625 41.2 1
      vertex 40.5 56 1
    endloop
  endfacet
  facet normal 0 0 1
    outer loop
      vertex 24.125 41.2 1
      vertex 40.5 43 1
      vertex 25 43 1
    endloop
  endfacet
  facet normal 0 0 1
    outer loop
      vertex 40.5 43 1
      vertex 24.125 41.2 1
      vertex 41.625 41.2 1
    endloop
  endfacet
  facet normal 0 0 1
    outer loop
      vertex 25 56 1
      vertex 24.125 41.2 1
      vertex 25 43 1
    endloop
  endfacet
  facet normal -0 0 1
    outer loop
      vertex 43.125 20.2 1
      vertex 59.5 18 1
      vertex 60.6 20.2 1
    endloop
  endfacet
  facet normal 0 0 1
    outer loop
      vertex 43.125 3.1 1
      vertex 44 18 1
      vertex 43.125 20.2 1
    endloop
  endfacet
  facet normal 0 0 1
    outer loop
      vertex 59.5 18 1
      vertex 43.125 20.2 1
      vertex 44 18 1
    endloop
  endfacet
  facet normal 0 0 1
    outer loop
      vertex 60.6 39.2 1
      vertex 59.5 37 1
      vertex 60.6 22.2 1
    endloop
  endfacet
  facet normal -0 0 1
    outer loop
      vertex 43.125 39.2 1
      vertex 59.5 37 1
      vertex 60.6 39.2 1
    endloop
  endfacet
  facet normal 0 0 1
    outer loop
      vertex 43.125 22.2 1
      vertex 44 37 1
      vertex 43.125 39.2 1
    endloop
  endfacet
  facet normal 0 0 1
    outer loop
      vertex 59.5 37 1
      vertex 43.125 39.2 1
      vertex 44 37 1
    endloop
  endfacet
  facet normal 0 0 1
    outer loop
      vertex 60.6 39.2 1
      vertex 65.5 61.5 1
      vertex 60.6 41.2 1
    endloop
  endfacet
  facet normal 0 0 1
    outer loop
      vertex 59.5 43 1
      vertex 65.5 61.5 1
      vertex 59.5 56 1
    endloop
  endfacet
  facet normal -0 0 1
    outer loop
      vertex 43.125 57.85 1
      vertex 59.5 56 1
      vertex 65.5 61.5 1
    endloop
  endfacet
  facet normal 0 0 1
    outer loop
      vertex 43.125 41.2 1
      vertex 44 56 1
      vertex 43.125 57.85 1
    endloop
  endfacet
  facet normal 0 0 1
    outer loop
      vertex 59.5 56 1
      vertex 43.125 57.85 1
      vertex 44 56 1
    endloop
  endfacet
  facet normal 0 0 1
    outer loop
      vertex 65.5 61.5 1
      vertex 41.625 57.85 1
      vertex 43.125 57.85 1
    endloop
  endfacet
  facet normal 0 0 1
    outer loop
      vertex 41.625 57.85 1
      vertex 40.5 56 1
      vertex 41.625 41.2 1
    endloop
  endfacet
  facet normal -0 0 1
    outer loop
      vertex 24.125 57.85 1
      vertex 40.5 56 1
      vertex 41.625 57.85 1
    endloop
  endfacet
  facet normal 0 0 1
    outer loop
      vertex 24.125 57.85 1
      vertex 41.625 57.85 1
      vertex 65.5 61.5 1
    endloop
  endfacet
  facet normal 0 0 1
    outer loop
      vertex 24.125 41.2 1
      vertex 25 56 1
      vertex 24.125 57.85 1
    endloop
  endfacet
  facet normal 0 0 1
    outer loop
      vertex 40.5 56 1
      vertex 24.125 57.85 1
      vertex 25 56 1
    endloop
  endfacet
  facet normal -0 0 1
    outer loop
      vertex 0 61.5 1
      vertex 24.125 57.85 1
      vertex 65.5 61.5 1
    endloop
  endfacet
  facet normal 0 0 1
    outer loop
      vertex 22.625 57.85 1
      vertex 21.5 56 1
      vertex 22.625 41.2 1
    endloop
  endfacet
  facet normal 0 0 1
    outer loop
      vertex 22.625 57.85 1
      vertex 6 56 1
      vertex 21.5 56 1
    endloop
  endfacet
  facet normal 0 0 1
    outer loop
      vertex 6 56 1
      vertex 4.1 41.2 1
      vertex 6 43 1
    endloop
  endfacet
  facet normal 0 0 1
    outer loop
      vertex 0 61.5 1
      vertex 4.1 39.2 1
      vertex 4.1 41.2 1
    endloop
  endfacet
  facet normal 0 0 1
    outer loop
      vertex 4.1 39.2 1
      vertex 0 61.5 1
      vertex 4.1 22.2 1
    endloop
  endfacet
  facet normal 0 0 1
    outer loop
      vertex 0 0 1
      vertex 4.1 22.2 1
      vertex 0 61.5 1
    endloop
  endfacet
  facet normal 0 0 1
    outer loop
      vertex 6 56 1
      vertex 0 61.5 1
      vertex 4.1 41.2 1
    endloop
  endfacet
  facet normal 0 0 1
    outer loop
      vertex 22.625 57.85 1
      vertex 0 61.5 1
      vertex 6 56 1
    endloop
  endfacet
  facet normal 0 0 1
    outer loop
      vertex 24.125 57.85 1
      vertex 0 61.5 1
      vertex 22.625 57.85 1
    endloop
  endfacet
  facet normal 0 0 1
    outer loop
      vertex 65.5 61.5 1
      vertex 60.6 39.2 1
      vertex 65.5 0 1
    endloop
  endfacet
  facet normal -0 0 1
    outer loop
      vertex 60.6 22.2 1
      vertex 65.5 0 1
      vertex 60.6 39.2 1
    endloop
  endfacet
  facet normal -0 0 1
    outer loop
      vertex 60.6 20.2 1
      vertex 65.5 0 1
      vertex 60.6 22.2 1
    endloop
  endfacet
  facet normal -0 0 1
    outer loop
      vertex 59.5 18 1
      vertex 65.5 0 1
      vertex 60.6 20.2 1
    endloop
  endfacet
  facet normal -0 0 1
    outer loop
      vertex 59.5 5 1
      vertex 65.5 0 1
      vertex 59.5 18 1
    endloop
  endfacet
  facet normal 0 0 1
    outer loop
      vertex 43.125 3.1 1
      vertex 59.5 5 1
      vertex 44 5 1
    endloop
  endfacet
  facet normal 0 0 1
    outer loop
      vertex 44 18 1
      vertex 43.125 3.1 1
      vertex 44 5 1
    endloop
  endfacet
  facet normal 0 0 1
    outer loop
      vertex 59.5 5 1
      vertex 43.125 3.1 1
      vertex 65.5 0 1
    endloop
  endfacet
  facet normal -0 0 1
    outer loop
      vertex 41.625 3.1 1
      vertex 65.5 0 1
      vertex 43.125 3.1 1
    endloop
  endfacet
  facet normal -0 0 1
    outer loop
      vertex 40.5 5 1
      vertex 41.625 3.1 1
      vertex 40.5 18 1
    endloop
  endfacet
  facet normal 0 0 1
    outer loop
      vertex 24.125 3.1 1
      vertex 40.5 5 1
      vertex 25 5 1
    endloop
  endfacet
  facet normal 0 0 1
    outer loop
      vertex 40.5 5 1
      vertex 24.125 3.1 1
      vertex 41.625 3.1 1
    endloop
  endfacet
  facet normal 0 0 1
    outer loop
      vertex 25 18 1
      vertex 24.125 3.1 1
      vertex 25 5 1
    endloop
  endfacet
  facet normal 0 0 1
    outer loop
      vertex 41.625 3.1 1
      vertex 24.125 3.1 1
      vertex 65.5 0 1
    endloop
  endfacet
  facet normal 0 0 1
    outer loop
      vertex 0 0 1
      vertex 24.125 3.1 1
      vertex 22.625 3.1 1
    endloop
  endfacet
  facet normal -0 0 1
    outer loop
      vertex 21.5 5 1
      vertex 22.625 3.1 1
      vertex 21.5 18 1
    endloop
  endfacet
  facet normal -0 0 1
    outer loop
      vertex 6 5 1
      vertex 22.625 3.1 1
      vertex 21.5 5 1
    endloop
  endfacet
  facet normal 0 0 1
    outer loop
      vertex 24.125 3.1 1
      vertex 0 0 1
      vertex 65.5 0 1
    endloop
  endfacet
  facet normal 0 0 1
    outer loop
      vertex 6 5 1
      vertex 0 0 1
      vertex 22.625 3.1 1
    endloop
  endfacet
  facet normal 0 0 1
    outer loop
      vertex 4.1 20.2 1
      vertex 0 0 1
      vertex 6 5 1
    endloop
  endfacet
  facet normal 0 0 1
    outer loop
      vertex 4.1 22.2 1
      vertex 0 0 1
      vertex 4.1 20.2 1
    endloop
  endfacet
  facet normal 0 0 1
    outer loop
      vertex 65.5 61.5 1
      vertex 59.5 43 1
      vertex 60.6 41.2 1
    endloop
  endfacet
  facet normal 0 0 1
    outer loop
      vertex 43.125 41.2 1
      vertex 59.5 43 1
      vertex 44 43 1
    endloop
  endfacet
  facet normal 0 0 1
    outer loop
      vertex 59.5 43 1
      vertex 43.125 41.2 1
      vertex 60.6 41.2 1
    endloop
  endfacet
  facet normal 0 0 1
    outer loop
      vertex 44 56 1
      vertex 43.125 41.2 1
      vertex 44 43 1
    endloop
  endfacet
  facet normal -0 0 1
    outer loop
      vertex 59.5 24 1
      vertex 60.6 22.2 1
      vertex 59.5 37 1
    endloop
  endfacet
  facet normal 0 0 1
    outer loop
      vertex 43.125 22.2 1
      vertex 59.5 24 1
      vertex 44 24 1
    endloop
  endfacet
  facet normal 0 0 1
    outer loop
      vertex 59.5 24 1
      vertex 43.125 22.2 1
      vertex 60.6 22.2 1
    endloop
  endfacet
  facet normal 0 0 1
    outer loop
      vertex 44 37 1
      vertex 43.125 22.2 1
      vertex 44 24 1
    endloop
  endfacet
  facet normal 0 0 1
    outer loop
      vertex 41.625 39.2 1
      vertex 40.5 37 1
      vertex 41.625 22.2 1
    endloop
  endfacet
  facet normal -0 0 1
    outer loop
      vertex 24.125 39.2 1
      vertex 40.5 37 1
      vertex 41.625 39.2 1
    endloop
  endfacet
  facet normal 0 0 1
    outer loop
      vertex 24.125 22.2 1
      vertex 25 37 1
      vertex 24.125 39.2 1
    endloop
  endfacet
  facet normal 0 0 1
    outer loop
      vertex 40.5 37 1
      vertex 24.125 39.2 1
      vertex 25 37 1
    endloop
  endfacet
  facet normal -0 0 1
    outer loop
      vertex 40.5 24 1
      vertex 41.625 22.2 1
      vertex 40.5 37 1
    endloop
  endfacet
  facet normal 0 0 1
    outer loop
      vertex 24.125 22.2 1
      vertex 40.5 24 1
      vertex 25 24 1
    endloop
  endfacet
  facet normal 0 0 1
    outer loop
      vertex 40.5 24 1
      vertex 24.125 22.2 1
      vertex 41.625 22.2 1
    endloop
  endfacet
  facet normal 0 0 1
    outer loop
      vertex 25 37 1
      vertex 24.125 22.2 1
      vertex 25 24 1
    endloop
  endfacet
  facet normal 1 -0 0
    outer loop
      vertex 65.5 0 1
      vertex 65.5 61.5 0
      vertex 65.5 61.5 1
    endloop
  endfacet
  facet normal 1 0 0
    outer loop
      vertex 65.5 61.5 0
      vertex 65.5 0 1
      vertex 65.5 0 0
    endloop
  endfacet
  facet normal 0 1 -0
    outer loop
      vertex 65.5 61.5 0
      vertex 0 61.5 1
      vertex 65.5 61.5 1
    endloop
  endfacet
  facet normal 0 1 0
    outer loop
      vertex 0 61.5 1
      vertex 65.5 61.5 0
      vertex 0 61.5 0
    endloop
  endfacet
  facet normal 0 0 -1
    outer loop
      vertex 6 37 0
      vertex 21.5 43 0
      vertex 21.5 37 0
    endloop
  endfacet
  facet normal -0 0 -1
    outer loop
      vertex 21.5 43 0
      vertex 6 37 0
      vertex 6 43 0
    endloop
  endfacet
  facet normal 0 0 -1
    outer loop
      vertex 6 18 0
      vertex 21.5 24 0
      vertex 21.5 18 0
    endloop
  endfacet
  facet normal -0 0 -1
    outer loop
      vertex 21.5 24 0
      vertex 6 18 0
      vertex 6 24 0
    endloop
  endfacet
  facet normal 0 0 -1
    outer loop
      vertex 25 37 0
      vertex 40.5 43 0
      vertex 40.5 37 0
    endloop
  endfacet
  facet normal -0 0 -1
    outer loop
      vertex 40.5 43 0
      vertex 25 37 0
      vertex 25 43 0
    endloop
  endfacet
  facet normal 0 0 -1
    outer loop
      vertex 25 18 0
      vertex 40.5 24 0
      vertex 40.5 18 0
    endloop
  endfacet
  facet normal -0 0 -1
    outer loop
      vertex 40.5 24 0
      vertex 25 18 0
      vertex 25 24 0
    endloop
  endfacet
  facet normal 0 0 -1
    outer loop
      vertex 44 37 0
      vertex 59.5 43 0
      vertex 59.5 37 0
    endloop
  endfacet
  facet normal -0 0 -1
    outer loop
      vertex 59.5 43 0
      vertex 44 37 0
      vertex 44 43 0
    endloop
  endfacet
  facet normal 0 0 -1
    outer loop
      vertex 44 18 0
      vertex 59.5 24 0
      vertex 59.5 18 0
    endloop
  endfacet
  facet normal -0 0 -1
    outer loop
      vertex 59.5 24 0
      vertex 44 18 0
      vertex 44 24 0
    endloop
  endfacet
  facet normal 0 0 -1
    outer loop
      vertex 59.5 18 0
      vertex 65.5 0 0
      vertex 59.5 5 0
    endloop
  endfacet
  facet normal 0 0 -1
    outer loop
      vertex 65.5 0 0
      vertex 44 5 0
      vertex 59.5 5 0
    endloop
  endfacet
  facet normal 0 0 -1
    outer loop
      vertex 40.5 18 0
      vertex 44 18 0
      vertex 44 5 0
    endloop
  endfacet
  facet normal 0 0 -1
    outer loop
      vertex 44 18 0
      vertex 40.5 18 0
      vertex 44 24 0
    endloop
  endfacet
  facet normal 0 0 -1
    outer loop
      vertex 44 24 0
      vertex 40.5 24 0
      vertex 44 37 0
    endloop
  endfacet
  facet normal 0 0 -1
    outer loop
      vertex 40.5 37 0
      vertex 44 37 0
      vertex 40.5 24 0
    endloop
  endfacet
  facet normal 0 0 -1
    outer loop
      vertex 40.5 18 0
      vertex 44 5 0
      vertex 40.5 5 0
    endloop
  endfacet
  facet normal 0 0 -1
    outer loop
      vertex 65.5 0 0
      vertex 40.5 5 0
      vertex 44 5 0
    endloop
  endfacet
  facet normal 0 0 -1
    outer loop
      vertex 65.5 0 0
      vertex 25 5 0
      vertex 40.5 5 0
    endloop
  endfacet
  facet normal 0 0 -1
    outer loop
      vertex 21.5 18 0
      vertex 25 18 0
      vertex 25 5 0
    endloop
  endfacet
  facet normal 0 0 -1
    outer loop
      vertex 25 18 0
      vertex 21.5 18 0
      vertex 25 24 0
    endloop
  endfacet
  facet normal 0 0 -1
    outer loop
      vertex 25 24 0
      vertex 21.5 24 0
      vertex 25 37 0
    endloop
  endfacet
  facet normal 0 0 -1
    outer loop
      vertex 21.5 37 0
      vertex 25 37 0
      vertex 21.5 24 0
    endloop
  endfacet
  facet normal 0 0 -1
    outer loop
      vertex 21.5 18 0
      vertex 25 5 0
      vertex 21.5 5 0
    endloop
  endfacet
  facet normal 0 0 -1
    outer loop
      vertex 0 0 0
      vertex 25 5 0
      vertex 65.5 0 0
    endloop
  endfacet
  facet normal -0 0 -1
    outer loop
      vertex 25 5 0
      vertex 0 0 0
      vertex 21.5 5 0
    endloop
  endfacet
  facet normal 0 0 -1
    outer loop
      vertex 0 0 0
      vertex 6 18 0
      vertex 6 5 0
    endloop
  endfacet
  facet normal -0 0 -1
    outer loop
      vertex 6 18 0
      vertex 0 0 0
      vertex 6 24 0
    endloop
  endfacet
  facet normal -0 0 -1
    outer loop
      vertex 6 24 0
      vertex 0 0 0
      vertex 6 37 0
    endloop
  endfacet
  facet normal 0 0 -1
    outer loop
      vertex 0 61.5 0
      vertex 6 37 0
      vertex 0 0 0
    endloop
  endfacet
  facet normal 0 0 -1
    outer loop
      vertex 6 37 0
      vertex 0 61.5 0
      vertex 6 43 0
    endloop
  endfacet
  facet normal -0 0 -1
    outer loop
      vertex 21.5 5 0
      vertex 0 0 0
      vertex 6 5 0
    endloop
  endfacet
  facet normal 0 0 -1
    outer loop
      vertex 59.5 24 0
      vertex 65.5 0 0
      vertex 59.5 18 0
    endloop
  endfacet
  facet normal 0 0 -1
    outer loop
      vertex 65.5 0 0
      vertex 59.5 24 0
      vertex 65.5 61.5 0
    endloop
  endfacet
  facet normal 0 0 -1
    outer loop
      vertex 59.5 37 0
      vertex 65.5 61.5 0
      vertex 59.5 24 0
    endloop
  endfacet
  facet normal 0 0 -1
    outer loop
      vertex 59.5 43 0
      vertex 65.5 61.5 0
      vertex 59.5 37 0
    endloop
  endfacet
  facet normal 0 0 -1
    outer loop
      vertex 59.5 56 0
      vertex 65.5 61.5 0
      vertex 59.5 43 0
    endloop
  endfacet
  facet normal 0 0 -1
    outer loop
      vertex 44 56 0
      vertex 65.5 61.5 0
      vertex 59.5 56 0
    endloop
  endfacet
  facet normal -0 0 -1
    outer loop
      vertex 44 24 0
      vertex 40.5 18 0
      vertex 40.5 24 0
    endloop
  endfacet
  facet normal 0 0 -1
    outer loop
      vertex 44 37 0
      vertex 40.5 37 0
      vertex 44 43 0
    endloop
  endfacet
  facet normal 0 0 -1
    outer loop
      vertex 40.5 43 0
      vertex 44 43 0
      vertex 40.5 37 0
    endloop
  endfacet
  facet normal 0 0 -1
    outer loop
      vertex 44 43 0
      vertex 40.5 43 0
      vertex 44 56 0
    endloop
  endfacet
  facet normal 0 0 -1
    outer loop
      vertex 40.5 56 0
      vertex 44 56 0
      vertex 40.5 43 0
    endloop
  endfacet
  facet normal 0 0 -1
    outer loop
      vertex 40.5 56 0
      vertex 65.5 61.5 0
      vertex 44 56 0
    endloop
  endfacet
  facet normal 0 0 -1
    outer loop
      vertex 25 56 0
      vertex 65.5 61.5 0
      vertex 40.5 56 0
    endloop
  endfacet
  facet normal -0 0 -1
    outer loop
      vertex 25 24 0
      vertex 21.5 18 0
      vertex 21.5 24 0
    endloop
  endfacet
  facet normal 0 0 -1
    outer loop
      vertex 25 37 0
      vertex 21.5 37 0
      vertex 25 43 0
    endloop
  endfacet
  facet normal 0 0 -1
    outer loop
      vertex 21.5 43 0
      vertex 25 43 0
      vertex 21.5 37 0
    endloop
  endfacet
  facet normal 0 0 -1
    outer loop
      vertex 25 43 0
      vertex 21.5 43 0
      vertex 25 56 0
    endloop
  endfacet
  facet normal 0 0 -1
    outer loop
      vertex 21.5 56 0
      vertex 25 56 0
      vertex 21.5 43 0
    endloop
  endfacet
  facet normal 0 0 -1
    outer loop
      vertex 0 61.5 0
      vertex 25 56 0
      vertex 21.5 56 0
    endloop
  endfacet
  facet normal 0 0 -1
    outer loop
      vertex 0 61.5 0
      vertex 21.5 56 0
      vertex 6 56 0
    endloop
  endfacet
  facet normal 0 0 -1
    outer loop
      vertex 25 56 0
      vertex 0 61.5 0
      vertex 65.5 61.5 0
    endloop
  endfacet
  facet normal 0 0 -1
    outer loop
      vertex 6 43 0
      vertex 0 61.5 0
      vertex 6 56 0
    endloop
  endfacet
  facet normal 0 -1 0
    outer loop
      vertex 0 0 0
      vertex 65.5 0 1
      vertex 0 0 1
    endloop
  endfacet
  facet normal 0 -1 -0
    outer loop
      vertex 65.5 0 1
      vertex 0 0 0
      vertex 65.5 0 0
    endloop
  endfacet
  facet normal -1 0 0
    outer loop
      vertex 4.1 20.2 1
      vertex 4.1 22.2 4
      vertex 4.1 22.2 1
    endloop
  endfacet
  facet normal -1 -0 0
    outer loop
      vertex 4.1 22.2 4
      vertex 4.1 20.2 1
      vertex 4.1 20.2 4
    endloop
  endfacet
  facet normal -0 0 1
    outer loop
      vertex 4.1 22.2 4
      vertex 22.625 20.2 4
      vertex 22.625 22.2 4
    endloop
  endfacet
  facet normal 0 0 1
    outer loop
      vertex 22.625 20.2 4
      vertex 4.1 22.2 4
      vertex 4.1 20.2 4
    endloop
  endfacet
  facet normal -0 0 1
    outer loop
      vertex 4.1 41.2 4
      vertex 22.625 39.2 4
      vertex 22.625 41.2 4
    endloop
  endfacet
  facet normal 0 0 1
    outer loop
      vertex 22.625 39.2 4
      vertex 4.1 41.2 4
      vertex 4.1 39.2 4
    endloop
  endfacet
  facet normal 0 0 1
    outer loop
      vertex 22.625 41.2 4
      vertex 24.125 41.2 4
      vertex 24.125 57.85 4
    endloop
  endfacet
  facet normal 0 0 1
    outer loop
      vertex 24.125 41.2 4
      vertex 22.625 41.2 4
      vertex 24.125 39.2 4
    endloop
  endfacet
  facet normal 0 0 1
    outer loop
      vertex 24.125 39.2 4
      vertex 22.625 39.2 4
      vertex 24.125 22.2 4
    endloop
  endfacet
  facet normal 0 0 1
    outer loop
      vertex 22.625 22.2 4
      vertex 24.125 22.2 4
      vertex 22.625 39.2 4
    endloop
  endfacet
  facet normal 0 0 1
    outer loop
      vertex 22.625 41.2 4
      vertex 24.125 57.85 4
      vertex 22.625 57.85 4
    endloop
  endfacet
  facet normal 0 0 1
    outer loop
      vertex 24.125 39.2 4
      vertex 22.625 41.2 4
      vertex 22.625 39.2 4
    endloop
  endfacet
  facet normal 0 0 1
    outer loop
      vertex 24.125 22.2 4
      vertex 22.625 22.2 4
      vertex 24.125 20.2 4
    endloop
  endfacet
  facet normal 0 0 1
    outer loop
      vertex 22.625 20.2 4
      vertex 24.125 20.2 4
      vertex 22.625 22.2 4
    endloop
  endfacet
  facet normal 0 0 1
    outer loop
      vertex 24.125 20.2 4
      vertex 22.625 20.2 4
      vertex 24.125 3.1 4
    endloop
  endfacet
  facet normal 0 0 1
    outer loop
      vertex 24.125 3.1 4
      vertex 22.625 20.2 4
      vertex 22.625 3.1 4
    endloop
  endfacet
  facet normal -0 0 1
    outer loop
      vertex 24.125 22.2 4
      vertex 41.625 20.2 4
      vertex 41.625 22.2 4
    endloop
  endfacet
  facet normal 0 0 1
    outer loop
      vertex 41.625 20.2 4
      vertex 24.125 22.2 4
      vertex 24.125 20.2 4
    endloop
  endfacet
  facet normal -0 0 1
    outer loop
      vertex 24.125 41.2 4
      vertex 41.625 39.2 4
      vertex 41.625 41.2 4
    endloop
  endfacet
  facet normal 0 0 1
    outer loop
      vertex 41.625 39.2 4
      vertex 24.125 41.2 4
      vertex 24.125 39.2 4
    endloop
  endfacet
  facet normal 0 0 1
    outer loop
      vertex 41.625 41.2 4
      vertex 43.125 41.2 4
      vertex 43.125 57.85 4
    endloop
  endfacet
  facet normal 0 0 1
    outer loop
      vertex 43.125 41.2 4
      vertex 41.625 41.2 4
      vertex 43.125 39.2 4
    endloop
  endfacet
  facet normal 0 0 1
    outer loop
      vertex 43.125 39.2 4
      vertex 41.625 39.2 4
      vertex 43.125 22.2 4
    endloop
  endfacet
  facet normal 0 0 1
    outer loop
      vertex 41.625 22.2 4
      vertex 43.125 22.2 4
      vertex 41.625 39.2 4
    endloop
  endfacet
  facet normal 0 0 1
    outer loop
      vertex 41.625 41.2 4
      vertex 43.125 57.85 4
      vertex 41.625 57.85 4
    endloop
  endfacet
  facet normal 0 0 1
    outer loop
      vertex 43.125 39.2 4
      vertex 41.625 41.2 4
      vertex 41.625 39.2 4
    endloop
  endfacet
  facet normal 0 0 1
    outer loop
      vertex 43.125 22.2 4
      vertex 41.625 22.2 4
      vertex 43.125 20.2 4
    endloop
  endfacet
  facet normal 0 0 1
    outer loop
      vertex 41.625 20.2 4
      vertex 43.125 20.2 4
      vertex 41.625 22.2 4
    endloop
  endfacet
  facet normal 0 0 1
    outer loop
      vertex 43.125 20.2 4
      vertex 41.625 20.2 4
      vertex 43.125 3.1 4
    endloop
  endfacet
  facet normal 0 0 1
    outer loop
      vertex 43.125 3.1 4
      vertex 41.625 20.2 4
      vertex 41.625 3.1 4
    endloop
  endfacet
  facet normal -0 0 1
    outer loop
      vertex 43.125 41.2 4
      vertex 60.6 39.2 4
      vertex 60.6 41.2 4
    endloop
  endfacet
  facet normal 0 0 1
    outer loop
      vertex 60.6 39.2 4
      vertex 43.125 41.2 4
      vertex 43.125 39.2 4
    endloop
  endfacet
  facet normal -0 0 1
    outer loop
      vertex 43.125 22.2 4
      vertex 60.6 20.2 4
      vertex 60.6 22.2 4
    endloop
  endfacet
  facet normal 0 0 1
    outer loop
      vertex 60.6 20.2 4
      vertex 43.125 22.2 4
      vertex 43.125 20.2 4
    endloop
  endfacet
  facet normal 1 -0 0
    outer loop
      vertex 60.6 20.2 4
      vertex 60.6 22.2 1
      vertex 60.6 22.2 4
    endloop
  endfacet
  facet normal 1 0 0
    outer loop
      vertex 60.6 22.2 1
      vertex 60.6 20.2 4
      vertex 60.6 20.2 1
    endloop
  endfacet
  facet normal 0 1 -0
    outer loop
      vertex 60.6 22.2 1
      vertex 43.125 22.2 4
      vertex 60.6 22.2 4
    endloop
  endfacet
  facet normal 0 1 0
    outer loop
      vertex 43.125 22.2 4
      vertex 60.6 22.2 1
      vertex 43.125 22.2 1
    endloop
  endfacet
  facet normal 0 1 -0
    outer loop
      vertex 22.625 22.2 1
      vertex 4.1 22.2 4
      vertex 22.625 22.2 4
    endloop
  endfacet
  facet normal 0 1 0
    outer loop
      vertex 4.1 22.2 4
      vertex 22.625 22.2 1
      vertex 4.1 22.2 1
    endloop
  endfacet
  facet normal 0 1 -0
    outer loop
      vertex 41.625 22.2 1
      vertex 24.125 22.2 4
      vertex 41.625 22.2 4
    endloop
  endfacet
  facet normal 0 1 0
    outer loop
      vertex 24.125 22.2 4
      vertex 41.625 22.2 1
      vertex 24.125 22.2 1
    endloop
  endfacet
  facet normal 0 -1 0
    outer loop
      vertex 4.1 20.2 1
      vertex 22.625 20.2 4
      vertex 4.1 20.2 4
    endloop
  endfacet
  facet normal 0 -1 -0
    outer loop
      vertex 22.625 20.2 4
      vertex 4.1 20.2 1
      vertex 22.625 20.2 1
    endloop
  endfacet
  facet normal 0 -1 0
    outer loop
      vertex 43.125 20.2 1
      vertex 60.6 20.2 4
      vertex 43.125 20.2 4
    endloop
  endfacet
  facet normal 0 -1 -0
    outer loop
      vertex 60.6 20.2 4
      vertex 43.125 20.2 1
      vertex 60.6 20.2 1
    endloop
  endfacet
  facet normal 0 -1 0
    outer loop
      vertex 24.125 20.2 1
      vertex 41.625 20.2 4
      vertex 24.125 20.2 4
    endloop
  endfacet
  facet normal 0 -1 -0
    outer loop
      vertex 41.625 20.2 4
      vertex 24.125 20.2 1
      vertex 41.625 20.2 1
    endloop
  endfacet
  facet normal -1 0 0
    outer loop
      vertex 4.1 39.2 1
      vertex 4.1 41.2 4
      vertex 4.1 41.2 1
    endloop
  endfacet
  facet normal -1 -0 0
    outer loop
      vertex 4.1 41.2 4
      vertex 4.1 39.2 1
      vertex 4.1 39.2 4
    endloop
  endfacet
  facet normal 1 -0 0
    outer loop
      vertex 60.6 39.2 4
      vertex 60.6 41.2 1
      vertex 60.6 41.2 4
    endloop
  endfacet
  facet normal 1 0 0
    outer loop
      vertex 60.6 41.2 1
      vertex 60.6 39.2 4
      vertex 60.6 39.2 1
    endloop
  endfacet
  facet normal 0 1 -0
    outer loop
      vertex 60.6 41.2 1
      vertex 43.125 41.2 4
      vertex 60.6 41.2 4
    endloop
  endfacet
  facet normal 0 1 0
    outer loop
      vertex 43.125 41.2 4
      vertex 60.6 41.2 1
      vertex 43.125 41.2 1
    endloop
  endfacet
  facet normal 0 1 -0
    outer loop
      vertex 22.625 41.2 1
      vertex 4.1 41.2 4
      vertex 22.625 41.2 4
    endloop
  endfacet
  facet normal 0 1 0
    outer loop
      vertex 4.1 41.2 4
      vertex 22.625 41.2 1
      vertex 4.1 41.2 1
    endloop
  endfacet
  facet normal 0 1 -0
    outer loop
      vertex 41.625 41.2 1
      vertex 24.125 41.2 4
      vertex 41.625 41.2 4
    endloop
  endfacet
  facet normal 0 1 0
    outer loop
      vertex 24.125 41.2 4
      vertex 41.625 41.2 1
      vertex 24.125 41.2 1
    endloop
  endfacet
  facet normal 0 -1 0
    outer loop
      vertex 4.1 39.2 1
      vertex 22.625 39.2 4
      vertex 4.1 39.2 4
    endloop
  endfacet
  facet normal 0 -1 -0
    outer loop
      vertex 22.625 39.2 4
      vertex 4.1 39.2 1
      vertex 22.625 39.2 1
    endloop
  endfacet
  facet normal 0 -1 0
    outer loop
      vertex 43.125 39.2 1
      vertex 60.6 39.2 4
      vertex 43.125 39.2 4
    endloop
  endfacet
  facet normal 0 -1 -0
    outer loop
      vertex 60.6 39.2 4
      vertex 43.125 39.2 1
      vertex 60.6 39.2 1
    endloop
  endfacet
  facet normal 0 -1 0
    outer loop
      vertex 24.125 39.2 1
      vertex 41.625 39.2 4
      vertex 24.125 39.2 4
    endloop
  endfacet
  facet normal 0 -1 -0
    outer loop
      vertex 41.625 39.2 4
      vertex 24.125 39.2 1
      vertex 41.625 39.2 1
    endloop
  endfacet
  facet normal -1 0 0
    outer loop
      vertex 22.625 3.1 1
      vertex 22.625 20.2 4
      vertex 22.625 20.2 1
    endloop
  endfacet
  facet normal -1 -0 0
    outer loop
      vertex 22.625 20.2 4
      vertex 22.625 3.1 1
      vertex 22.625 3.1 4
    endloop
  endfacet
  facet normal -1 0 0
    outer loop
      vertex 22.625 41.2 1
      vertex 22.625 57.85 4
      vertex 22.625 57.85 1
    endloop
  endfacet
  facet normal -1 -0 0
    outer loop
      vertex 22.625 57.85 4
      vertex 22.625 41.2 1
      vertex 22.625 41.2 4
    endloop
  endfacet
  facet normal -1 0 0
    outer loop
      vertex 22.625 22.2 1
      vertex 22.625 39.2 4
      vertex 22.625 39.2 1
    endloop
  endfacet
  facet normal -1 -0 0
    outer loop
      vertex 22.625 39.2 4
      vertex 22.625 22.2 1
      vertex 22.625 22.2 4
    endloop
  endfacet
  facet normal 1 -0 0
    outer loop
      vertex 24.125 3.1 4
      vertex 24.125 20.2 1
      vertex 24.125 20.2 4
    endloop
  endfacet
  facet normal 1 0 0
    outer loop
      vertex 24.125 20.2 1
      vertex 24.125 3.1 4
      vertex 24.125 3.1 1
    endloop
  endfacet
  facet normal 1 -0 0
    outer loop
      vertex 24.125 41.2 4
      vertex 24.125 57.85 1
      vertex 24.125 57.85 4
    endloop
  endfacet
  facet normal 1 0 0
    outer loop
      vertex 24.125 57.85 1
      vertex 24.125 41.2 4
      vertex 24.125 41.2 1
    endloop
  endfacet
  facet normal 1 -0 0
    outer loop
      vertex 24.125 22.2 4
      vertex 24.125 39.2 1
      vertex 24.125 39.2 4
    endloop
  endfacet
  facet normal 1 0 0
    outer loop
      vertex 24.125 39.2 1
      vertex 24.125 22.2 4
      vertex 24.125 22.2 1
    endloop
  endfacet
  facet normal 0 -1 0
    outer loop
      vertex 22.625 3.1 1
      vertex 24.125 3.1 4
      vertex 22.625 3.1 4
    endloop
  endfacet
  facet normal 0 -1 -0
    outer loop
      vertex 24.125 3.1 4
      vertex 22.625 3.1 1
      vertex 24.125 3.1 1
    endloop
  endfacet
  facet normal 0 1 -0
    outer loop
      vertex 24.125 57.85 1
      vertex 22.625 57.85 4
      vertex 24.125 57.85 4
    endloop
  endfacet
  facet normal 0 1 0
    outer loop
      vertex 22.625 57.85 4
      vertex 24.125 57.85 1
      vertex 22.625 57.85 1
    endloop
  endfacet
  facet normal -1 0 0
    outer loop
      vertex 41.625 3.1 1
      vertex 41.625 20.2 4
      vertex 41.625 20.2 1
    endloop
  endfacet
  facet normal -1 -0 0
    outer loop
      vertex 41.625 20.2 4
      vertex 41.625 3.1 1
      vertex 41.625 3.1 4
    endloop
  endfacet
  facet normal -1 0 0
    outer loop
      vertex 41.625 41.2 1
      vertex 41.625 57.85 4
      vertex 41.625 57.85 1
    endloop
  endfacet
  facet normal -1 -0 0
    outer loop
      vertex 41.625 57.85 4
      vertex 41.625 41.2 1
      vertex 41.625 41.2 4
    endloop
  endfacet
  facet normal -1 0 0
    outer loop
      vertex 41.625 22.2 1
      vertex 41.625 39.2 4
      vertex 41.625 39.2 1
    endloop
  endfacet
  facet normal -1 -0 0
    outer loop
      vertex 41.625 39.2 4
      vertex 41.625 22.2 1
      vertex 41.625 22.2 4
    endloop
  endfacet
  facet normal 1 -0 0
    outer loop
      vertex 43.125 3.1 4
      vertex 43.125 20.2 1
      vertex 43.125 20.2 4
    endloop
  endfacet
  facet normal 1 0 0
    outer loop
      vertex 43.125 20.2 1
      vertex 43.125 3.1 4
      vertex 43.125 3.1 1
    endloop
  endfacet
  facet normal 1 -0 0
    outer loop
      vertex 43.125 41.2 4
      vertex 43.125 57.85 1
      vertex 43.125 57.85 4
    endloop
  endfacet
  facet normal 1 0 0
    outer loop
      vertex 43.125 57.85 1
      vertex 43.125 41.2 4
      vertex 43.125 41.2 1
    endloop
  endfacet
  facet normal 1 -0 0
    outer loop
      vertex 43.125 22.2 4
      vertex 43.125 39.2 1
      vertex 43.125 39.2 4
    endloop
  endfacet
  facet normal 1 0 0
    outer loop
      vertex 43.125 39.2 1
      vertex 43.125 22.2 4
      vertex 43.125 22.2 1
    endloop
  endfacet
  facet normal 0 1 -0
    outer loop
      vertex 43.125 57.85 1
      vertex 41.625 57.85 4
      vertex 43.125 57.85 4
    endloop
  endfacet
  facet normal 0 1 0
    outer loop
      vertex 41.625 57.85 4
      vertex 43.125 57.85 1
      vertex 41.625 57.85 1
    endloop
  endfacet
  facet normal 0 -1 0
    outer loop
      vertex 41.625 3.1 1
      vertex 43.125 3.1 4
      vertex 41.625 3.1 4
    endloop
  endfacet
  facet normal 0 -1 -0
    outer loop
      vertex 43.125 3.1 4
      vertex 41.625 3.1 1
      vertex 43.125 3.1 1
    endloop
  endfacet
endsolid OpenSCAD_Model
