solid OpenSCAD_Model
  facet normal 1 -0 0
    outer loop
      vertex 6 5 1
      vertex 6 17.6 0
      vertex 6 17.6 1
    endloop
  endfacet
  facet normal 1 0 0
    outer loop
      vertex 6 17.6 0
      vertex 6 5 1
      vertex 6 5 0
    endloop
  endfacet
  facet normal -1 0 0
    outer loop
      vertex 21.2 5 0
      vertex 21.2 17.6 1
      vertex 21.2 17.6 0
    endloop
  endfacet
  facet normal -1 -0 0
    outer loop
      vertex 21.2 17.6 1
      vertex 21.2 5 0
      vertex 21.2 5 1
    endloop
  endfacet
  facet normal 0 -1 0
    outer loop
      vertex 6 17.6 0
      vertex 21.2 17.6 1
      vertex 6 17.6 1
    endloop
  endfacet
  facet normal 0 -1 -0
    outer loop
      vertex 21.2 17.6 1
      vertex 6 17.6 0
      vertex 21.2 17.6 0
    endloop
  endfacet
  facet normal 0 1 -0
    outer loop
      vertex 21.2 5 0
      vertex 6 5 1
      vertex 21.2 5 1
    endloop
  endfacet
  facet normal 0 1 0
    outer loop
      vertex 6 5 1
      vertex 21.2 5 0
      vertex 6 5 0
    endloop
  endfacet
  facet normal 1 -0 0
    outer loop
      vertex 24.7 5 1
      vertex 24.7 17.6 0
      vertex 24.7 17.6 1
    endloop
  endfacet
  facet normal 1 0 0
    outer loop
      vertex 24.7 17.6 0
      vertex 24.7 5 1
      vertex 24.7 5 0
    endloop
  endfacet
  facet normal -1 0 0
    outer loop
      vertex 39.9 5 0
      vertex 39.9 17.6 1
      vertex 39.9 17.6 0
    endloop
  endfacet
  facet normal -1 -0 0
    outer loop
      vertex 39.9 17.6 1
      vertex 39.9 5 0
      vertex 39.9 5 1
    endloop
  endfacet
  facet normal 0 -1 0
    outer loop
      vertex 24.7 17.6 0
      vertex 39.9 17.6 1
      vertex 24.7 17.6 1
    endloop
  endfacet
  facet normal 0 -1 -0
    outer loop
      vertex 39.9 17.6 1
      vertex 24.7 17.6 0
      vertex 39.9 17.6 0
    endloop
  endfacet
  facet normal 0 1 -0
    outer loop
      vertex 39.9 5 0
      vertex 24.7 5 1
      vertex 39.9 5 1
    endloop
  endfacet
  facet normal 0 1 0
    outer loop
      vertex 24.7 5 1
      vertex 39.9 5 0
      vertex 24.7 5 0
    endloop
  endfacet
  facet normal 1 -0 0
    outer loop
      vertex 6 23.6 1
      vertex 6 36.2 0
      vertex 6 36.2 1
    endloop
  endfacet
  facet normal 1 0 0
    outer loop
      vertex 6 36.2 0
      vertex 6 23.6 1
      vertex 6 23.6 0
    endloop
  endfacet
  facet normal -1 0 0
    outer loop
      vertex 21.2 23.6 0
      vertex 21.2 36.2 1
      vertex 21.2 36.2 0
    endloop
  endfacet
  facet normal -1 -0 0
    outer loop
      vertex 21.2 36.2 1
      vertex 21.2 23.6 0
      vertex 21.2 23.6 1
    endloop
  endfacet
  facet normal 0 1 -0
    outer loop
      vertex 21.2 23.6 0
      vertex 6 23.6 1
      vertex 21.2 23.6 1
    endloop
  endfacet
  facet normal 0 1 0
    outer loop
      vertex 6 23.6 1
      vertex 21.2 23.6 0
      vertex 6 23.6 0
    endloop
  endfacet
  facet normal 0 -1 0
    outer loop
      vertex 6 36.2 0
      vertex 21.2 36.2 1
      vertex 6 36.2 1
    endloop
  endfacet
  facet normal 0 -1 -0
    outer loop
      vertex 21.2 36.2 1
      vertex 6 36.2 0
      vertex 21.2 36.2 0
    endloop
  endfacet
  facet normal 1 -0 0
    outer loop
      vertex 24.7 23.6 1
      vertex 24.7 36.2 0
      vertex 24.7 36.2 1
    endloop
  endfacet
  facet normal 1 0 0
    outer loop
      vertex 24.7 36.2 0
      vertex 24.7 23.6 1
      vertex 24.7 23.6 0
    endloop
  endfacet
  facet normal -1 0 0
    outer loop
      vertex 39.9 23.6 0
      vertex 39.9 36.2 1
      vertex 39.9 36.2 0
    endloop
  endfacet
  facet normal -1 -0 0
    outer loop
      vertex 39.9 36.2 1
      vertex 39.9 23.6 0
      vertex 39.9 23.6 1
    endloop
  endfacet
  facet normal 0 1 -0
    outer loop
      vertex 39.9 23.6 0
      vertex 24.7 23.6 1
      vertex 39.9 23.6 1
    endloop
  endfacet
  facet normal 0 1 0
    outer loop
      vertex 24.7 23.6 1
      vertex 39.9 23.6 0
      vertex 24.7 23.6 0
    endloop
  endfacet
  facet normal 0 -1 0
    outer loop
      vertex 24.7 36.2 0
      vertex 39.9 36.2 1
      vertex 24.7 36.2 1
    endloop
  endfacet
  facet normal 0 -1 -0
    outer loop
      vertex 39.9 36.2 1
      vertex 24.7 36.2 0
      vertex 39.9 36.2 0
    endloop
  endfacet
  facet normal -1 0 0
    outer loop
      vertex 0 0 0
      vertex 0 41.7 1
      vertex 0 41.7 0
    endloop
  endfacet
  facet normal -1 -0 0
    outer loop
      vertex 0 41.7 1
      vertex 0 0 0
      vertex 0 0 1
    endloop
  endfacet
  facet normal 0 0 1
    outer loop
      vertex 22.3625 19.88 1
      vertex 21.2 17.6 1
      vertex 22.3625 3.14 1
    endloop
  endfacet
  facet normal 0 0 1
    outer loop
      vertex 22.3625 19.88 1
      vertex 6 17.6 1
      vertex 21.2 17.6 1
    endloop
  endfacet
  facet normal 0 0 1
    outer loop
      vertex 6 17.6 1
      vertex 4.13 19.88 1
      vertex 6 5 1
    endloop
  endfacet
  facet normal -0 0 1
    outer loop
      vertex 4.13 19.88 1
      vertex 6 17.6 1
      vertex 22.3625 19.88 1
    endloop
  endfacet
  facet normal -0 0 1
    outer loop
      vertex 21.2 23.6 1
      vertex 22.3625 21.88 1
      vertex 21.2 36.2 1
    endloop
  endfacet
  facet normal -0 0 1
    outer loop
      vertex 6 23.6 1
      vertex 22.3625 21.88 1
      vertex 21.2 23.6 1
    endloop
  endfacet
  facet normal 0 0 1
    outer loop
      vertex 22.3625 21.88 1
      vertex 6 23.6 1
      vertex 4.13 21.88 1
    endloop
  endfacet
  facet normal -0 0 1
    outer loop
      vertex 23.8625 19.88 1
      vertex 39.9 17.6 1
      vertex 41.03 19.88 1
    endloop
  endfacet
  facet normal 0 0 1
    outer loop
      vertex 23.8625 3.14 1
      vertex 24.7 17.6 1
      vertex 23.8625 19.88 1
    endloop
  endfacet
  facet normal 0 0 1
    outer loop
      vertex 39.9 17.6 1
      vertex 23.8625 19.88 1
      vertex 24.7 17.6 1
    endloop
  endfacet
  facet normal 0 0 1
    outer loop
      vertex 45.9 41.7 1
      vertex 41.03 21.88 1
      vertex 45.9 0 1
    endloop
  endfacet
  facet normal 0 0 1
    outer loop
      vertex 45.9 41.7 1
      vertex 39.9 36.2 1
      vertex 41.03 21.88 1
    endloop
  endfacet
  facet normal -0 0 1
    outer loop
      vertex 23.8625 38.09 1
      vertex 39.9 36.2 1
      vertex 45.9 41.7 1
    endloop
  endfacet
  facet normal 0 0 1
    outer loop
      vertex 23.8625 21.88 1
      vertex 24.7 36.2 1
      vertex 23.8625 38.09 1
    endloop
  endfacet
  facet normal 0 0 1
    outer loop
      vertex 39.9 36.2 1
      vertex 23.8625 38.09 1
      vertex 24.7 36.2 1
    endloop
  endfacet
  facet normal 0 0 1
    outer loop
      vertex 45.9 41.7 1
      vertex 22.3625 38.09 1
      vertex 23.8625 38.09 1
    endloop
  endfacet
  facet normal 0 0 1
    outer loop
      vertex 22.3625 38.09 1
      vertex 21.2 36.2 1
      vertex 22.3625 21.88 1
    endloop
  endfacet
  facet normal 0 0 1
    outer loop
      vertex 22.3625 38.09 1
      vertex 6 36.2 1
      vertex 21.2 36.2 1
    endloop
  endfacet
  facet normal -0 0 1
    outer loop
      vertex 0 41.7 1
      vertex 22.3625 38.09 1
      vertex 45.9 41.7 1
    endloop
  endfacet
  facet normal 0 0 1
    outer loop
      vertex 6 36.2 1
      vertex 4.13 21.88 1
      vertex 6 23.6 1
    endloop
  endfacet
  facet normal 0 0 1
    outer loop
      vertex 4.13 21.88 1
      vertex 0 41.7 1
      vertex 4.13 19.88 1
    endloop
  endfacet
  facet normal 0 0 1
    outer loop
      vertex 6 36.2 1
      vertex 0 41.7 1
      vertex 4.13 21.88 1
    endloop
  endfacet
  facet normal 0 0 1
    outer loop
      vertex 22.3625 38.09 1
      vertex 0 41.7 1
      vertex 6 36.2 1
    endloop
  endfacet
  facet normal -0 0 1
    outer loop
      vertex 41.03 19.88 1
      vertex 45.9 0 1
      vertex 41.03 21.88 1
    endloop
  endfacet
  facet normal -0 0 1
    outer loop
      vertex 39.9 17.6 1
      vertex 45.9 0 1
      vertex 41.03 19.88 1
    endloop
  endfacet
  facet normal -0 0 1
    outer loop
      vertex 39.9 5 1
      vertex 45.9 0 1
      vertex 39.9 17.6 1
    endloop
  endfacet
  facet normal 0 0 1
    outer loop
      vertex 23.8625 3.14 1
      vertex 39.9 5 1
      vertex 24.7 5 1
    endloop
  endfacet
  facet normal 0 0 1
    outer loop
      vertex 24.7 17.6 1
      vertex 23.8625 3.14 1
      vertex 24.7 5 1
    endloop
  endfacet
  facet normal 0 0 1
    outer loop
      vertex 39.9 5 1
      vertex 23.8625 3.14 1
      vertex 45.9 0 1
    endloop
  endfacet
  facet normal -0 0 1
    outer loop
      vertex 22.3625 3.14 1
      vertex 45.9 0 1
      vertex 23.8625 3.14 1
    endloop
  endfacet
  facet normal -0 0 1
    outer loop
      vertex 21.2 5 1
      vertex 22.3625 3.14 1
      vertex 21.2 17.6 1
    endloop
  endfacet
  facet normal -0 0 1
    outer loop
      vertex 6 5 1
      vertex 22.3625 3.14 1
      vertex 21.2 5 1
    endloop
  endfacet
  facet normal 0 0 1
    outer loop
      vertex 0 0 1
      vertex 22.3625 3.14 1
      vertex 6 5 1
    endloop
  endfacet
  facet normal 0 0 1
    outer loop
      vertex 0 0 1
      vertex 4.13 19.88 1
      vertex 0 41.7 1
    endloop
  endfacet
  facet normal 0 0 1
    outer loop
      vertex 22.3625 3.14 1
      vertex 0 0 1
      vertex 45.9 0 1
    endloop
  endfacet
  facet normal 0 0 1
    outer loop
      vertex 4.13 19.88 1
      vertex 0 0 1
      vertex 6 5 1
    endloop
  endfacet
  facet normal -0 0 1
    outer loop
      vertex 39.9 23.6 1
      vertex 41.03 21.88 1
      vertex 39.9 36.2 1
    endloop
  endfacet
  facet normal 0 0 1
    outer loop
      vertex 23.8625 21.88 1
      vertex 39.9 23.6 1
      vertex 24.7 23.6 1
    endloop
  endfacet
  facet normal 0 0 1
    outer loop
      vertex 39.9 23.6 1
      vertex 23.8625 21.88 1
      vertex 41.03 21.88 1
    endloop
  endfacet
  facet normal 0 0 1
    outer loop
      vertex 24.7 36.2 1
      vertex 23.8625 21.88 1
      vertex 24.7 23.6 1
    endloop
  endfacet
  facet normal 1 -0 0
    outer loop
      vertex 45.9 0 1
      vertex 45.9 41.7 0
      vertex 45.9 41.7 1
    endloop
  endfacet
  facet normal 1 0 0
    outer loop
      vertex 45.9 41.7 0
      vertex 45.9 0 1
      vertex 45.9 0 0
    endloop
  endfacet
  facet normal 0 1 -0
    outer loop
      vertex 45.9 41.7 0
      vertex 0 41.7 1
      vertex 45.9 41.7 1
    endloop
  endfacet
  facet normal 0 1 0
    outer loop
      vertex 0 41.7 1
      vertex 45.9 41.7 0
      vertex 0 41.7 0
    endloop
  endfacet
  facet normal 0 0 -1
    outer loop
      vertex 6 17.6 0
      vertex 21.2 23.6 0
      vertex 21.2 17.6 0
    endloop
  endfacet
  facet normal -0 0 -1
    outer loop
      vertex 21.2 23.6 0
      vertex 6 17.6 0
      vertex 6 23.6 0
    endloop
  endfacet
  facet normal 0 0 -1
    outer loop
      vertex 24.7 17.6 0
      vertex 39.9 23.6 0
      vertex 39.9 17.6 0
    endloop
  endfacet
  facet normal -0 0 -1
    outer loop
      vertex 39.9 23.6 0
      vertex 24.7 17.6 0
      vertex 24.7 23.6 0
    endloop
  endfacet
  facet normal 0 0 -1
    outer loop
      vertex 39.9 17.6 0
      vertex 45.9 0 0
      vertex 39.9 5 0
    endloop
  endfacet
  facet normal 0 0 -1
    outer loop
      vertex 45.9 0 0
      vertex 24.7 5 0
      vertex 39.9 5 0
    endloop
  endfacet
  facet normal 0 0 -1
    outer loop
      vertex 21.2 17.6 0
      vertex 24.7 17.6 0
      vertex 24.7 5 0
    endloop
  endfacet
  facet normal 0 0 -1
    outer loop
      vertex 24.7 17.6 0
      vertex 21.2 17.6 0
      vertex 24.7 23.6 0
    endloop
  endfacet
  facet normal 0 0 -1
    outer loop
      vertex 21.2 17.6 0
      vertex 24.7 5 0
      vertex 21.2 5 0
    endloop
  endfacet
  facet normal 0 0 -1
    outer loop
      vertex 45.9 0 0
      vertex 21.2 5 0
      vertex 24.7 5 0
    endloop
  endfacet
  facet normal 0 0 -1
    outer loop
      vertex 0 0 0
      vertex 21.2 5 0
      vertex 45.9 0 0
    endloop
  endfacet
  facet normal 0 0 -1
    outer loop
      vertex 0 0 0
      vertex 6 17.6 0
      vertex 6 5 0
    endloop
  endfacet
  facet normal -0 0 -1
    outer loop
      vertex 6 17.6 0
      vertex 0 0 0
      vertex 6 23.6 0
    endloop
  endfacet
  facet normal 0 0 -1
    outer loop
      vertex 0 41.7 0
      vertex 6 23.6 0
      vertex 0 0 0
    endloop
  endfacet
  facet normal -0 0 -1
    outer loop
      vertex 21.2 5 0
      vertex 0 0 0
      vertex 6 5 0
    endloop
  endfacet
  facet normal 0 0 -1
    outer loop
      vertex 45.9 0 0
      vertex 39.9 17.6 0
      vertex 45.9 41.7 0
    endloop
  endfacet
  facet normal 0 0 -1
    outer loop
      vertex 39.9 23.6 0
      vertex 45.9 41.7 0
      vertex 39.9 17.6 0
    endloop
  endfacet
  facet normal 0 0 -1
    outer loop
      vertex 39.9 36.2 0
      vertex 45.9 41.7 0
      vertex 39.9 23.6 0
    endloop
  endfacet
  facet normal 0 0 -1
    outer loop
      vertex 24.7 36.2 0
      vertex 45.9 41.7 0
      vertex 39.9 36.2 0
    endloop
  endfacet
  facet normal 0 0 -1
    outer loop
      vertex 21.2 23.6 0
      vertex 24.7 23.6 0
      vertex 21.2 17.6 0
    endloop
  endfacet
  facet normal 0 0 -1
    outer loop
      vertex 24.7 23.6 0
      vertex 21.2 23.6 0
      vertex 24.7 36.2 0
    endloop
  endfacet
  facet normal 0 0 -1
    outer loop
      vertex 21.2 36.2 0
      vertex 24.7 36.2 0
      vertex 21.2 23.6 0
    endloop
  endfacet
  facet normal 0 0 -1
    outer loop
      vertex 21.2 36.2 0
      vertex 45.9 41.7 0
      vertex 24.7 36.2 0
    endloop
  endfacet
  facet normal 0 0 -1
    outer loop
      vertex 0 41.7 0
      vertex 21.2 36.2 0
      vertex 6 36.2 0
    endloop
  endfacet
  facet normal 0 0 -1
    outer loop
      vertex 21.2 36.2 0
      vertex 0 41.7 0
      vertex 45.9 41.7 0
    endloop
  endfacet
  facet normal 0 0 -1
    outer loop
      vertex 6 23.6 0
      vertex 0 41.7 0
      vertex 6 36.2 0
    endloop
  endfacet
  facet normal 0 -1 0
    outer loop
      vertex 0 0 0
      vertex 45.9 0 1
      vertex 0 0 1
    endloop
  endfacet
  facet normal 0 -1 -0
    outer loop
      vertex 45.9 0 1
      vertex 0 0 0
      vertex 45.9 0 0
    endloop
  endfacet
  facet normal -1 0 0
    outer loop
      vertex 4.13 19.88 1
      vertex 4.13 21.88 4
      vertex 4.13 21.88 1
    endloop
  endfacet
  facet normal -1 -0 0
    outer loop
      vertex 4.13 21.88 4
      vertex 4.13 19.88 1
      vertex 4.13 19.88 4
    endloop
  endfacet
  facet normal -0 0 1
    outer loop
      vertex 4.13 21.88 4
      vertex 22.3625 19.88 4
      vertex 22.3625 21.88 4
    endloop
  endfacet
  facet normal 0 0 1
    outer loop
      vertex 22.3625 19.88 4
      vertex 4.13 21.88 4
      vertex 4.13 19.88 4
    endloop
  endfacet
  facet normal 0 0 1
    outer loop
      vertex 22.3625 21.88 4
      vertex 23.8625 21.88 4
      vertex 23.8625 38.09 4
    endloop
  endfacet
  facet normal 0 0 1
    outer loop
      vertex 23.8625 21.88 4
      vertex 22.3625 21.88 4
      vertex 23.8625 19.88 4
    endloop
  endfacet
  facet normal 0 0 1
    outer loop
      vertex 22.3625 21.88 4
      vertex 23.8625 38.09 4
      vertex 22.3625 38.09 4
    endloop
  endfacet
  facet normal 0 0 1
    outer loop
      vertex 22.3625 19.88 4
      vertex 23.8625 19.88 4
      vertex 22.3625 21.88 4
    endloop
  endfacet
  facet normal 0 0 1
    outer loop
      vertex 23.8625 19.88 4
      vertex 22.3625 19.88 4
      vertex 23.8625 3.14 4
    endloop
  endfacet
  facet normal 0 0 1
    outer loop
      vertex 23.8625 3.14 4
      vertex 22.3625 19.88 4
      vertex 22.3625 3.14 4
    endloop
  endfacet
  facet normal -0 0 1
    outer loop
      vertex 23.8625 21.88 4
      vertex 41.03 19.88 4
      vertex 41.03 21.88 4
    endloop
  endfacet
  facet normal 0 0 1
    outer loop
      vertex 41.03 19.88 4
      vertex 23.8625 21.88 4
      vertex 23.8625 19.88 4
    endloop
  endfacet
  facet normal 1 -0 0
    outer loop
      vertex 41.03 19.88 4
      vertex 41.03 21.88 1
      vertex 41.03 21.88 4
    endloop
  endfacet
  facet normal 1 0 0
    outer loop
      vertex 41.03 21.88 1
      vertex 41.03 19.88 4
      vertex 41.03 19.88 1
    endloop
  endfacet
  facet normal 0 -1 0
    outer loop
      vertex 4.13 19.88 1
      vertex 22.3625 19.88 4
      vertex 4.13 19.88 4
    endloop
  endfacet
  facet normal 0 -1 -0
    outer loop
      vertex 22.3625 19.88 4
      vertex 4.13 19.88 1
      vertex 22.3625 19.88 1
    endloop
  endfacet
  facet normal 0 -1 0
    outer loop
      vertex 23.8625 19.88 1
      vertex 41.03 19.88 4
      vertex 23.8625 19.88 4
    endloop
  endfacet
  facet normal 0 -1 -0
    outer loop
      vertex 41.03 19.88 4
      vertex 23.8625 19.88 1
      vertex 41.03 19.88 1
    endloop
  endfacet
  facet normal 0 1 -0
    outer loop
      vertex 41.03 21.88 1
      vertex 23.8625 21.88 4
      vertex 41.03 21.88 4
    endloop
  endfacet
  facet normal 0 1 0
    outer loop
      vertex 23.8625 21.88 4
      vertex 41.03 21.88 1
      vertex 23.8625 21.88 1
    endloop
  endfacet
  facet normal 0 1 -0
    outer loop
      vertex 22.3625 21.88 1
      vertex 4.13 21.88 4
      vertex 22.3625 21.88 4
    endloop
  endfacet
  facet normal 0 1 0
    outer loop
      vertex 4.13 21.88 4
      vertex 22.3625 21.88 1
      vertex 4.13 21.88 1
    endloop
  endfacet
  facet normal -1 0 0
    outer loop
      vertex 22.3625 3.14 1
      vertex 22.3625 19.88 4
      vertex 22.3625 19.88 1
    endloop
  endfacet
  facet normal -1 -0 0
    outer loop
      vertex 22.3625 19.88 4
      vertex 22.3625 3.14 1
      vertex 22.3625 3.14 4
    endloop
  endfacet
  facet normal -1 0 0
    outer loop
      vertex 22.3625 21.88 1
      vertex 22.3625 38.09 4
      vertex 22.3625 38.09 1
    endloop
  endfacet
  facet normal -1 -0 0
    outer loop
      vertex 22.3625 38.09 4
      vertex 22.3625 21.88 1
      vertex 22.3625 21.88 4
    endloop
  endfacet
  facet normal 1 -0 0
    outer loop
      vertex 23.8625 3.14 4
      vertex 23.8625 19.88 1
      vertex 23.8625 19.88 4
    endloop
  endfacet
  facet normal 1 0 0
    outer loop
      vertex 23.8625 19.88 1
      vertex 23.8625 3.14 4
      vertex 23.8625 3.14 1
    endloop
  endfacet
  facet normal 1 -0 0
    outer loop
      vertex 23.8625 21.88 4
      vertex 23.8625 38.09 1
      vertex 23.8625 38.09 4
    endloop
  endfacet
  facet normal 1 0 0
    outer loop
      vertex 23.8625 38.09 1
      vertex 23.8625 21.88 4
      vertex 23.8625 21.88 1
    endloop
  endfacet
  facet normal 0 -1 0
    outer loop
      vertex 22.3625 3.14 1
      vertex 23.8625 3.14 4
      vertex 22.3625 3.14 4
    endloop
  endfacet
  facet normal 0 -1 -0
    outer loop
      vertex 23.8625 3.14 4
      vertex 22.3625 3.14 1
      vertex 23.8625 3.14 1
    endloop
  endfacet
  facet normal 0 1 -0
    outer loop
      vertex 23.8625 38.09 1
      vertex 22.3625 38.09 4
      vertex 23.8625 38.09 4
    endloop
  endfacet
  facet normal 0 1 0
    outer loop
      vertex 22.3625 38.09 4
      vertex 23.8625 38.09 1
      vertex 22.3625 38.09 1
    endloop
  endfacet
endsolid OpenSCAD_Model
